M48
;Layer_Color=6321
;FILE_FORMAT=2:5
INCH,LZ
;TYPE=PLATED
T1F00S00C0.01181
T2F00S00C0.01968
T4F00S00C0.03937
T5F00S00C0.04000
T6F00S00C0.05906
;TYPE=NON_PLATED
T8F00S00C0.06693
T9F00S00C0.10022
T10F00S00C0.12205
T11F00S00C0.15748
%
T01
X0627953Y0617323
X0630709
X0635039Y0614961
X0652756Y0618898
X0687402Y0602205
X0716535Y0607087
X0735039Y0598425
X0735039Y0590551
X062126Y0604331
X0614173Y0610236
X0624803Y0614961
X0623622Y0632677
X0618898Y0631102
Y0634252
Y0640158
X0620079Y0659842
Y0663386
X0625984Y0644882
X0627953Y0640158
X0629921Y0636614
X0635039Y0648819
X0638976
X0652756Y0636614
Y0629528
X0687402Y0631102
X0698425
X0681496Y0660236
X069252Y0682283
T02
X053937Y0679134
Y0683071
Y0687008
Y0690945
Y0694882
Y0698819
Y0702756
Y0706693
Y071063
X0543307
X0547244
Y0706693
X0543307
Y0702756
X0547244
X0551181
Y0706693
Y071063
Y0714567
Y0718504
X0547244
X0543307
X053937
Y0722441
Y0726378
X0543307
X0547244
Y0722441
X0543307
X0551181
Y0726378
Y0730315
Y0734252
Y0738189
Y0742126
Y0746063
X0547244
Y0742126
X0543307
Y0746063
X053937
Y0742126
Y0738189
Y0734252
Y0730315
Y0714567
X0543307
X0547244
X0555118
Y071063
Y0706693
Y0702756
Y0698819
X0551181
Y0694882
Y0690945
Y0687008
X0547244
X0543307
Y0683071
X0547244
X0551181
X0555118
Y0687008
Y0690945
Y0694882
Y0679134
X0551181
X0547244
X0543307
X0555118Y0718504
Y0722441
Y0726378
Y0730315
Y0734252
Y0738189
Y0742126
Y0746063
Y075
X0551181
X0547244
X0543307
X053937
X057874Y0734252
Y0694882
T04
X0738189Y0622047
X0748032
X0757874
X0445866Y0625
X042815
Y0650591
X0445866
X0442913Y0681102
X0452756
X0462598
Y0740158
X0452756
X0442913
X0501968
X0511811
X0521654
Y0681102
X0511811
X0501968
X0542323Y0650591
X0560039
X0572835Y0642795
Y0632795
X0560039Y0625
X0542323
X0600394Y0681102
X0610236
X0620079
Y0740158
X0610236
X0600394
X0660433Y0739173
X067815
X0690945Y0746969
Y0756968
X067815Y0764764
X0660433
X0738189Y0740158
X0748032
X0757874
Y0681102
X0748032
X0738189
T05
X078748Y0610039
Y0620039
X077748
Y0610039
Y0630039
Y0640039
Y0650039
Y0660039
Y0670039
Y0680039
Y0690039
Y0700039
Y0710039
Y0720039
Y0730039
Y0740039
Y0750039
Y0760039
X078748
Y0750039
Y0740039
Y0730039
Y0720039
Y0710039
Y0700039
Y0690039
Y0680039
Y0670039
Y0660039
Y0650039
Y0640039
Y0630039
T06
X045063Y0448504
X047563Y0458504
X0525433Y0448504
X0550433Y0458504
X0600236Y0448504
X0625236Y0458504
X0675039Y0448504
X0700039Y0458504
X0749843Y0448504
X0774843Y0458504
Y0533307
X0749843Y0523307
X0700039Y0533307
X0675039Y0523307
X0625236Y0533307
X0600236Y0523307
X0550433Y0533307
X0525433Y0523307
X047563Y0533307
X045063Y0523307
T08
X044063Y0468504
X048063
X0515433
X0555433
X0590236
X0630236
X0665039
X0705039
X0739843
X0779843
Y0543307
X0739843
X0705039
X0665039
X0630236
X0590236
X0555433
X0515433
X048063
X044063
T09
X0555118Y0812205
T10
X0413386Y0413386
X0807087
Y0807087
X0413386
T11
X046063Y0468504
X0535433
X0610236
X0685039
X0759842
Y0543307
X0685039
X0610236
X0535433
X046063
M30
