G04 Layer_Color=8150272*
%FSLAX25Y25*%
%MOIN*%
G70*
G01*
G75*
%ADD48C,0.07800*%
%ADD49C,0.08674*%
%ADD50O,0.10642X0.13005*%
%ADD51C,0.16548*%
%ADD52C,0.10642*%
%ADD53C,0.07493*%
%ADD54O,0.07887X0.13792*%
%ADD55C,0.10822*%
%ADD56O,0.07887X0.12611*%
%ADD57O,0.06706X0.10642*%
%ADD58O,0.10642X0.06706*%
%ADD59C,0.13005*%
D48*
X787480Y760039D02*
D03*
X777480D02*
D03*
X787480Y750039D02*
D03*
X777480D02*
D03*
X787480Y740039D02*
D03*
X777480D02*
D03*
X787480Y730039D02*
D03*
X777480D02*
D03*
X787480Y720039D02*
D03*
X777480D02*
D03*
X787480Y710039D02*
D03*
X777480D02*
D03*
X787480Y700039D02*
D03*
X777480D02*
D03*
X787480Y690039D02*
D03*
X777480D02*
D03*
X787480Y680039D02*
D03*
X777480D02*
D03*
X787480Y670039D02*
D03*
X777480D02*
D03*
X787480Y660039D02*
D03*
X777480D02*
D03*
X787480Y650039D02*
D03*
X777480D02*
D03*
X787480Y640039D02*
D03*
X777480D02*
D03*
X787480Y630039D02*
D03*
X777480D02*
D03*
X787480Y620039D02*
D03*
X777480D02*
D03*
X787480Y610039D02*
D03*
X777480D02*
D03*
D49*
X748032Y622047D02*
D03*
X738189D02*
D03*
X757874D02*
D03*
Y740158D02*
D03*
X738189D02*
D03*
X748032D02*
D03*
Y681102D02*
D03*
X738189D02*
D03*
X757874D02*
D03*
X452756Y740158D02*
D03*
X442913D02*
D03*
X462598D02*
D03*
X452756Y681102D02*
D03*
X442913D02*
D03*
X462598D02*
D03*
X521654Y740158D02*
D03*
X501968D02*
D03*
X511811D02*
D03*
X610236D02*
D03*
X600394D02*
D03*
X620079D02*
D03*
Y681102D02*
D03*
X600394D02*
D03*
X610236D02*
D03*
X511811D02*
D03*
X501968D02*
D03*
X521654D02*
D03*
X678150Y739173D02*
D03*
Y764764D02*
D03*
X660433D02*
D03*
Y739173D02*
D03*
X542323Y650591D02*
D03*
Y625000D02*
D03*
X560039D02*
D03*
Y650591D02*
D03*
X428150Y650591D02*
D03*
Y625000D02*
D03*
X445866D02*
D03*
Y650591D02*
D03*
X572835Y642795D02*
D03*
Y632795D02*
D03*
X690945Y746969D02*
D03*
Y756968D02*
D03*
D50*
X729724Y649606D02*
D03*
X766339D02*
D03*
Y767717D02*
D03*
X729724D02*
D03*
Y708661D02*
D03*
X766339D02*
D03*
X434449Y767717D02*
D03*
X471063D02*
D03*
X434449Y708661D02*
D03*
X471063D02*
D03*
X530118Y767717D02*
D03*
X493504D02*
D03*
X591929D02*
D03*
X628543D02*
D03*
Y708661D02*
D03*
X591929D02*
D03*
X493504D02*
D03*
X530118D02*
D03*
D51*
X460630Y543307D02*
D03*
X535433D02*
D03*
X610236D02*
D03*
X685039D02*
D03*
X759842D02*
D03*
X460630Y468504D02*
D03*
X535433D02*
D03*
X610236D02*
D03*
X685039D02*
D03*
X759842D02*
D03*
D52*
X475630Y533307D02*
D03*
X450630Y523307D02*
D03*
X525433D02*
D03*
X550433Y533307D02*
D03*
X625236D02*
D03*
X600236Y523307D02*
D03*
X675039D02*
D03*
X700039Y533307D02*
D03*
X774843D02*
D03*
X749843Y523307D02*
D03*
X450630Y448504D02*
D03*
X475630Y458504D02*
D03*
X550433D02*
D03*
X525433Y448504D02*
D03*
X600236D02*
D03*
X625236Y458504D02*
D03*
X700039D02*
D03*
X675039Y448504D02*
D03*
X749843D02*
D03*
X774843Y458504D02*
D03*
D53*
X440630Y543307D02*
D03*
X480630D02*
D03*
X555433D02*
D03*
X515433D02*
D03*
X590236D02*
D03*
X630236D02*
D03*
X705039D02*
D03*
X665039D02*
D03*
X739843D02*
D03*
X779843D02*
D03*
X480630Y468504D02*
D03*
X440630D02*
D03*
X515433D02*
D03*
X555433D02*
D03*
X630236D02*
D03*
X590236D02*
D03*
X665039D02*
D03*
X705039D02*
D03*
X779843D02*
D03*
X739843D02*
D03*
D54*
X540551Y816142D02*
D03*
X579528D02*
D03*
D55*
X555118Y812205D02*
D03*
D56*
X541732Y787402D02*
D03*
X555118D02*
D03*
X575591D02*
D03*
D57*
X675197D02*
D03*
X685039D02*
D03*
X655512D02*
D03*
X645669D02*
D03*
D58*
X665354Y807087D02*
D03*
D59*
X413386Y413386D02*
D03*
X807087D02*
D03*
X413386Y807087D02*
D03*
X807087D02*
D03*
M02*
