G04 Layer_Physical_Order=1*
G04 Layer_Color=11767835*
%FSLAX25Y25*%
%MOIN*%
G70*
G01*
G75*
%ADD10R,0.02284X0.04646*%
%ADD11R,0.03543X0.02756*%
%ADD12R,0.08465X0.03740*%
%ADD13R,0.08465X0.12795*%
%ADD14R,0.02756X0.03543*%
%ADD15R,0.05118X0.04134*%
%ADD16R,0.01181X0.05906*%
%ADD17R,0.05906X0.01181*%
%ADD18R,0.04646X0.02284*%
%ADD19R,0.10433X0.06890*%
%ADD20C,0.00591*%
%ADD21C,0.01969*%
%ADD22C,0.07000*%
%ADD23C,0.07874*%
%ADD24O,0.09843X0.12205*%
%ADD25C,0.15748*%
%ADD26C,0.09843*%
%ADD27C,0.06693*%
%ADD28O,0.07087X0.12992*%
%ADD29C,0.10022*%
%ADD30O,0.07087X0.11811*%
%ADD31O,0.05906X0.09843*%
%ADD32O,0.09843X0.05906*%
%ADD33C,0.12205*%
%ADD34C,0.01969*%
%ADD35C,0.02362*%
%ADD36C,0.03937*%
G36*
X771580Y806944D02*
X775407Y806377D01*
X779159Y805437D01*
X782801Y804134D01*
X786298Y802480D01*
X789616Y800491D01*
X792723Y798187D01*
X795589Y795589D01*
X798187Y792723D01*
X800491Y789616D01*
X802480Y786298D01*
X804134Y782801D01*
X805437Y779159D01*
X806377Y775407D01*
X806944Y771580D01*
X807132Y767764D01*
X807087Y767717D01*
X807087D01*
X807134Y452756D01*
X806944Y448892D01*
X806377Y445066D01*
X805437Y441314D01*
X804134Y437672D01*
X802480Y434175D01*
X800491Y430857D01*
X798187Y427750D01*
X795589Y424884D01*
X792723Y422286D01*
X789616Y419982D01*
X786298Y417993D01*
X782801Y416339D01*
X779159Y415036D01*
X775407Y414096D01*
X771580Y413528D01*
X768217Y413363D01*
X767717Y413386D01*
Y413386D01*
X452756Y413339D01*
X452756D01*
X448892Y413528D01*
X445066Y414096D01*
X441314Y415036D01*
X437672Y416339D01*
X434175Y417993D01*
X430857Y419982D01*
X427750Y422286D01*
X424884Y424884D01*
X422286Y427750D01*
X419981Y430857D01*
X417993Y434175D01*
X416339Y437672D01*
X415036Y441314D01*
X414096Y445066D01*
X413528Y448892D01*
X413341Y452709D01*
X413386Y452756D01*
X413386D01*
X413339Y767717D01*
X413528Y771580D01*
X414096Y775407D01*
X415036Y779159D01*
X416339Y782801D01*
X417993Y786298D01*
X419981Y789616D01*
X422286Y792723D01*
X424884Y795589D01*
X427750Y798187D01*
X430857Y800491D01*
X434175Y802480D01*
X437672Y804134D01*
X441314Y805437D01*
X445066Y806377D01*
X448892Y806944D01*
X452256Y807110D01*
X452756Y807087D01*
Y807087D01*
X552800Y807102D01*
X553656Y806747D01*
X555118Y806555D01*
X556580Y806747D01*
X557438Y807102D01*
X659785Y807118D01*
X659812Y807087D01*
X659934Y806162D01*
X660291Y805300D01*
X660859Y804560D01*
X661599Y803992D01*
X662461Y803634D01*
X663386Y803513D01*
X667323D01*
X668248Y803634D01*
X669110Y803992D01*
X669850Y804560D01*
X670418Y805300D01*
X670775Y806162D01*
X670897Y807087D01*
X670926Y807120D01*
X767717Y807134D01*
X771580Y806944D01*
D02*
G37*
%LPC*%
G36*
X666823Y626862D02*
X664961D01*
Y625394D01*
X666823D01*
Y626862D01*
D02*
G37*
G36*
X758374Y626548D02*
Y622547D01*
X762375D01*
X762285Y623229D01*
X761829Y624331D01*
X761103Y625276D01*
X760157Y626002D01*
X759056Y626458D01*
X758374Y626548D01*
D02*
G37*
G36*
X681941Y626705D02*
X679528D01*
Y625472D01*
X681941D01*
Y626705D01*
D02*
G37*
G36*
X669685Y626862D02*
X667823D01*
Y625394D01*
X669685D01*
Y626862D01*
D02*
G37*
G36*
X541823Y624500D02*
X537822D01*
X537912Y623818D01*
X538368Y622717D01*
X539094Y621771D01*
X540039Y621045D01*
X541141Y620589D01*
X541823Y620499D01*
Y624500D01*
D02*
G37*
G36*
X432650Y624500D02*
X428650D01*
Y620499D01*
X429331Y620589D01*
X430433Y621045D01*
X431379Y621771D01*
X432104Y622717D01*
X432561Y623818D01*
X432650Y624500D01*
D02*
G37*
G36*
X757374Y626548D02*
X756692Y626458D01*
X755591Y626002D01*
X754645Y625276D01*
X753919Y624331D01*
X753463Y623229D01*
X753373Y622547D01*
X757374D01*
Y626548D01*
D02*
G37*
G36*
X546824Y624500D02*
X542823D01*
Y620499D01*
X543505Y620589D01*
X544606Y621045D01*
X545552Y621771D01*
X546278Y622717D01*
X546734Y623818D01*
X546824Y624500D01*
D02*
G37*
G36*
X685354Y626705D02*
X682941D01*
Y625472D01*
X685354D01*
Y626705D01*
D02*
G37*
G36*
X714961Y626575D02*
X710236D01*
Y625510D01*
X709252D01*
X709252Y625510D01*
X708964Y625452D01*
X708906Y625441D01*
X708613Y625245D01*
X706799Y623431D01*
X706299Y623638D01*
Y623937D01*
X700472D01*
Y620472D01*
X706299D01*
Y621302D01*
X706850D01*
X707196Y621370D01*
X707489Y621566D01*
X709626Y623703D01*
X710236D01*
Y622638D01*
X714961D01*
Y626575D01*
D02*
G37*
G36*
X542823Y629501D02*
Y625500D01*
X546824D01*
X546734Y626182D01*
X546278Y627283D01*
X545552Y628229D01*
X544606Y628955D01*
X543505Y629411D01*
X542823Y629501D01*
D02*
G37*
G36*
X786980Y629539D02*
X783420D01*
X783495Y628971D01*
X783907Y627976D01*
X784563Y627122D01*
X785417Y626466D01*
X786412Y626054D01*
X786980Y625979D01*
Y629539D01*
D02*
G37*
G36*
X777480Y634165D02*
X776412Y634025D01*
X775417Y633612D01*
X774563Y632957D01*
X773907Y632102D01*
X773495Y631107D01*
X773354Y630039D01*
X773495Y628971D01*
X773907Y627976D01*
X774563Y627122D01*
X775417Y626466D01*
X776412Y626054D01*
X777480Y625913D01*
X778548Y626054D01*
X779543Y626466D01*
X780398Y627122D01*
X781053Y627976D01*
X781466Y628971D01*
X781606Y630039D01*
X781466Y631107D01*
X781053Y632102D01*
X780398Y632957D01*
X779543Y633612D01*
X778548Y634025D01*
X777480Y634165D01*
D02*
G37*
G36*
X427650Y629501D02*
X426968Y629411D01*
X425866Y628955D01*
X424921Y628229D01*
X424195Y627283D01*
X423739Y626182D01*
X423649Y625500D01*
X427650D01*
Y629501D01*
D02*
G37*
G36*
X705315Y638189D02*
X701378D01*
Y633465D01*
X702483D01*
Y628937D01*
X700472D01*
Y625472D01*
X706299D01*
Y628937D01*
X704289D01*
Y633465D01*
X705315D01*
Y638189D01*
D02*
G37*
G36*
X541823Y629501D02*
X541141Y629411D01*
X540039Y628955D01*
X539094Y628229D01*
X538368Y627283D01*
X537912Y626182D01*
X537822Y625500D01*
X541823D01*
Y629501D01*
D02*
G37*
G36*
X428650Y629501D02*
Y625500D01*
X432650D01*
X432561Y626182D01*
X432104Y627283D01*
X431379Y628229D01*
X430433Y628955D01*
X429331Y629411D01*
X428650Y629501D01*
D02*
G37*
G36*
X777480Y614165D02*
X776412Y614025D01*
X775417Y613613D01*
X774563Y612957D01*
X773907Y612102D01*
X773495Y611107D01*
X773354Y610039D01*
X773495Y608972D01*
X773907Y607976D01*
X774563Y607122D01*
X775417Y606466D01*
X776412Y606054D01*
X777480Y605913D01*
X778548Y606054D01*
X779543Y606466D01*
X780398Y607122D01*
X781053Y607976D01*
X781466Y608972D01*
X781606Y610039D01*
X781466Y611107D01*
X781053Y612102D01*
X780398Y612957D01*
X779543Y613613D01*
X778548Y614025D01*
X777480Y614165D01*
D02*
G37*
G36*
X622532Y612992D02*
X619882D01*
Y605905D01*
X619882D01*
X620015Y605665D01*
X620084Y605406D01*
X619776Y604945D01*
X619654Y604331D01*
X619776Y603716D01*
X620124Y603195D01*
X620645Y602847D01*
X621260Y602725D01*
X621874Y602847D01*
X622395Y603195D01*
X622743Y603716D01*
X622865Y604331D01*
X622743Y604945D01*
X622436Y605406D01*
X622505Y605665D01*
X622532Y605713D01*
Y609449D01*
Y612992D01*
D02*
G37*
G36*
X779528Y781133D02*
X779528Y781133D01*
X622047D01*
X621433Y781011D01*
X620912Y780663D01*
X620912Y780663D01*
X586540Y746291D01*
X581102D01*
Y746654D01*
X576378D01*
Y746291D01*
X575394D01*
X575394Y746291D01*
X574881Y746189D01*
X574779Y746169D01*
X574258Y745820D01*
X573827Y745389D01*
X573327Y745596D01*
Y745768D01*
X563681D01*
Y740846D01*
X573327D01*
Y741701D01*
X574016D01*
X574016Y741701D01*
X574528Y741803D01*
X574630Y741824D01*
X575151Y742172D01*
X575878Y742899D01*
X576378Y742717D01*
Y742717D01*
X581102D01*
Y743079D01*
X587205D01*
X587205Y743079D01*
X587717Y743181D01*
X587819Y743202D01*
X588340Y743550D01*
X622712Y777922D01*
X778862D01*
X793670Y763115D01*
Y618500D01*
X789005Y613835D01*
X788548Y614025D01*
X787480Y614165D01*
X786412Y614025D01*
X785417Y613613D01*
X784563Y612957D01*
X783907Y612102D01*
X783495Y611107D01*
X783355Y610039D01*
X783495Y608972D01*
X783684Y608514D01*
X780122Y604952D01*
X739838D01*
X730860Y613931D01*
X730339Y614279D01*
X730237Y614299D01*
X729724Y614401D01*
X729724Y614401D01*
X722835D01*
Y614764D01*
X718110D01*
Y613698D01*
X714961D01*
Y614764D01*
X710236D01*
Y613698D01*
X708858D01*
X708513Y613630D01*
X708220Y613434D01*
X707894Y613108D01*
X706299D01*
Y613937D01*
X700472D01*
Y610472D01*
X706299D01*
Y611302D01*
X708268D01*
X708613Y611370D01*
X708906Y611566D01*
X709232Y611892D01*
X710236D01*
Y610827D01*
X714961D01*
Y611892D01*
X718110D01*
Y610827D01*
X722835D01*
Y611190D01*
X729059D01*
X738038Y602211D01*
X738038Y602211D01*
X738386Y601978D01*
X738559Y601863D01*
X739173Y601741D01*
X739173Y601741D01*
X780787D01*
X780787Y601741D01*
X781300Y601843D01*
X781402Y601863D01*
X781923Y602211D01*
X785955Y606244D01*
X786412Y606054D01*
X787480Y605913D01*
X788548Y606054D01*
X789543Y606466D01*
X790398Y607122D01*
X791053Y607976D01*
X791466Y608972D01*
X791606Y610039D01*
X791466Y611107D01*
X791276Y611564D01*
X796411Y616699D01*
X796411Y616699D01*
X796759Y617220D01*
X796779Y617322D01*
X796881Y617835D01*
X796881Y617835D01*
Y763779D01*
X796881Y763779D01*
X796779Y764292D01*
X796759Y764394D01*
X796411Y764915D01*
X796411Y764915D01*
X780663Y780663D01*
X780142Y781011D01*
X780040Y781031D01*
X779528Y781133D01*
D02*
G37*
G36*
X722835Y609646D02*
X718110D01*
Y608464D01*
X717870Y608332D01*
X717610Y608262D01*
X717150Y608570D01*
X716535Y608692D01*
X715921Y608570D01*
X715461Y608262D01*
X715201Y608332D01*
X714961Y608464D01*
Y609646D01*
X710236D01*
Y608777D01*
X709055D01*
X709055Y608777D01*
X708767Y608720D01*
X708709Y608708D01*
X708417Y608513D01*
X708012Y608108D01*
X706299D01*
Y608937D01*
X700472D01*
Y605472D01*
X706299D01*
Y606301D01*
X708386D01*
X708732Y606370D01*
X709024Y606566D01*
X709429Y606971D01*
X710236D01*
Y605709D01*
X714961D01*
Y605709D01*
X715201Y605842D01*
X715461Y605911D01*
X715921Y605603D01*
X716535Y605481D01*
X717150Y605603D01*
X717610Y605911D01*
X717870Y605842D01*
X718110Y605709D01*
Y605709D01*
X722835D01*
Y609646D01*
D02*
G37*
G36*
X631299Y599894D02*
X629831D01*
Y598032D01*
X631299D01*
Y599894D01*
D02*
G37*
G36*
X628831D02*
X627362D01*
Y598032D01*
X628831D01*
Y599894D01*
D02*
G37*
G36*
X631299Y602756D02*
X629831D01*
Y600894D01*
X631299D01*
Y602756D01*
D02*
G37*
G36*
X628831D02*
X627362D01*
Y600894D01*
X628831D01*
Y602756D01*
D02*
G37*
G36*
X777480Y624165D02*
X776412Y624025D01*
X775417Y623612D01*
X774563Y622957D01*
X773907Y622102D01*
X773495Y621107D01*
X773354Y620039D01*
X773495Y618971D01*
X773907Y617976D01*
X774563Y617122D01*
X775417Y616466D01*
X776412Y616054D01*
X777480Y615913D01*
X778548Y616054D01*
X779543Y616466D01*
X780398Y617122D01*
X781053Y617976D01*
X781466Y618971D01*
X781606Y620039D01*
X781466Y621107D01*
X781053Y622102D01*
X780398Y622957D01*
X779543Y623612D01*
X778548Y624025D01*
X777480Y624165D01*
D02*
G37*
G36*
X630709Y618928D02*
X630094Y618806D01*
X629573Y618458D01*
X629088D01*
X628567Y618806D01*
X627953Y618928D01*
X627338Y618806D01*
X626817Y618458D01*
X626469Y617937D01*
X626347Y617323D01*
X626402Y617049D01*
X626330Y616977D01*
X626134Y616684D01*
X626114Y616580D01*
X625636Y616343D01*
X625567Y616344D01*
X625418Y616444D01*
X624803Y616566D01*
X624189Y616444D01*
X623668Y616096D01*
X623320Y615575D01*
X623198Y614961D01*
X623320Y614346D01*
X623668Y613825D01*
X624097Y613539D01*
Y612992D01*
X623531D01*
Y609449D01*
Y605905D01*
X628799D01*
X629048Y605406D01*
X628920Y605234D01*
X626772D01*
X626426Y605165D01*
X626133Y604969D01*
X624558Y603395D01*
X624362Y603101D01*
X624294Y602756D01*
Y594075D01*
X554429Y524210D01*
X530873D01*
X530803Y524746D01*
X530248Y526087D01*
X529364Y527238D01*
X528213Y528122D01*
X526872Y528677D01*
X525433Y528866D01*
X523994Y528677D01*
X522653Y528122D01*
X521502Y527238D01*
X520618Y526087D01*
X520063Y524746D01*
X519874Y523307D01*
X520063Y521868D01*
X520618Y520527D01*
X521502Y519376D01*
X522653Y518493D01*
X523994Y517937D01*
X525433Y517748D01*
X526872Y517937D01*
X528213Y518493D01*
X529364Y519376D01*
X530248Y520527D01*
X530803Y521868D01*
X530873Y522404D01*
X554803D01*
X555149Y522473D01*
X555442Y522669D01*
X625836Y593062D01*
X625836Y593062D01*
X626031Y593355D01*
X626043Y593412D01*
X626100Y593701D01*
X626100Y593701D01*
Y602382D01*
X627146Y603428D01*
X629528D01*
X629873Y603496D01*
X630166Y603692D01*
X631544Y605070D01*
X631544Y605070D01*
X631740Y605363D01*
X631751Y605420D01*
X631809Y605709D01*
X632233Y605905D01*
X632374D01*
Y609449D01*
Y612992D01*
X629840D01*
Y614980D01*
X630599Y615739D01*
X630709Y615717D01*
X631323Y615839D01*
X631844Y616187D01*
X632192Y616708D01*
X632314Y617323D01*
X632192Y617937D01*
X631844Y618458D01*
X631323Y618806D01*
X630709Y618928D01*
D02*
G37*
G36*
X714961Y621457D02*
X710236D01*
Y618403D01*
X709941Y618108D01*
X706299D01*
Y618937D01*
X700472D01*
Y615472D01*
X706299D01*
Y616301D01*
X710315D01*
X710661Y616370D01*
X710954Y616566D01*
X711907Y617520D01*
X714961D01*
Y621457D01*
D02*
G37*
G36*
X427650Y624500D02*
X423649D01*
X423739Y623818D01*
X424195Y622717D01*
X424921Y621771D01*
X425866Y621045D01*
X426968Y620589D01*
X427650Y620499D01*
Y624500D01*
D02*
G37*
G36*
X560039Y655157D02*
X558857Y655002D01*
X557756Y654545D01*
X556810Y653820D01*
X556085Y652874D01*
X555628Y651772D01*
X555473Y650591D01*
X555628Y649409D01*
X556085Y648307D01*
X556810Y647362D01*
X557756Y646636D01*
X558857Y646179D01*
X559136Y646143D01*
Y629448D01*
X558857Y629411D01*
X557756Y628955D01*
X556810Y628229D01*
X556085Y627283D01*
X555628Y626182D01*
X555473Y625000D01*
X555628Y623818D01*
X556085Y622717D01*
X556810Y621771D01*
X557756Y621045D01*
X558857Y620589D01*
X560039Y620433D01*
X561221Y620589D01*
X562323Y621045D01*
X563269Y621771D01*
X563994Y622717D01*
X564321Y623506D01*
X586143D01*
X586334Y623044D01*
X582303Y619013D01*
X453130D01*
X449650Y622494D01*
X449821Y622717D01*
X450277Y623818D01*
X450433Y625000D01*
X450277Y626182D01*
X449821Y627283D01*
X449095Y628229D01*
X448149Y628955D01*
X447048Y629411D01*
X446769Y629448D01*
Y646143D01*
X447048Y646179D01*
X448149Y646636D01*
X449095Y647362D01*
X449821Y648307D01*
X450277Y649409D01*
X450433Y650591D01*
X450277Y651772D01*
X449821Y652874D01*
X449095Y653820D01*
X448149Y654545D01*
X447048Y655002D01*
X445866Y655157D01*
X444684Y655002D01*
X443583Y654545D01*
X442637Y653820D01*
X441911Y652874D01*
X441455Y651772D01*
X441299Y650591D01*
X441455Y649409D01*
X441911Y648307D01*
X442637Y647362D01*
X443583Y646636D01*
X444684Y646179D01*
X444963Y646143D01*
Y629448D01*
X444684Y629411D01*
X443583Y628955D01*
X442637Y628229D01*
X441911Y627283D01*
X441455Y626182D01*
X441299Y625000D01*
X441455Y623818D01*
X441911Y622717D01*
X442637Y621771D01*
X443583Y621045D01*
X444684Y620589D01*
X445866Y620433D01*
X447048Y620589D01*
X448149Y621045D01*
X448373Y621216D01*
X452117Y617472D01*
X452410Y617276D01*
X452756Y617207D01*
X582677D01*
X583023Y617276D01*
X583316Y617472D01*
X588169Y622325D01*
X590867D01*
X591058Y621863D01*
X580335Y611139D01*
X541339D01*
X540993Y611071D01*
X540700Y610875D01*
X540700Y610875D01*
X468084Y538259D01*
X467702Y538582D01*
X468488Y540052D01*
X468972Y541648D01*
X469135Y543307D01*
X468972Y544966D01*
X468488Y546562D01*
X467702Y548033D01*
X466644Y549321D01*
X465355Y550379D01*
X463885Y551165D01*
X462289Y551649D01*
X460630Y551813D01*
X458971Y551649D01*
X457375Y551165D01*
X455904Y550379D01*
X454616Y549321D01*
X453558Y548033D01*
X452772Y546562D01*
X452288Y544966D01*
X452124Y543307D01*
X452288Y541648D01*
X452772Y540052D01*
X453558Y538582D01*
X454616Y537293D01*
X455904Y536235D01*
X457375Y535449D01*
X458971Y534965D01*
X460630Y534802D01*
X462289Y534965D01*
X463885Y535449D01*
X465355Y536235D01*
X465679Y535853D01*
X455920Y526095D01*
X455340Y526222D01*
X454561Y527238D01*
X453410Y528122D01*
X452069Y528677D01*
X450630Y528866D01*
X449191Y528677D01*
X447850Y528122D01*
X446699Y527238D01*
X445815Y526087D01*
X445260Y524746D01*
X445071Y523307D01*
X445260Y521868D01*
X445815Y520527D01*
X446699Y519376D01*
X447850Y518493D01*
X449191Y517937D01*
X450630Y517748D01*
X452069Y517937D01*
X453410Y518493D01*
X454561Y519376D01*
X455444Y520527D01*
X456000Y521868D01*
X456189Y523307D01*
X456131Y523751D01*
X476226Y543846D01*
X476699Y543612D01*
X476659Y543307D01*
X476794Y542279D01*
X477191Y541322D01*
X477822Y540499D01*
X478644Y539868D01*
X479602Y539471D01*
X480630Y539336D01*
X481658Y539471D01*
X482615Y539868D01*
X483438Y540499D01*
X484069Y541322D01*
X484466Y542279D01*
X484601Y543307D01*
X484466Y544335D01*
X484069Y545293D01*
X483438Y546115D01*
X482615Y546746D01*
X481658Y547143D01*
X480630Y547278D01*
X480325Y547238D01*
X480091Y547711D01*
X541713Y609333D01*
X580709D01*
X581054Y609402D01*
X581347Y609598D01*
X592894Y621144D01*
X595591D01*
X595783Y620682D01*
X578366Y603265D01*
X553150D01*
X552804Y603197D01*
X552511Y603001D01*
X496605Y547095D01*
X496410Y546802D01*
X496341Y546457D01*
Y491713D01*
X468084Y463455D01*
X467702Y463778D01*
X468488Y465249D01*
X468972Y466845D01*
X469135Y468504D01*
X468972Y470163D01*
X468488Y471759D01*
X467702Y473229D01*
X466644Y474518D01*
X465355Y475576D01*
X463885Y476362D01*
X462289Y476846D01*
X460630Y477009D01*
X458971Y476846D01*
X457375Y476362D01*
X455904Y475576D01*
X454616Y474518D01*
X453558Y473229D01*
X452772Y471759D01*
X452288Y470163D01*
X452124Y468504D01*
X452288Y466845D01*
X452772Y465249D01*
X453558Y463778D01*
X454616Y462490D01*
X455904Y461432D01*
X457375Y460646D01*
X458971Y460162D01*
X460630Y459998D01*
X462289Y460162D01*
X463885Y460646D01*
X465355Y461432D01*
X465678Y461050D01*
X455920Y451292D01*
X455340Y451419D01*
X454561Y452435D01*
X453410Y453319D01*
X452069Y453874D01*
X450630Y454063D01*
X449191Y453874D01*
X447850Y453319D01*
X446699Y452435D01*
X445815Y451284D01*
X445260Y449943D01*
X445071Y448504D01*
X445260Y447065D01*
X445815Y445724D01*
X446699Y444573D01*
X447850Y443689D01*
X449191Y443134D01*
X450630Y442945D01*
X452069Y443134D01*
X453410Y443689D01*
X454561Y444573D01*
X455444Y445724D01*
X456000Y447065D01*
X456189Y448504D01*
X456131Y448948D01*
X476226Y469043D01*
X476699Y468809D01*
X476659Y468504D01*
X476794Y467476D01*
X477191Y466518D01*
X477822Y465696D01*
X478644Y465065D01*
X479602Y464668D01*
X480630Y464533D01*
X481658Y464668D01*
X482615Y465065D01*
X483438Y465696D01*
X484069Y466518D01*
X484466Y467476D01*
X484601Y468504D01*
X484466Y469532D01*
X484069Y470489D01*
X483438Y471312D01*
X482615Y471943D01*
X481658Y472340D01*
X480630Y472475D01*
X480325Y472435D01*
X480091Y472908D01*
X497883Y490700D01*
X498078Y490993D01*
X498147Y491339D01*
Y546083D01*
X553524Y601459D01*
X578740D01*
X579086Y601528D01*
X579379Y601724D01*
X589440Y611785D01*
X589902Y611593D01*
X589873Y592521D01*
X589898Y592460D01*
X589886Y592395D01*
X590038Y591627D01*
X590109Y591521D01*
X590134Y591397D01*
X590569Y590745D01*
X590675Y590675D01*
X590745Y590569D01*
X591397Y590134D01*
X591521Y590109D01*
X591627Y590038D01*
X592357Y589893D01*
X592390Y589900D01*
X592419Y589884D01*
X592516Y589913D01*
X592519Y589912D01*
X616141Y589873D01*
X616202Y589899D01*
X616266Y589886D01*
X617034Y590038D01*
X617140Y590109D01*
X617265Y590134D01*
X617916Y590569D01*
X617987Y590675D01*
X618092Y590745D01*
X618528Y591397D01*
X618552Y591521D01*
X618623Y591627D01*
X618768Y592357D01*
X618762Y592390D01*
X618777Y592419D01*
X618748Y592516D01*
X618749Y592519D01*
X618788Y618109D01*
X618763Y618170D01*
X618776Y618235D01*
X618623Y619003D01*
X618552Y619109D01*
X618528Y619233D01*
X618092Y619885D01*
X617987Y619955D01*
X617916Y620061D01*
X617784Y620149D01*
X617689Y620168D01*
X617615Y620229D01*
X617458Y620214D01*
X617304Y620245D01*
X616966Y620548D01*
X616929Y620599D01*
Y621850D01*
Y623819D01*
Y625787D01*
Y627756D01*
Y628437D01*
X613386D01*
X609842D01*
Y627872D01*
X609646D01*
X609300Y627803D01*
X609007Y627607D01*
X607193Y625793D01*
X606693Y626000D01*
Y626862D01*
X604331D01*
X601968D01*
Y625813D01*
X601968Y625394D01*
X601502Y625313D01*
X564565D01*
X564450Y626182D01*
X563994Y627283D01*
X563269Y628229D01*
X562323Y628955D01*
X561221Y629411D01*
X560943Y629448D01*
Y646143D01*
X561221Y646179D01*
X562323Y646636D01*
X563269Y647362D01*
X563994Y648307D01*
X564450Y649409D01*
X564606Y650591D01*
X564450Y651772D01*
X563994Y652874D01*
X563269Y653820D01*
X562323Y654545D01*
X561221Y655002D01*
X560039Y655157D01*
D02*
G37*
G36*
X738189Y626614D02*
X737007Y626458D01*
X735906Y626002D01*
X734960Y625276D01*
X734234Y624331D01*
X733778Y623229D01*
X733622Y622047D01*
X733778Y620865D01*
X734234Y619764D01*
X734960Y618818D01*
X735906Y618092D01*
X737007Y617636D01*
X738189Y617481D01*
X739371Y617636D01*
X740472Y618092D01*
X741418Y618818D01*
X742144Y619764D01*
X742600Y620865D01*
X742756Y622047D01*
X742600Y623229D01*
X742144Y624331D01*
X741418Y625276D01*
X740472Y626002D01*
X739371Y626458D01*
X738189Y626614D01*
D02*
G37*
G36*
X787480Y624165D02*
X786412Y624025D01*
X785417Y623612D01*
X784563Y622957D01*
X783907Y622102D01*
X783495Y621107D01*
X783355Y620039D01*
X783495Y618971D01*
X783907Y617976D01*
X784563Y617122D01*
X785417Y616466D01*
X786412Y616054D01*
X787480Y615913D01*
X788548Y616054D01*
X789543Y616466D01*
X790398Y617122D01*
X791053Y617976D01*
X791466Y618971D01*
X791606Y620039D01*
X791466Y621107D01*
X791053Y622102D01*
X790398Y622957D01*
X789543Y623612D01*
X788548Y624025D01*
X787480Y624165D01*
D02*
G37*
G36*
X762375Y621547D02*
X758374D01*
Y617546D01*
X759056Y617636D01*
X760157Y618092D01*
X761103Y618818D01*
X761829Y619764D01*
X762285Y620865D01*
X762375Y621547D01*
D02*
G37*
G36*
X757374D02*
X753373D01*
X753463Y620865D01*
X753919Y619764D01*
X754645Y618818D01*
X755591Y618092D01*
X756692Y617636D01*
X757374Y617546D01*
Y621547D01*
D02*
G37*
G36*
X791540Y629539D02*
X787980D01*
Y625979D01*
X788548Y626054D01*
X789543Y626466D01*
X790398Y627122D01*
X791053Y627976D01*
X791466Y628971D01*
X791540Y629539D01*
D02*
G37*
G36*
X729724Y656347D02*
X728286Y656157D01*
X726945Y655602D01*
X725793Y654718D01*
X724910Y653567D01*
X724355Y652226D01*
X724165Y650787D01*
Y648425D01*
X724355Y646986D01*
X724910Y645646D01*
X725793Y644494D01*
X726945Y643611D01*
X728286Y643055D01*
X729724Y642866D01*
X731163Y643055D01*
X732504Y643611D01*
X733656Y644494D01*
X734539Y645646D01*
X735094Y646986D01*
X735284Y648425D01*
Y650787D01*
X735094Y652226D01*
X734539Y653567D01*
X733656Y654718D01*
X732504Y655602D01*
X731163Y656157D01*
X729724Y656347D01*
D02*
G37*
G36*
X669685Y643791D02*
X667823D01*
Y642323D01*
X669685D01*
Y643791D01*
D02*
G37*
G36*
X452756Y744724D02*
X451574Y744568D01*
X450473Y744112D01*
X449527Y743387D01*
X448801Y742441D01*
X448345Y741339D01*
X448189Y740158D01*
X448345Y738976D01*
X448801Y737874D01*
X449527Y736928D01*
X450473Y736203D01*
X451574Y735746D01*
X451853Y735710D01*
Y708661D01*
X451922Y708316D01*
X452117Y708023D01*
X499361Y660779D01*
X499654Y660583D01*
X499712Y660571D01*
X500000Y660514D01*
X500000Y660514D01*
X595295D01*
X607365Y648445D01*
Y646063D01*
X607433Y645717D01*
X607629Y645424D01*
X609007Y644046D01*
X609300Y643851D01*
X609646Y643782D01*
X609842D01*
Y643504D01*
Y643217D01*
X613386D01*
X616929D01*
Y643504D01*
Y645472D01*
Y647835D01*
X614289D01*
Y650394D01*
X614289Y650394D01*
X614232Y650682D01*
X614220Y650739D01*
X614024Y651032D01*
X614024Y651032D01*
X599064Y665993D01*
X598771Y666189D01*
X598425Y666257D01*
X527933D01*
X515595Y678596D01*
X515766Y678819D01*
X516222Y679920D01*
X516378Y681102D01*
X516222Y682284D01*
X515766Y683386D01*
X515040Y684332D01*
X514094Y685057D01*
X512993Y685513D01*
X511811Y685669D01*
X510629Y685513D01*
X509528Y685057D01*
X508582Y684332D01*
X507856Y683386D01*
X507400Y682284D01*
X507244Y681102D01*
X507400Y679920D01*
X507856Y678819D01*
X508582Y677873D01*
X509528Y677147D01*
X510629Y676691D01*
X511811Y676536D01*
X512993Y676691D01*
X514094Y677147D01*
X514317Y677319D01*
X526920Y664716D01*
X527213Y664520D01*
X527559Y664451D01*
X527559Y664451D01*
X598051D01*
X612483Y650020D01*
Y647835D01*
X609842D01*
Y646792D01*
X609342Y646542D01*
X609171Y646671D01*
Y648819D01*
X609102Y649164D01*
X608906Y649458D01*
X596308Y662056D01*
X596015Y662252D01*
X595669Y662321D01*
X500374D01*
X453659Y709035D01*
Y735710D01*
X453938Y735746D01*
X455039Y736203D01*
X455985Y736928D01*
X456711Y737874D01*
X457167Y738976D01*
X457323Y740158D01*
X457167Y741339D01*
X456711Y742441D01*
X455985Y743387D01*
X455039Y744112D01*
X453938Y744568D01*
X452756Y744724D01*
D02*
G37*
G36*
X766339Y656347D02*
X764900Y656157D01*
X763559Y655602D01*
X762407Y654718D01*
X761524Y653567D01*
X760969Y652226D01*
X760779Y650787D01*
Y648425D01*
X760969Y646986D01*
X761524Y645646D01*
X762407Y644494D01*
X763559Y643611D01*
X764900Y643055D01*
X766339Y642866D01*
X767777Y643055D01*
X769118Y643611D01*
X770270Y644494D01*
X771153Y645646D01*
X771708Y646986D01*
X771898Y648425D01*
Y650787D01*
X771708Y652226D01*
X771153Y653567D01*
X770270Y654718D01*
X769118Y655602D01*
X767777Y656157D01*
X766339Y656347D01*
D02*
G37*
G36*
X669685Y641142D02*
X664961D01*
Y640500D01*
X664764Y640076D01*
X664475Y640019D01*
X664418Y640008D01*
X664125Y639812D01*
X664125Y639812D01*
X662311Y637998D01*
X661811Y638205D01*
Y638279D01*
X658268D01*
X654724D01*
Y637714D01*
X653915D01*
X653891Y637749D01*
X653370Y638098D01*
X652756Y638220D01*
X652141Y638098D01*
X651620Y637749D01*
X651272Y637229D01*
X651150Y636614D01*
X651272Y636000D01*
X651620Y635479D01*
X652141Y635131D01*
X652756Y635008D01*
X653370Y635131D01*
X653891Y635479D01*
X654178Y635908D01*
X654724D01*
Y635630D01*
Y633661D01*
Y631693D01*
Y630247D01*
X654250Y630144D01*
X654236Y630147D01*
X653891Y630663D01*
X653370Y631011D01*
X652756Y631133D01*
X652141Y631011D01*
X651620Y630663D01*
X651272Y630142D01*
X651150Y629528D01*
X651272Y628913D01*
X651620Y628392D01*
X652141Y628044D01*
X652756Y627922D01*
X653333Y628037D01*
X653346Y628034D01*
X654724D01*
Y627756D01*
Y627468D01*
X658268D01*
X661811D01*
Y627756D01*
Y628073D01*
X661960Y628103D01*
X662253Y628298D01*
X664496Y630542D01*
X664961Y630512D01*
Y630512D01*
X664961Y630512D01*
X669685D01*
Y634449D01*
X664961D01*
Y633344D01*
X664812Y633315D01*
X664519Y633119D01*
X662273Y630873D01*
X661811Y631064D01*
Y631693D01*
Y633661D01*
Y635630D01*
Y635908D01*
X662402D01*
X662747Y635977D01*
X663040Y636172D01*
X664499Y637631D01*
X664961Y637439D01*
Y637205D01*
X669685D01*
Y641142D01*
D02*
G37*
G36*
X684449Y638189D02*
X682980D01*
Y636327D01*
X684449D01*
Y638189D01*
D02*
G37*
G36*
X666823Y643791D02*
X664961D01*
Y642323D01*
X666823D01*
Y643791D01*
D02*
G37*
G36*
X572835Y647362D02*
X571653Y647206D01*
X570551Y646750D01*
X569606Y646024D01*
X568880Y645079D01*
X568424Y643977D01*
X568268Y642795D01*
X568424Y641613D01*
X568880Y640512D01*
X569606Y639566D01*
X570551Y638840D01*
X571653Y638384D01*
X572835Y638229D01*
X574017Y638384D01*
X575118Y638840D01*
X576064Y639566D01*
X576790Y640512D01*
X577246Y641613D01*
X577282Y641892D01*
X581831D01*
X582283Y641439D01*
Y638386D01*
X587008D01*
Y642323D01*
X583954D01*
X582843Y643434D01*
X582550Y643630D01*
X582205Y643698D01*
X577282D01*
X577246Y643977D01*
X576790Y645079D01*
X576064Y646024D01*
X575118Y646750D01*
X574017Y647206D01*
X572835Y647362D01*
D02*
G37*
G36*
X603831Y645760D02*
X601968D01*
Y644291D01*
X603831D01*
Y645760D01*
D02*
G37*
G36*
X432650Y650091D02*
X428650D01*
Y646090D01*
X429331Y646179D01*
X430433Y646636D01*
X431379Y647362D01*
X432104Y648307D01*
X432561Y649409D01*
X432650Y650091D01*
D02*
G37*
G36*
X427650D02*
X423649D01*
X423739Y649409D01*
X424195Y648307D01*
X424921Y647362D01*
X425866Y646636D01*
X426968Y646179D01*
X427650Y646090D01*
Y650091D01*
D02*
G37*
G36*
X546824Y650091D02*
X542823D01*
Y646090D01*
X543505Y646179D01*
X544606Y646636D01*
X545552Y647362D01*
X546278Y648307D01*
X546734Y649409D01*
X546824Y650091D01*
D02*
G37*
G36*
X541823D02*
X537822D01*
X537912Y649409D01*
X538368Y648307D01*
X539094Y647362D01*
X540039Y646636D01*
X541141Y646179D01*
X541823Y646090D01*
Y650091D01*
D02*
G37*
G36*
X667823Y646260D02*
Y644791D01*
X669685D01*
Y646260D01*
X667823D01*
D02*
G37*
G36*
X606693Y645760D02*
X604831D01*
Y644291D01*
X606693D01*
Y645760D01*
D02*
G37*
G36*
X787480Y654165D02*
X786412Y654025D01*
X785417Y653613D01*
X784563Y652957D01*
X783907Y652102D01*
X783495Y651107D01*
X783355Y650039D01*
X783495Y648972D01*
X783907Y647976D01*
X784563Y647122D01*
X785417Y646466D01*
X786412Y646054D01*
X787480Y645914D01*
X788548Y646054D01*
X789543Y646466D01*
X790398Y647122D01*
X791053Y647976D01*
X791466Y648972D01*
X791606Y650039D01*
X791466Y651107D01*
X791053Y652102D01*
X790398Y652957D01*
X789543Y653613D01*
X788548Y654025D01*
X787480Y654165D01*
D02*
G37*
G36*
X777480D02*
X776412Y654025D01*
X775417Y653613D01*
X774563Y652957D01*
X773907Y652102D01*
X773495Y651107D01*
X773354Y650039D01*
X773495Y648972D01*
X773907Y647976D01*
X774563Y647122D01*
X775417Y646466D01*
X776412Y646054D01*
X777480Y645914D01*
X778548Y646054D01*
X779543Y646466D01*
X780398Y647122D01*
X781053Y647976D01*
X781466Y648972D01*
X781606Y650039D01*
X781466Y651107D01*
X781053Y652102D01*
X780398Y652957D01*
X779543Y653613D01*
X778548Y654025D01*
X777480Y654165D01*
D02*
G37*
G36*
X669685Y629331D02*
X667823D01*
Y627862D01*
X669685D01*
Y629331D01*
D02*
G37*
G36*
X666823D02*
X664961D01*
Y627862D01*
X666823D01*
Y629331D01*
D02*
G37*
G36*
X689567Y638189D02*
X685630D01*
Y633465D01*
X686695D01*
Y632524D01*
X686266Y632238D01*
X685918Y631717D01*
X685796Y631102D01*
X685918Y630488D01*
X686266Y629967D01*
X686787Y629619D01*
X687402Y629497D01*
X688016Y629619D01*
X688537Y629967D01*
X688885Y630488D01*
X689007Y631102D01*
X688885Y631717D01*
X688537Y632238D01*
X688502Y632261D01*
Y633465D01*
X689567D01*
Y638189D01*
D02*
G37*
G36*
X572835Y637362D02*
X571653Y637206D01*
X570551Y636750D01*
X569606Y636024D01*
X568880Y635079D01*
X568424Y633977D01*
X568268Y632795D01*
X568424Y631613D01*
X568880Y630512D01*
X569606Y629566D01*
X570551Y628840D01*
X571653Y628384D01*
X572835Y628229D01*
X574017Y628384D01*
X575118Y628840D01*
X576064Y629566D01*
X576790Y630512D01*
X577246Y631613D01*
X577401Y632795D01*
X577246Y633977D01*
X576790Y635079D01*
X576064Y636024D01*
X575118Y636750D01*
X574017Y637206D01*
X572835Y637362D01*
D02*
G37*
G36*
X685354Y628937D02*
X682941D01*
Y627705D01*
X685354D01*
Y628937D01*
D02*
G37*
G36*
X681941D02*
X679528D01*
Y627705D01*
X681941D01*
Y628937D01*
D02*
G37*
G36*
X606693Y629331D02*
X604831D01*
Y627862D01*
X606693D01*
Y629331D01*
D02*
G37*
G36*
X603831D02*
X601968D01*
Y627862D01*
X603831D01*
Y629331D01*
D02*
G37*
G36*
X700197Y638189D02*
X696260D01*
Y633465D01*
X697325D01*
Y632261D01*
X697290Y632238D01*
X696942Y631717D01*
X696819Y631102D01*
X696942Y630488D01*
X697290Y629967D01*
X697811Y629619D01*
X698425Y629497D01*
X699040Y629619D01*
X699561Y629967D01*
X699909Y630488D01*
X700031Y631102D01*
X699909Y631717D01*
X699561Y632238D01*
X699131Y632524D01*
Y633465D01*
X700197D01*
Y638189D01*
D02*
G37*
G36*
X777480Y644165D02*
X776412Y644025D01*
X775417Y643612D01*
X774563Y642957D01*
X773907Y642102D01*
X773495Y641107D01*
X773354Y640039D01*
X773495Y638972D01*
X773907Y637976D01*
X774563Y637122D01*
X775417Y636466D01*
X776412Y636054D01*
X777480Y635914D01*
X778548Y636054D01*
X779543Y636466D01*
X780398Y637122D01*
X781053Y637976D01*
X781466Y638972D01*
X781606Y640039D01*
X781466Y641107D01*
X781053Y642102D01*
X780398Y642957D01*
X779543Y643612D01*
X778548Y644025D01*
X777480Y644165D01*
D02*
G37*
G36*
X452756Y685669D02*
X451574Y685513D01*
X450473Y685057D01*
X449527Y684332D01*
X448801Y683386D01*
X448345Y682284D01*
X448189Y681102D01*
X448345Y679920D01*
X448801Y678819D01*
X449527Y677873D01*
X450473Y677147D01*
X451574Y676691D01*
X452756Y676536D01*
X453938Y676691D01*
X455039Y677147D01*
X455262Y677319D01*
X475739Y656842D01*
X476032Y656646D01*
X476378Y656577D01*
X581122D01*
X589125Y648574D01*
X600149Y637550D01*
X600442Y637355D01*
X600787Y637286D01*
X607500D01*
X608613Y636172D01*
X608613Y636172D01*
X608906Y635977D01*
X609252Y635908D01*
X609842D01*
Y635630D01*
Y634268D01*
X609342Y634061D01*
X607528Y635875D01*
X607235Y636071D01*
X606890Y636139D01*
X587008D01*
Y637205D01*
X582283D01*
Y633268D01*
X587008D01*
Y634333D01*
X601968D01*
Y630512D01*
X606693D01*
Y631171D01*
X607193Y631294D01*
X608220Y630267D01*
X608513Y630071D01*
X608858Y630002D01*
X609842D01*
Y629724D01*
Y629437D01*
X613386D01*
X616929D01*
Y629724D01*
Y630002D01*
X617739D01*
X617762Y629967D01*
X618283Y629619D01*
X618898Y629497D01*
X619512Y629619D01*
X620033Y629967D01*
X620381Y630488D01*
X620503Y631102D01*
X620381Y631717D01*
X620033Y632238D01*
X619825Y632376D01*
Y632978D01*
X620033Y633117D01*
X620381Y633638D01*
X620430Y633885D01*
X620973Y634049D01*
X622071Y632951D01*
X622016Y632677D01*
X622139Y632063D01*
X622487Y631542D01*
X623008Y631194D01*
X623622Y631072D01*
X624236Y631194D01*
X624757Y631542D01*
X625105Y632063D01*
X625228Y632677D01*
X625105Y633292D01*
X624757Y633813D01*
X624236Y634161D01*
X623622Y634283D01*
X623348Y634228D01*
X619370Y638206D01*
X619431Y638408D01*
X619570Y638713D01*
X620033Y639022D01*
X620381Y639543D01*
X620503Y640158D01*
X620381Y640772D01*
X620033Y641293D01*
X619512Y641641D01*
X618898Y641763D01*
X618321Y641648D01*
X618307Y641651D01*
X616929D01*
Y642216D01*
X613386D01*
X609842D01*
Y641651D01*
X606693D01*
Y643110D01*
X601968D01*
Y639173D01*
X601502Y639092D01*
X601161D01*
X590402Y649851D01*
X582135Y658119D01*
X581842Y658315D01*
X581496Y658384D01*
X476752D01*
X456540Y678596D01*
X456711Y678819D01*
X457167Y679920D01*
X457323Y681102D01*
X457167Y682284D01*
X456711Y683386D01*
X455985Y684332D01*
X455039Y685057D01*
X453938Y685513D01*
X452756Y685669D01*
D02*
G37*
G36*
X681980Y638189D02*
X680512D01*
Y636327D01*
X681980D01*
Y638189D01*
D02*
G37*
G36*
X787480Y644165D02*
X786412Y644025D01*
X785417Y643612D01*
X784563Y642957D01*
X783907Y642102D01*
X783495Y641107D01*
X783355Y640039D01*
X783495Y638972D01*
X783907Y637976D01*
X784563Y637122D01*
X785417Y636466D01*
X786412Y636054D01*
X787480Y635914D01*
X788548Y636054D01*
X789543Y636466D01*
X790398Y637122D01*
X791053Y637976D01*
X791466Y638972D01*
X791606Y640039D01*
X791466Y641107D01*
X791053Y642102D01*
X790398Y642957D01*
X789543Y643612D01*
X788548Y644025D01*
X787480Y644165D01*
D02*
G37*
G36*
X787980Y634099D02*
Y630539D01*
X791540D01*
X791466Y631107D01*
X791053Y632102D01*
X790398Y632957D01*
X789543Y633612D01*
X788548Y634025D01*
X787980Y634099D01*
D02*
G37*
G36*
X786980D02*
X786412Y634025D01*
X785417Y633612D01*
X784563Y632957D01*
X783907Y632102D01*
X783495Y631107D01*
X783420Y630539D01*
X786980D01*
Y634099D01*
D02*
G37*
G36*
X684449Y635327D02*
X682980D01*
Y633465D01*
X684449D01*
Y635327D01*
D02*
G37*
G36*
X681980D02*
X680512D01*
Y633465D01*
X681980D01*
Y635327D01*
D02*
G37*
G36*
X732874Y600787D02*
X728937D01*
Y596063D01*
X732874D01*
Y597522D01*
X733749D01*
X733904Y597290D01*
X734425Y596942D01*
X735039Y596819D01*
X735654Y596942D01*
X736175Y597290D01*
X736523Y597811D01*
X736645Y598425D01*
X736523Y599040D01*
X736175Y599561D01*
X735654Y599909D01*
X735039Y600031D01*
X734425Y599909D01*
X733904Y599561D01*
X733749Y599328D01*
X732874D01*
Y600787D01*
D02*
G37*
G36*
X759842Y477009D02*
X758183Y476846D01*
X756588Y476362D01*
X755117Y475576D01*
X753828Y474518D01*
X752770Y473229D01*
X751984Y471759D01*
X751500Y470163D01*
X751337Y468504D01*
X751500Y466845D01*
X751984Y465249D01*
X752770Y463778D01*
X753828Y462490D01*
X755117Y461432D01*
X756588Y460646D01*
X758183Y460162D01*
X759842Y459998D01*
X761502Y460162D01*
X763097Y460646D01*
X764568Y461432D01*
X765857Y462490D01*
X766915Y463778D01*
X767701Y465249D01*
X768185Y466845D01*
X768348Y468504D01*
X768185Y470163D01*
X767701Y471759D01*
X766915Y473229D01*
X765857Y474518D01*
X764568Y475576D01*
X763097Y476362D01*
X761502Y476846D01*
X759842Y477009D01*
D02*
G37*
G36*
X685039D02*
X683380Y476846D01*
X681784Y476362D01*
X680314Y475576D01*
X679025Y474518D01*
X677967Y473229D01*
X677181Y471759D01*
X676697Y470163D01*
X676534Y468504D01*
X676697Y466845D01*
X677181Y465249D01*
X677967Y463778D01*
X679025Y462490D01*
X680314Y461432D01*
X681784Y460646D01*
X683380Y460162D01*
X685039Y459998D01*
X686699Y460162D01*
X688294Y460646D01*
X689765Y461432D01*
X691054Y462490D01*
X692111Y463778D01*
X692898Y465249D01*
X693382Y466845D01*
X693545Y468504D01*
X693382Y470163D01*
X692898Y471759D01*
X692111Y473229D01*
X691054Y474518D01*
X689765Y475576D01*
X688294Y476362D01*
X686699Y476846D01*
X685039Y477009D01*
D02*
G37*
G36*
X515433Y472475D02*
X514405Y472340D01*
X513448Y471943D01*
X512625Y471312D01*
X511994Y470489D01*
X511597Y469532D01*
X511462Y468504D01*
X511597Y467476D01*
X511994Y466518D01*
X512625Y465696D01*
X513448Y465065D01*
X514405Y464668D01*
X515433Y464533D01*
X516461Y464668D01*
X517419Y465065D01*
X518241Y465696D01*
X518872Y466518D01*
X519269Y467476D01*
X519404Y468504D01*
X519269Y469532D01*
X518872Y470489D01*
X518241Y471312D01*
X517419Y471943D01*
X516461Y472340D01*
X515433Y472475D01*
D02*
G37*
G36*
X440630D02*
X439602Y472340D01*
X438644Y471943D01*
X437822Y471312D01*
X437191Y470489D01*
X436794Y469532D01*
X436659Y468504D01*
X436794Y467476D01*
X437191Y466518D01*
X437822Y465696D01*
X438644Y465065D01*
X439602Y464668D01*
X440630Y464533D01*
X441658Y464668D01*
X442615Y465065D01*
X443438Y465696D01*
X444069Y466518D01*
X444466Y467476D01*
X444601Y468504D01*
X444466Y469532D01*
X444069Y470489D01*
X443438Y471312D01*
X442615Y471943D01*
X441658Y472340D01*
X440630Y472475D01*
D02*
G37*
G36*
X625736Y463998D02*
Y459004D01*
X630730D01*
X630606Y459943D01*
X630051Y461284D01*
X629167Y462435D01*
X628016Y463318D01*
X626675Y463874D01*
X625736Y463998D01*
D02*
G37*
G36*
X550933D02*
Y459004D01*
X555927D01*
X555803Y459943D01*
X555248Y461284D01*
X554364Y462435D01*
X553213Y463318D01*
X551872Y463874D01*
X550933Y463998D01*
D02*
G37*
G36*
X535433Y477009D02*
X533774Y476846D01*
X532178Y476362D01*
X530708Y475576D01*
X529419Y474518D01*
X528361Y473229D01*
X527575Y471759D01*
X527091Y470163D01*
X526928Y468504D01*
X527091Y466845D01*
X527575Y465249D01*
X528361Y463778D01*
X529419Y462490D01*
X530708Y461432D01*
X532178Y460646D01*
X533774Y460162D01*
X535433Y459998D01*
X537092Y460162D01*
X538688Y460646D01*
X540159Y461432D01*
X541447Y462490D01*
X542505Y463778D01*
X543291Y465249D01*
X543775Y466845D01*
X543939Y468504D01*
X543775Y470163D01*
X543291Y471759D01*
X542505Y473229D01*
X541447Y474518D01*
X540159Y475576D01*
X538688Y476362D01*
X537092Y476846D01*
X535433Y477009D01*
D02*
G37*
G36*
X775343Y463998D02*
Y459004D01*
X780336D01*
X780212Y459943D01*
X779657Y461284D01*
X778774Y462435D01*
X777622Y463318D01*
X776281Y463874D01*
X775343Y463998D01*
D02*
G37*
G36*
X555433Y472475D02*
X554405Y472340D01*
X553448Y471943D01*
X552625Y471312D01*
X551994Y470489D01*
X551597Y469532D01*
X551462Y468504D01*
X551597Y467476D01*
X551994Y466518D01*
X552625Y465696D01*
X553448Y465065D01*
X554405Y464668D01*
X555433Y464533D01*
X556461Y464668D01*
X557419Y465065D01*
X558241Y465696D01*
X558872Y466518D01*
X559269Y467476D01*
X559404Y468504D01*
X559269Y469532D01*
X558872Y470489D01*
X558241Y471312D01*
X557419Y471943D01*
X556461Y472340D01*
X555433Y472475D01*
D02*
G37*
G36*
X683858Y651297D02*
X665354D01*
X665009Y651228D01*
X664716Y651032D01*
X661518Y647835D01*
X654724D01*
Y645472D01*
Y643504D01*
Y641535D01*
Y639567D01*
Y639280D01*
X658268D01*
X661811D01*
Y639567D01*
Y641535D01*
Y643504D01*
Y643821D01*
X661960Y643851D01*
X662253Y644046D01*
X664461Y646254D01*
X664671Y646167D01*
X664671Y646167D01*
X664864Y646087D01*
X664908Y646069D01*
X664943Y646055D01*
X664961Y646047D01*
Y646000D01*
Y645989D01*
X664961Y645848D01*
Y645819D01*
Y645819D01*
Y644791D01*
X666823D01*
Y646260D01*
X665401D01*
X665401D01*
X665373Y646260D01*
X665231Y646260D01*
X665221D01*
X665173D01*
X665166Y646278D01*
X665152Y646312D01*
X665133Y646357D01*
X665053Y646550D01*
Y646550D01*
X664966Y646760D01*
X665335Y647128D01*
X682303D01*
X690829Y638602D01*
Y570866D01*
X690898Y570520D01*
X691094Y570227D01*
X748939Y512382D01*
Y453944D01*
X748404Y453874D01*
X747063Y453319D01*
X745911Y452435D01*
X745028Y451284D01*
X744473Y449943D01*
X744283Y448504D01*
X744473Y447065D01*
X745028Y445724D01*
X745911Y444573D01*
X747063Y443689D01*
X748404Y443134D01*
X749843Y442945D01*
X751281Y443134D01*
X752622Y443689D01*
X753774Y444573D01*
X754657Y445724D01*
X755212Y447065D01*
X755402Y448504D01*
X755212Y449943D01*
X754657Y451284D01*
X753774Y452435D01*
X752622Y453319D01*
X751281Y453874D01*
X750746Y453944D01*
Y512756D01*
X750677Y513101D01*
X750481Y513394D01*
X692635Y571240D01*
Y638976D01*
X692567Y639322D01*
X692371Y639615D01*
X683316Y648670D01*
X683023Y648866D01*
X682677Y648935D01*
X666367D01*
X666100Y649435D01*
X666137Y649490D01*
X683484D01*
X693307Y639668D01*
Y578939D01*
X693376Y578594D01*
X693572Y578301D01*
X745357Y526515D01*
X745028Y526087D01*
X744473Y524746D01*
X744283Y523307D01*
X744473Y521868D01*
X745028Y520527D01*
X745911Y519376D01*
X747063Y518493D01*
X748404Y517937D01*
X749843Y517748D01*
X751281Y517937D01*
X752622Y518493D01*
X753774Y519376D01*
X754657Y520527D01*
X755212Y521868D01*
X755402Y523307D01*
X755212Y524746D01*
X754657Y526087D01*
X753774Y527238D01*
X752622Y528122D01*
X751281Y528677D01*
X749843Y528866D01*
X748404Y528677D01*
X747063Y528122D01*
X746634Y527793D01*
X695113Y579314D01*
Y640042D01*
X695045Y640387D01*
X694849Y640680D01*
X694849Y640680D01*
X684497Y651032D01*
X684204Y651228D01*
X683858Y651297D01*
D02*
G37*
G36*
X779843Y472475D02*
X778815Y472340D01*
X777857Y471943D01*
X777035Y471312D01*
X776404Y470489D01*
X776007Y469532D01*
X775872Y468504D01*
X776007Y467476D01*
X776404Y466518D01*
X777035Y465696D01*
X777857Y465065D01*
X778815Y464668D01*
X779843Y464533D01*
X780870Y464668D01*
X781828Y465065D01*
X782650Y465696D01*
X783282Y466518D01*
X783678Y467476D01*
X783813Y468504D01*
X783678Y469532D01*
X783282Y470489D01*
X782650Y471312D01*
X781828Y471943D01*
X780870Y472340D01*
X779843Y472475D01*
D02*
G37*
G36*
X624736Y532807D02*
X619743D01*
X619866Y531868D01*
X620422Y530527D01*
X621305Y529376D01*
X622457Y528492D01*
X623797Y527937D01*
X624736Y527813D01*
Y532807D01*
D02*
G37*
G36*
X774343D02*
X769349D01*
X769473Y531868D01*
X770028Y530527D01*
X770911Y529376D01*
X772063Y528492D01*
X773404Y527937D01*
X774343Y527813D01*
Y532807D01*
D02*
G37*
G36*
X665039Y472475D02*
X664012Y472340D01*
X663054Y471943D01*
X662231Y471312D01*
X661600Y470489D01*
X661204Y469532D01*
X661068Y468504D01*
X661204Y467476D01*
X661600Y466518D01*
X662231Y465696D01*
X663054Y465065D01*
X664012Y464668D01*
X665039Y464533D01*
X666067Y464668D01*
X667025Y465065D01*
X667847Y465696D01*
X668478Y466518D01*
X668875Y467476D01*
X669010Y468504D01*
X668875Y469532D01*
X668478Y470489D01*
X667847Y471312D01*
X667025Y471943D01*
X666067Y472340D01*
X665039Y472475D01*
D02*
G37*
G36*
X590236D02*
X589209Y472340D01*
X588251Y471943D01*
X587428Y471312D01*
X586797Y470489D01*
X586401Y469532D01*
X586265Y468504D01*
X586401Y467476D01*
X586797Y466518D01*
X587428Y465696D01*
X588251Y465065D01*
X589209Y464668D01*
X590236Y464533D01*
X591264Y464668D01*
X592222Y465065D01*
X593044Y465696D01*
X593675Y466518D01*
X594072Y467476D01*
X594207Y468504D01*
X594072Y469532D01*
X593675Y470489D01*
X593044Y471312D01*
X592222Y471943D01*
X591264Y472340D01*
X590236Y472475D01*
D02*
G37*
G36*
X739843D02*
X738815Y472340D01*
X737857Y471943D01*
X737035Y471312D01*
X736404Y470489D01*
X736007Y469532D01*
X735872Y468504D01*
X736007Y467476D01*
X736404Y466518D01*
X737035Y465696D01*
X737857Y465065D01*
X738815Y464668D01*
X739843Y464533D01*
X740870Y464668D01*
X741828Y465065D01*
X742650Y465696D01*
X743282Y466518D01*
X743678Y467476D01*
X743814Y468504D01*
X743678Y469532D01*
X743282Y470489D01*
X742650Y471312D01*
X741828Y471943D01*
X740870Y472340D01*
X739843Y472475D01*
D02*
G37*
G36*
X705039D02*
X704012Y472340D01*
X703054Y471943D01*
X702232Y471312D01*
X701600Y470489D01*
X701204Y469532D01*
X701068Y468504D01*
X701204Y467476D01*
X701600Y466518D01*
X702232Y465696D01*
X703054Y465065D01*
X704012Y464668D01*
X705039Y464533D01*
X706067Y464668D01*
X707025Y465065D01*
X707847Y465696D01*
X708478Y466518D01*
X708875Y467476D01*
X709010Y468504D01*
X708875Y469532D01*
X708478Y470489D01*
X707847Y471312D01*
X707025Y471943D01*
X706067Y472340D01*
X705039Y472475D01*
D02*
G37*
G36*
X481123Y458004D02*
X476130D01*
Y453010D01*
X477069Y453134D01*
X478410Y453689D01*
X479561Y454573D01*
X480444Y455724D01*
X481000Y457065D01*
X481123Y458004D01*
D02*
G37*
G36*
X475130D02*
X470136D01*
X470260Y457065D01*
X470815Y455724D01*
X471699Y454573D01*
X472850Y453689D01*
X474191Y453134D01*
X475130Y453010D01*
Y458004D01*
D02*
G37*
G36*
X555927D02*
X550933D01*
Y453010D01*
X551872Y453134D01*
X553213Y453689D01*
X554364Y454573D01*
X555248Y455724D01*
X555803Y457065D01*
X555927Y458004D01*
D02*
G37*
G36*
X699539D02*
X694546D01*
X694669Y457065D01*
X695225Y455724D01*
X696108Y454573D01*
X697260Y453689D01*
X698600Y453134D01*
X699539Y453010D01*
Y458004D01*
D02*
G37*
G36*
X624736D02*
X619743D01*
X619866Y457065D01*
X620422Y455724D01*
X621305Y454573D01*
X622457Y453689D01*
X623797Y453134D01*
X624736Y453010D01*
Y458004D01*
D02*
G37*
G36*
X774343D02*
X769349D01*
X769473Y457065D01*
X770028Y455724D01*
X770911Y454573D01*
X772063Y453689D01*
X773404Y453134D01*
X774343Y453010D01*
Y458004D01*
D02*
G37*
G36*
X705533D02*
X700539D01*
Y453010D01*
X701478Y453134D01*
X702819Y453689D01*
X703970Y454573D01*
X704854Y455724D01*
X705409Y457065D01*
X705533Y458004D01*
D02*
G37*
G36*
X549933D02*
X544940D01*
X545063Y457065D01*
X545618Y455724D01*
X546502Y454573D01*
X547653Y453689D01*
X548994Y453134D01*
X549933Y453010D01*
Y458004D01*
D02*
G37*
G36*
X630730D02*
X625736D01*
Y453010D01*
X626675Y453134D01*
X628016Y453689D01*
X629167Y454573D01*
X630051Y455724D01*
X630606Y457065D01*
X630730Y458004D01*
D02*
G37*
G36*
X699539Y463998D02*
X698600Y463874D01*
X697260Y463318D01*
X696108Y462435D01*
X695225Y461284D01*
X694669Y459943D01*
X694546Y459004D01*
X699539D01*
Y463998D01*
D02*
G37*
G36*
X475130D02*
X474191Y463874D01*
X472850Y463318D01*
X471699Y462435D01*
X470815Y461284D01*
X470260Y459943D01*
X470136Y459004D01*
X475130D01*
Y463998D01*
D02*
G37*
G36*
X476130D02*
Y459004D01*
X481123D01*
X481000Y459943D01*
X480444Y461284D01*
X479561Y462435D01*
X478410Y463318D01*
X477069Y463874D01*
X476130Y463998D01*
D02*
G37*
G36*
X700539Y463998D02*
Y459004D01*
X705533D01*
X705409Y459943D01*
X704854Y461284D01*
X703970Y462435D01*
X702819Y463318D01*
X701478Y463874D01*
X700539Y463998D01*
D02*
G37*
G36*
X774343D02*
X773404Y463874D01*
X772063Y463318D01*
X770911Y462435D01*
X770028Y461284D01*
X769473Y459943D01*
X769349Y459004D01*
X774343D01*
Y463998D01*
D02*
G37*
G36*
X780336Y458004D02*
X775343D01*
Y453010D01*
X776281Y453134D01*
X777622Y453689D01*
X778774Y454573D01*
X779657Y455724D01*
X780212Y457065D01*
X780336Y458004D01*
D02*
G37*
G36*
X549933Y463998D02*
X548994Y463874D01*
X547653Y463318D01*
X546502Y462435D01*
X545618Y461284D01*
X545063Y459943D01*
X544940Y459004D01*
X549933D01*
Y463998D01*
D02*
G37*
G36*
X624736D02*
X623797Y463874D01*
X622457Y463318D01*
X621305Y462435D01*
X620422Y461284D01*
X619866Y459943D01*
X619743Y459004D01*
X624736D01*
Y463998D01*
D02*
G37*
G36*
X549933Y532807D02*
X544940D01*
X545063Y531868D01*
X545618Y530527D01*
X546502Y529376D01*
X547653Y528492D01*
X548994Y527937D01*
X549933Y527813D01*
Y532807D01*
D02*
G37*
G36*
X555433Y547278D02*
X554405Y547143D01*
X553448Y546746D01*
X552625Y546115D01*
X551994Y545293D01*
X551597Y544335D01*
X551462Y543307D01*
X551597Y542279D01*
X551994Y541322D01*
X552625Y540499D01*
X553448Y539868D01*
X554405Y539471D01*
X555433Y539336D01*
X556461Y539471D01*
X557419Y539868D01*
X558241Y540499D01*
X558872Y541322D01*
X559269Y542279D01*
X559404Y543307D01*
X559269Y544335D01*
X558872Y545293D01*
X558241Y546115D01*
X557419Y546746D01*
X556461Y547143D01*
X555433Y547278D01*
D02*
G37*
G36*
X515433D02*
X514405Y547143D01*
X513448Y546746D01*
X512625Y546115D01*
X511994Y545293D01*
X511597Y544335D01*
X511462Y543307D01*
X511597Y542279D01*
X511994Y541322D01*
X512625Y540499D01*
X513448Y539868D01*
X514405Y539471D01*
X515433Y539336D01*
X516461Y539471D01*
X517419Y539868D01*
X518241Y540499D01*
X518872Y541322D01*
X519269Y542279D01*
X519404Y543307D01*
X519269Y544335D01*
X518872Y545293D01*
X518241Y546115D01*
X517419Y546746D01*
X516461Y547143D01*
X515433Y547278D01*
D02*
G37*
G36*
X665039D02*
X664012Y547143D01*
X663054Y546746D01*
X662231Y546115D01*
X661600Y545293D01*
X661204Y544335D01*
X661068Y543307D01*
X661204Y542279D01*
X661600Y541322D01*
X662231Y540499D01*
X663054Y539868D01*
X664012Y539471D01*
X665039Y539336D01*
X666067Y539471D01*
X667025Y539868D01*
X667847Y540499D01*
X668478Y541322D01*
X668875Y542279D01*
X669010Y543307D01*
X668875Y544335D01*
X668478Y545293D01*
X667847Y546115D01*
X667025Y546746D01*
X666067Y547143D01*
X665039Y547278D01*
D02*
G37*
G36*
X590236D02*
X589209Y547143D01*
X588251Y546746D01*
X587428Y546115D01*
X586797Y545293D01*
X586401Y544335D01*
X586265Y543307D01*
X586401Y542279D01*
X586797Y541322D01*
X587428Y540499D01*
X588251Y539868D01*
X589209Y539471D01*
X590236Y539336D01*
X591264Y539471D01*
X592222Y539868D01*
X593044Y540499D01*
X593675Y541322D01*
X594072Y542279D01*
X594207Y543307D01*
X594072Y544335D01*
X593675Y545293D01*
X593044Y546115D01*
X592222Y546746D01*
X591264Y547143D01*
X590236Y547278D01*
D02*
G37*
G36*
X685039Y551813D02*
X683380Y551649D01*
X681784Y551165D01*
X680314Y550379D01*
X679025Y549321D01*
X677967Y548033D01*
X677181Y546562D01*
X676697Y544966D01*
X676534Y543307D01*
X676697Y541648D01*
X677181Y540052D01*
X677967Y538582D01*
X679025Y537293D01*
X680314Y536235D01*
X681784Y535449D01*
X683380Y534965D01*
X685039Y534802D01*
X686699Y534965D01*
X688294Y535449D01*
X689765Y536235D01*
X691054Y537293D01*
X692111Y538582D01*
X692898Y540052D01*
X693382Y541648D01*
X693545Y543307D01*
X693382Y544966D01*
X692898Y546562D01*
X692111Y548033D01*
X691054Y549321D01*
X689765Y550379D01*
X688294Y551165D01*
X686699Y551649D01*
X685039Y551813D01*
D02*
G37*
G36*
X535433D02*
X533774Y551649D01*
X532178Y551165D01*
X530708Y550379D01*
X529419Y549321D01*
X528361Y548033D01*
X527575Y546562D01*
X527091Y544966D01*
X526928Y543307D01*
X527091Y541648D01*
X527575Y540052D01*
X528361Y538582D01*
X529419Y537293D01*
X530708Y536235D01*
X532178Y535449D01*
X533774Y534965D01*
X535433Y534802D01*
X537092Y534965D01*
X538688Y535449D01*
X540159Y536235D01*
X541447Y537293D01*
X542505Y538582D01*
X543291Y540052D01*
X543775Y541648D01*
X543939Y543307D01*
X543775Y544966D01*
X543291Y546562D01*
X542505Y548033D01*
X541447Y549321D01*
X540159Y550379D01*
X538688Y551165D01*
X537092Y551649D01*
X535433Y551813D01*
D02*
G37*
G36*
X440630Y547278D02*
X439602Y547143D01*
X438644Y546746D01*
X437822Y546115D01*
X437191Y545293D01*
X436794Y544335D01*
X436659Y543307D01*
X436794Y542279D01*
X437191Y541322D01*
X437822Y540499D01*
X438644Y539868D01*
X439602Y539471D01*
X440630Y539336D01*
X441658Y539471D01*
X442615Y539868D01*
X443438Y540499D01*
X444069Y541322D01*
X444466Y542279D01*
X444601Y543307D01*
X444466Y544335D01*
X444069Y545293D01*
X443438Y546115D01*
X442615Y546746D01*
X441658Y547143D01*
X440630Y547278D01*
D02*
G37*
G36*
X759842Y551813D02*
X758183Y551649D01*
X756588Y551165D01*
X755117Y550379D01*
X753828Y549321D01*
X752770Y548033D01*
X751984Y546562D01*
X751500Y544966D01*
X751337Y543307D01*
X751500Y541648D01*
X751984Y540052D01*
X752770Y538582D01*
X753828Y537293D01*
X755117Y536235D01*
X756588Y535449D01*
X758183Y534965D01*
X759842Y534802D01*
X761502Y534965D01*
X763097Y535449D01*
X764568Y536235D01*
X765857Y537293D01*
X766915Y538582D01*
X767701Y540052D01*
X768185Y541648D01*
X768348Y543307D01*
X768185Y544966D01*
X767701Y546562D01*
X766915Y548033D01*
X765857Y549321D01*
X764568Y550379D01*
X763097Y551165D01*
X761502Y551649D01*
X759842Y551813D01*
D02*
G37*
G36*
X705039Y547278D02*
X704012Y547143D01*
X703054Y546746D01*
X702232Y546115D01*
X701600Y545293D01*
X701204Y544335D01*
X701068Y543307D01*
X701204Y542279D01*
X701600Y541322D01*
X702232Y540499D01*
X703054Y539868D01*
X704012Y539471D01*
X705039Y539336D01*
X706067Y539471D01*
X707025Y539868D01*
X707847Y540499D01*
X708478Y541322D01*
X708875Y542279D01*
X709010Y543307D01*
X708875Y544335D01*
X708478Y545293D01*
X707847Y546115D01*
X707025Y546746D01*
X706067Y547143D01*
X705039Y547278D01*
D02*
G37*
G36*
X685039Y792944D02*
X684114Y792822D01*
X683252Y792465D01*
X682512Y791897D01*
X681944Y791157D01*
X681587Y790295D01*
X681465Y789370D01*
Y785433D01*
X681587Y784508D01*
X681944Y783646D01*
X682512Y782906D01*
X683252Y782338D01*
X684114Y781981D01*
X685039Y781859D01*
X685964Y781981D01*
X686826Y782338D01*
X687567Y782906D01*
X688134Y783646D01*
X688491Y784508D01*
X688613Y785433D01*
Y786498D01*
X777185D01*
X798309Y765374D01*
Y612579D01*
X781122Y595391D01*
X728721D01*
X727756Y596356D01*
Y600787D01*
X723819D01*
Y599328D01*
X721063D01*
Y600787D01*
X717126D01*
Y596063D01*
X721063D01*
Y597522D01*
X723819D01*
Y596063D01*
X725494D01*
X727708Y593850D01*
X728001Y593654D01*
X728346Y593585D01*
X781496D01*
X781842Y593654D01*
X782135Y593850D01*
X799851Y611566D01*
X800047Y611859D01*
X800058Y611916D01*
X800116Y612205D01*
X800116Y612205D01*
Y765748D01*
X800047Y766094D01*
X799851Y766387D01*
X778198Y788040D01*
X777905Y788236D01*
X777559Y788305D01*
X688613D01*
Y789370D01*
X688491Y790295D01*
X688134Y791157D01*
X687567Y791897D01*
X686826Y792465D01*
X685964Y792822D01*
X685039Y792944D01*
D02*
G37*
G36*
X732874Y592913D02*
X728937D01*
Y588189D01*
X732874D01*
Y589648D01*
X733749D01*
X733904Y589416D01*
X734425Y589068D01*
X735039Y588945D01*
X735654Y589068D01*
X736175Y589416D01*
X736523Y589937D01*
X736645Y590551D01*
X736523Y591166D01*
X736175Y591686D01*
X735654Y592035D01*
X735039Y592157D01*
X734425Y592035D01*
X733904Y591686D01*
X733749Y591454D01*
X732874D01*
Y592913D01*
D02*
G37*
G36*
X706299Y603937D02*
X700472D01*
Y600472D01*
X706299D01*
Y600772D01*
X706799Y600979D01*
X709991Y597787D01*
X710284Y597591D01*
X710630Y597522D01*
X712008D01*
Y596063D01*
X715945D01*
Y600787D01*
X712008D01*
Y599328D01*
X711004D01*
X707489Y602843D01*
X707196Y603039D01*
X706850Y603108D01*
X706299D01*
Y603937D01*
D02*
G37*
G36*
X675591Y599803D02*
X670866D01*
Y595866D01*
X675591D01*
Y596302D01*
X679528D01*
Y595472D01*
X685354D01*
Y598937D01*
X679528D01*
Y598108D01*
X675591D01*
Y599803D01*
D02*
G37*
G36*
X779843Y547278D02*
X778815Y547143D01*
X777857Y546746D01*
X777035Y546115D01*
X776404Y545293D01*
X776007Y544335D01*
X775872Y543307D01*
X776007Y542279D01*
X776404Y541322D01*
X777035Y540499D01*
X777857Y539868D01*
X778815Y539471D01*
X779843Y539336D01*
X780870Y539471D01*
X781828Y539868D01*
X782650Y540499D01*
X783282Y541322D01*
X783678Y542279D01*
X783813Y543307D01*
X783678Y544335D01*
X783282Y545293D01*
X782650Y546115D01*
X781828Y546746D01*
X780870Y547143D01*
X779843Y547278D01*
D02*
G37*
G36*
X739843D02*
X738815Y547143D01*
X737857Y546746D01*
X737035Y546115D01*
X736404Y545293D01*
X736007Y544335D01*
X735872Y543307D01*
X736007Y542279D01*
X736404Y541322D01*
X737035Y540499D01*
X737857Y539868D01*
X738815Y539471D01*
X739843Y539336D01*
X740870Y539471D01*
X741828Y539868D01*
X742650Y540499D01*
X743282Y541322D01*
X743678Y542279D01*
X743814Y543307D01*
X743678Y544335D01*
X743282Y545293D01*
X742650Y546115D01*
X741828Y546746D01*
X740870Y547143D01*
X739843Y547278D01*
D02*
G37*
G36*
X706299Y598937D02*
X700472D01*
Y595472D01*
X706299D01*
X706299Y595472D01*
Y595472D01*
X706673Y595199D01*
X711960Y589913D01*
X712008Y589880D01*
Y588189D01*
X715945D01*
Y592913D01*
X712008D01*
X712008Y592913D01*
Y592913D01*
X711539Y592888D01*
X706583Y597843D01*
X706299Y598033D01*
Y598937D01*
D02*
G37*
G36*
X653543Y796179D02*
X653255Y796121D01*
X653198Y796110D01*
X652905Y795914D01*
X652905Y795914D01*
X648765Y791774D01*
X648266Y791807D01*
X648196Y791897D01*
X647456Y792465D01*
X646594Y792822D01*
X645669Y792944D01*
X644744Y792822D01*
X643882Y792465D01*
X643142Y791897D01*
X642574Y791157D01*
X642217Y790295D01*
X642095Y789370D01*
Y785433D01*
X642217Y784508D01*
X642574Y783646D01*
X643142Y782906D01*
X643882Y782338D01*
X644744Y781981D01*
X645669Y781859D01*
X646594Y781981D01*
X647456Y782338D01*
X648196Y782906D01*
X648764Y783646D01*
X649121Y784508D01*
X649243Y785433D01*
Y789370D01*
X649205Y789660D01*
X653917Y794372D01*
X775216D01*
X802246Y767342D01*
Y610610D01*
X779153Y587517D01*
X728721D01*
X727756Y588482D01*
Y592913D01*
X723819D01*
Y591454D01*
X721063D01*
Y592913D01*
X717126D01*
Y588189D01*
X721063D01*
Y589648D01*
X723819D01*
Y588189D01*
X725494D01*
X727708Y585976D01*
X728001Y585780D01*
X728346Y585711D01*
X779528D01*
X779873Y585780D01*
X780166Y585976D01*
X803788Y609598D01*
X803984Y609891D01*
X804053Y610236D01*
Y767717D01*
X803984Y768062D01*
X803788Y768355D01*
X776229Y795914D01*
X775936Y796110D01*
X775591Y796179D01*
X653543D01*
X653543Y796179D01*
D02*
G37*
G36*
X630730Y532807D02*
X625736D01*
Y527814D01*
X626675Y527937D01*
X628016Y528492D01*
X629167Y529376D01*
X630051Y530527D01*
X630606Y531868D01*
X630730Y532807D01*
D02*
G37*
G36*
X555927D02*
X550933D01*
Y527814D01*
X551872Y527937D01*
X553213Y528492D01*
X554364Y529376D01*
X555248Y530527D01*
X555803Y531868D01*
X555927Y532807D01*
D02*
G37*
G36*
X774343Y538801D02*
X773404Y538677D01*
X772063Y538122D01*
X770911Y537238D01*
X770028Y536087D01*
X769473Y534746D01*
X769349Y533807D01*
X774343D01*
Y538801D01*
D02*
G37*
G36*
X780336Y532807D02*
X775343D01*
Y527814D01*
X776281Y527937D01*
X777622Y528492D01*
X778774Y529376D01*
X779657Y530527D01*
X780212Y531868D01*
X780336Y532807D01*
D02*
G37*
G36*
X475130D02*
X470136D01*
X470260Y531868D01*
X470815Y530527D01*
X471699Y529376D01*
X472850Y528492D01*
X474191Y527937D01*
X475130Y527814D01*
Y532807D01*
D02*
G37*
G36*
X705533D02*
X700539D01*
Y527813D01*
X701478Y527937D01*
X702819Y528492D01*
X703970Y529376D01*
X704854Y530527D01*
X705409Y531868D01*
X705533Y532807D01*
D02*
G37*
G36*
X699539D02*
X694546D01*
X694669Y531868D01*
X695225Y530527D01*
X696108Y529376D01*
X697260Y528492D01*
X698600Y527937D01*
X699539Y527814D01*
Y532807D01*
D02*
G37*
G36*
X481123D02*
X476130D01*
Y527814D01*
X477069Y527937D01*
X478410Y528492D01*
X479561Y529376D01*
X480444Y530527D01*
X481000Y531868D01*
X481123Y532807D01*
D02*
G37*
G36*
X624736Y538801D02*
X623797Y538677D01*
X622457Y538122D01*
X621305Y537238D01*
X620422Y536087D01*
X619866Y534746D01*
X619743Y533807D01*
X624736D01*
Y538801D01*
D02*
G37*
G36*
X550933Y538801D02*
Y533807D01*
X555927D01*
X555803Y534746D01*
X555248Y536087D01*
X554364Y537238D01*
X553213Y538122D01*
X551872Y538677D01*
X550933Y538801D01*
D02*
G37*
G36*
X476130D02*
Y533807D01*
X481123D01*
X481000Y534746D01*
X480444Y536087D01*
X479561Y537238D01*
X478410Y538122D01*
X477069Y538677D01*
X476130Y538801D01*
D02*
G37*
G36*
X775343Y538801D02*
Y533807D01*
X780336D01*
X780212Y534746D01*
X779657Y536087D01*
X778774Y537238D01*
X777622Y538122D01*
X776281Y538677D01*
X775343Y538801D01*
D02*
G37*
G36*
X625736Y538801D02*
Y533807D01*
X630730D01*
X630606Y534746D01*
X630051Y536087D01*
X629167Y537238D01*
X628016Y538122D01*
X626675Y538677D01*
X625736Y538801D01*
D02*
G37*
G36*
X475130D02*
X474191Y538677D01*
X472850Y538122D01*
X471699Y537238D01*
X470815Y536087D01*
X470260Y534746D01*
X470136Y533807D01*
X475130D01*
Y538801D01*
D02*
G37*
G36*
X549933Y538801D02*
X548994Y538677D01*
X547653Y538122D01*
X546502Y537238D01*
X545618Y536087D01*
X545063Y534746D01*
X544940Y533807D01*
X549933D01*
Y538801D01*
D02*
G37*
G36*
X700539D02*
Y533807D01*
X705533D01*
X705409Y534746D01*
X704854Y536087D01*
X703970Y537238D01*
X702819Y538122D01*
X701478Y538677D01*
X700539Y538801D01*
D02*
G37*
G36*
X699539Y538801D02*
X698600Y538677D01*
X697260Y538122D01*
X696108Y537238D01*
X695225Y536087D01*
X694669Y534746D01*
X694546Y533807D01*
X699539D01*
Y538801D01*
D02*
G37*
G36*
X442913Y744724D02*
X441732Y744568D01*
X440630Y744112D01*
X439684Y743387D01*
X438959Y742441D01*
X438502Y741339D01*
X438347Y740158D01*
X438502Y738976D01*
X438959Y737874D01*
X439684Y736928D01*
X440630Y736203D01*
X441732Y735746D01*
X442913Y735591D01*
X444095Y735746D01*
X445197Y736203D01*
X446142Y736928D01*
X446868Y737874D01*
X447324Y738976D01*
X447480Y740158D01*
X447324Y741339D01*
X446868Y742441D01*
X446142Y743387D01*
X445197Y744112D01*
X444095Y744568D01*
X442913Y744724D01*
D02*
G37*
G36*
X677650Y738673D02*
X673649D01*
X673739Y737991D01*
X674195Y736890D01*
X674921Y735944D01*
X675866Y735218D01*
X676968Y734762D01*
X677650Y734672D01*
Y738673D01*
D02*
G37*
G36*
X600394Y744724D02*
X599212Y744568D01*
X598110Y744112D01*
X597165Y743387D01*
X596439Y742441D01*
X595983Y741339D01*
X595827Y740158D01*
X595983Y738976D01*
X596439Y737874D01*
X597165Y736928D01*
X598110Y736203D01*
X599212Y735746D01*
X600394Y735591D01*
X601576Y735746D01*
X602677Y736203D01*
X603623Y736928D01*
X604349Y737874D01*
X604805Y738976D01*
X604960Y740158D01*
X604805Y741339D01*
X604349Y742441D01*
X603623Y743387D01*
X602677Y744112D01*
X601576Y744568D01*
X600394Y744724D01*
D02*
G37*
G36*
X501968D02*
X500787Y744568D01*
X499685Y744112D01*
X498739Y743387D01*
X498014Y742441D01*
X497557Y741339D01*
X497402Y740158D01*
X497557Y738976D01*
X498014Y737874D01*
X498739Y736928D01*
X499685Y736203D01*
X500787Y735746D01*
X501968Y735591D01*
X503150Y735746D01*
X504252Y736203D01*
X505198Y736928D01*
X505923Y737874D01*
X506380Y738976D01*
X506535Y740158D01*
X506380Y741339D01*
X505923Y742441D01*
X505198Y743387D01*
X504252Y744112D01*
X503150Y744568D01*
X501968Y744724D01*
D02*
G37*
G36*
X682650Y738673D02*
X678650D01*
Y734672D01*
X679331Y734762D01*
X680433Y735218D01*
X681379Y735944D01*
X682104Y736890D01*
X682561Y737991D01*
X682650Y738673D01*
D02*
G37*
G36*
X777980Y724099D02*
Y720539D01*
X781540D01*
X781466Y721107D01*
X781053Y722102D01*
X780398Y722957D01*
X779543Y723612D01*
X778548Y724025D01*
X777980Y724099D01*
D02*
G37*
G36*
X776980D02*
X776412Y724025D01*
X775417Y723612D01*
X774563Y722957D01*
X773907Y722102D01*
X773495Y721107D01*
X773420Y720539D01*
X776980D01*
Y724099D01*
D02*
G37*
G36*
X787480Y734165D02*
X786412Y734025D01*
X785417Y733612D01*
X784563Y732957D01*
X783907Y732102D01*
X783495Y731107D01*
X783355Y730039D01*
X783495Y728971D01*
X783907Y727976D01*
X784563Y727122D01*
X785417Y726466D01*
X786412Y726054D01*
X787480Y725913D01*
X788548Y726054D01*
X789543Y726466D01*
X790398Y727122D01*
X791053Y727976D01*
X791466Y728971D01*
X791606Y730039D01*
X791466Y731107D01*
X791053Y732102D01*
X790398Y732957D01*
X789543Y733612D01*
X788548Y734025D01*
X787480Y734165D01*
D02*
G37*
G36*
X777480D02*
X776412Y734025D01*
X775417Y733612D01*
X774563Y732957D01*
X773907Y732102D01*
X773495Y731107D01*
X773354Y730039D01*
X773495Y728971D01*
X773907Y727976D01*
X774563Y727122D01*
X775417Y726466D01*
X776412Y726054D01*
X777480Y725913D01*
X778548Y726054D01*
X779543Y726466D01*
X780398Y727122D01*
X781053Y727976D01*
X781466Y728971D01*
X781606Y730039D01*
X781466Y731107D01*
X781053Y732102D01*
X780398Y732957D01*
X779543Y733612D01*
X778548Y734025D01*
X777480Y734165D01*
D02*
G37*
G36*
X624580Y739657D02*
X620579D01*
Y735657D01*
X621261Y735746D01*
X622362Y736203D01*
X623308Y736928D01*
X624034Y737874D01*
X624490Y738976D01*
X624580Y739657D01*
D02*
G37*
G36*
X619579D02*
X615578D01*
X615668Y738976D01*
X616124Y737874D01*
X616850Y736928D01*
X617795Y736203D01*
X618897Y735746D01*
X619579Y735657D01*
Y739657D01*
D02*
G37*
G36*
X762375D02*
X758374D01*
Y735657D01*
X759056Y735746D01*
X760157Y736203D01*
X761103Y736928D01*
X761829Y737874D01*
X762285Y738976D01*
X762375Y739657D01*
D02*
G37*
G36*
X757374D02*
X753373D01*
X753463Y738976D01*
X753919Y737874D01*
X754645Y736928D01*
X755591Y736203D01*
X756692Y735746D01*
X757374Y735657D01*
Y739657D01*
D02*
G37*
G36*
X526154D02*
X522154D01*
Y735657D01*
X522835Y735746D01*
X523937Y736203D01*
X524883Y736928D01*
X525608Y737874D01*
X526065Y738976D01*
X526154Y739657D01*
D02*
G37*
G36*
X462098D02*
X458098D01*
X458187Y738976D01*
X458644Y737874D01*
X459369Y736928D01*
X460315Y736203D01*
X461416Y735746D01*
X462098Y735657D01*
Y739657D01*
D02*
G37*
G36*
X738189Y744724D02*
X737007Y744568D01*
X735906Y744112D01*
X734960Y743387D01*
X734234Y742441D01*
X733778Y741339D01*
X733622Y740158D01*
X733778Y738976D01*
X734234Y737874D01*
X734960Y736928D01*
X735906Y736203D01*
X737007Y735746D01*
X738189Y735591D01*
X739371Y735746D01*
X740472Y736203D01*
X741418Y736928D01*
X742144Y737874D01*
X742600Y738976D01*
X742756Y740158D01*
X742600Y741339D01*
X742144Y742441D01*
X741418Y743387D01*
X740472Y744112D01*
X739371Y744568D01*
X738189Y744724D01*
D02*
G37*
G36*
X521153Y739657D02*
X517153D01*
X517242Y738976D01*
X517699Y737874D01*
X518424Y736928D01*
X519370Y736203D01*
X520472Y735746D01*
X521153Y735657D01*
Y739657D01*
D02*
G37*
G36*
X467099D02*
X463098D01*
Y735657D01*
X463780Y735746D01*
X464882Y736203D01*
X465828Y736928D01*
X466553Y737874D01*
X467009Y738976D01*
X467099Y739657D01*
D02*
G37*
G36*
X766339Y715402D02*
X764900Y715212D01*
X763559Y714657D01*
X762407Y713774D01*
X761524Y712622D01*
X760969Y711281D01*
X760779Y709842D01*
Y707480D01*
X760969Y706041D01*
X761524Y704701D01*
X762407Y703549D01*
X763559Y702666D01*
X764900Y702110D01*
X766339Y701921D01*
X767777Y702110D01*
X769118Y702666D01*
X770270Y703549D01*
X771153Y704701D01*
X771708Y706041D01*
X771898Y707480D01*
Y709842D01*
X771708Y711281D01*
X771153Y712622D01*
X770270Y713774D01*
X769118Y714657D01*
X767777Y715212D01*
X766339Y715402D01*
D02*
G37*
G36*
X729724D02*
X728286Y715212D01*
X726945Y714657D01*
X725793Y713774D01*
X724910Y712622D01*
X724355Y711281D01*
X724165Y709842D01*
Y707480D01*
X724355Y706041D01*
X724910Y704701D01*
X725793Y703549D01*
X726945Y702666D01*
X728286Y702110D01*
X729724Y701921D01*
X731163Y702110D01*
X732504Y702666D01*
X733656Y703549D01*
X734539Y704701D01*
X735094Y706041D01*
X735284Y707480D01*
Y709842D01*
X735094Y711281D01*
X734539Y712622D01*
X733656Y713774D01*
X732504Y714657D01*
X731163Y715212D01*
X729724Y715402D01*
D02*
G37*
G36*
X581102Y704815D02*
X579240D01*
Y703346D01*
X581102D01*
Y704815D01*
D02*
G37*
G36*
X578240D02*
X576378D01*
Y703346D01*
X578240D01*
Y704815D01*
D02*
G37*
G36*
X628543Y715402D02*
X627104Y715212D01*
X625764Y714657D01*
X624612Y713774D01*
X623729Y712622D01*
X623173Y711281D01*
X622984Y709842D01*
Y707480D01*
X623173Y706041D01*
X623729Y704701D01*
X624612Y703549D01*
X625764Y702666D01*
X627104Y702110D01*
X628543Y701921D01*
X629982Y702110D01*
X631323Y702666D01*
X632474Y703549D01*
X633358Y704701D01*
X633913Y706041D01*
X634103Y707480D01*
Y709842D01*
X633913Y711281D01*
X633358Y712622D01*
X632474Y713774D01*
X631323Y714657D01*
X629982Y715212D01*
X628543Y715402D01*
D02*
G37*
G36*
X493504D02*
X492065Y715212D01*
X490724Y714657D01*
X489573Y713774D01*
X488689Y712622D01*
X488134Y711281D01*
X487945Y709842D01*
Y707480D01*
X488134Y706041D01*
X488689Y704701D01*
X489573Y703549D01*
X490724Y702666D01*
X492065Y702110D01*
X493504Y701921D01*
X494943Y702110D01*
X496284Y702666D01*
X497435Y703549D01*
X498318Y704701D01*
X498874Y706041D01*
X499063Y707480D01*
Y709842D01*
X498874Y711281D01*
X498318Y712622D01*
X497435Y713774D01*
X496284Y714657D01*
X494943Y715212D01*
X493504Y715402D01*
D02*
G37*
G36*
X471063D02*
X469624Y715212D01*
X468283Y714657D01*
X467132Y713774D01*
X466248Y712622D01*
X465693Y711281D01*
X465504Y709842D01*
Y707480D01*
X465693Y706041D01*
X466248Y704701D01*
X467132Y703549D01*
X468283Y702666D01*
X469624Y702110D01*
X471063Y701921D01*
X472502Y702110D01*
X473843Y702666D01*
X474994Y703549D01*
X475878Y704701D01*
X476433Y706041D01*
X476622Y707480D01*
Y709842D01*
X476433Y711281D01*
X475878Y712622D01*
X474994Y713774D01*
X473843Y714657D01*
X472502Y715212D01*
X471063Y715402D01*
D02*
G37*
G36*
X591929D02*
X590490Y715212D01*
X589149Y714657D01*
X587998Y713774D01*
X587115Y712622D01*
X586559Y711281D01*
X586370Y709842D01*
Y707480D01*
X586559Y706041D01*
X587115Y704701D01*
X587998Y703549D01*
X589149Y702666D01*
X590490Y702110D01*
X591929Y701921D01*
X593368Y702110D01*
X594709Y702666D01*
X595860Y703549D01*
X596744Y704701D01*
X597299Y706041D01*
X597488Y707480D01*
Y709842D01*
X597299Y711281D01*
X596744Y712622D01*
X595860Y713774D01*
X594709Y714657D01*
X593368Y715212D01*
X591929Y715402D01*
D02*
G37*
G36*
X530118D02*
X528679Y715212D01*
X527338Y714657D01*
X526187Y713774D01*
X525304Y712622D01*
X524748Y711281D01*
X524559Y709842D01*
Y707480D01*
X524748Y706041D01*
X525304Y704701D01*
X526187Y703549D01*
X527338Y702666D01*
X528679Y702110D01*
X530118Y701921D01*
X531557Y702110D01*
X532898Y702666D01*
X534049Y703549D01*
X534933Y704701D01*
X535488Y706041D01*
X535677Y707480D01*
Y709842D01*
X535488Y711281D01*
X534933Y712622D01*
X534049Y713774D01*
X532898Y714657D01*
X531557Y715212D01*
X530118Y715402D01*
D02*
G37*
G36*
X787480Y724165D02*
X786412Y724025D01*
X785417Y723612D01*
X784563Y722957D01*
X783907Y722102D01*
X783495Y721107D01*
X783355Y720039D01*
X783495Y718971D01*
X783907Y717976D01*
X784563Y717122D01*
X785417Y716466D01*
X786412Y716054D01*
X787480Y715913D01*
X788548Y716054D01*
X789543Y716466D01*
X790398Y717122D01*
X791053Y717976D01*
X791466Y718971D01*
X791606Y720039D01*
X791466Y721107D01*
X791053Y722102D01*
X790398Y722957D01*
X789543Y723612D01*
X788548Y724025D01*
X787480Y724165D01*
D02*
G37*
G36*
Y714165D02*
X786412Y714025D01*
X785417Y713613D01*
X784563Y712957D01*
X783907Y712102D01*
X783495Y711107D01*
X783355Y710039D01*
X783495Y708972D01*
X783907Y707976D01*
X784563Y707122D01*
X785417Y706466D01*
X786412Y706054D01*
X787480Y705913D01*
X788548Y706054D01*
X789543Y706466D01*
X790398Y707122D01*
X791053Y707976D01*
X791466Y708972D01*
X791606Y710039D01*
X791466Y711107D01*
X791053Y712102D01*
X790398Y712957D01*
X789543Y713613D01*
X788548Y714025D01*
X787480Y714165D01*
D02*
G37*
G36*
X781540Y719539D02*
X777980D01*
Y715979D01*
X778548Y716054D01*
X779543Y716466D01*
X780398Y717122D01*
X781053Y717976D01*
X781466Y718971D01*
X781540Y719539D01*
D02*
G37*
G36*
X776980D02*
X773420D01*
X773495Y718971D01*
X773907Y717976D01*
X774563Y717122D01*
X775417Y716466D01*
X776412Y716054D01*
X776980Y715979D01*
Y719539D01*
D02*
G37*
G36*
X777480Y714165D02*
X776412Y714025D01*
X775417Y713613D01*
X774563Y712957D01*
X773907Y712102D01*
X773495Y711107D01*
X773354Y710039D01*
X773495Y708972D01*
X773907Y707976D01*
X774563Y707122D01*
X775417Y706466D01*
X776412Y706054D01*
X777480Y705913D01*
X778548Y706054D01*
X779543Y706466D01*
X780398Y707122D01*
X781053Y707976D01*
X781466Y708972D01*
X781606Y710039D01*
X781466Y711107D01*
X781053Y712102D01*
X780398Y712957D01*
X779543Y713613D01*
X778548Y714025D01*
X777480Y714165D01*
D02*
G37*
G36*
X573327Y706398D02*
X569004D01*
Y704437D01*
X573327D01*
Y706398D01*
D02*
G37*
G36*
X568004D02*
X563681D01*
Y704437D01*
X568004D01*
Y706398D01*
D02*
G37*
G36*
X581102Y707283D02*
X579240D01*
Y705815D01*
X581102D01*
Y707283D01*
D02*
G37*
G36*
X578240D02*
X576378D01*
Y705815D01*
X578240D01*
Y707283D01*
D02*
G37*
G36*
X581102Y741535D02*
X576378D01*
Y737598D01*
X577135D01*
Y736245D01*
X576915Y736077D01*
X576747Y735858D01*
X573327D01*
Y736713D01*
X563681D01*
Y731791D01*
X573327D01*
Y732646D01*
X576747D01*
X576915Y732427D01*
X577135Y732258D01*
Y730905D01*
X576378D01*
Y726968D01*
X581102D01*
Y730905D01*
X580346D01*
Y732258D01*
X580565Y732427D01*
X580975Y732961D01*
X581233Y733584D01*
X581321Y734252D01*
X581233Y734920D01*
X580975Y735542D01*
X580565Y736077D01*
X580346Y736245D01*
Y737598D01*
X581102D01*
Y741535D01*
D02*
G37*
G36*
X493504Y774457D02*
X492065Y774268D01*
X490724Y773712D01*
X489573Y772829D01*
X488689Y771677D01*
X488134Y770336D01*
X487945Y768898D01*
Y766535D01*
X488134Y765097D01*
X488689Y763756D01*
X489573Y762604D01*
X490724Y761721D01*
X492065Y761166D01*
X493504Y760976D01*
X494943Y761166D01*
X496284Y761721D01*
X497435Y762604D01*
X498318Y763756D01*
X498874Y765097D01*
X499063Y766535D01*
Y768898D01*
X498874Y770336D01*
X498318Y771677D01*
X497435Y772829D01*
X496284Y773712D01*
X494943Y774268D01*
X493504Y774457D01*
D02*
G37*
G36*
X471063D02*
X469624Y774268D01*
X468283Y773712D01*
X467132Y772829D01*
X466248Y771677D01*
X465693Y770336D01*
X465504Y768898D01*
Y766535D01*
X465693Y765097D01*
X466248Y763756D01*
X467132Y762604D01*
X468283Y761721D01*
X469624Y761166D01*
X471063Y760976D01*
X472502Y761166D01*
X473843Y761721D01*
X474994Y762604D01*
X475878Y763756D01*
X476433Y765097D01*
X476622Y766535D01*
Y768898D01*
X476433Y770336D01*
X475878Y771677D01*
X474994Y772829D01*
X473843Y773712D01*
X472502Y774268D01*
X471063Y774457D01*
D02*
G37*
G36*
X591929D02*
X590490Y774268D01*
X589149Y773712D01*
X587998Y772829D01*
X587115Y771677D01*
X586559Y770336D01*
X586370Y768898D01*
Y766535D01*
X586559Y765097D01*
X587115Y763756D01*
X587998Y762604D01*
X589149Y761721D01*
X590490Y761166D01*
X591929Y760976D01*
X593368Y761166D01*
X594709Y761721D01*
X595860Y762604D01*
X596744Y763756D01*
X597299Y765097D01*
X597488Y766535D01*
Y768898D01*
X597299Y770336D01*
X596744Y771677D01*
X595860Y772829D01*
X594709Y773712D01*
X593368Y774268D01*
X591929Y774457D01*
D02*
G37*
G36*
X530118D02*
X528679Y774268D01*
X527338Y773712D01*
X526187Y772829D01*
X525304Y771677D01*
X524748Y770336D01*
X524559Y768898D01*
Y766535D01*
X524748Y765097D01*
X525304Y763756D01*
X526187Y762604D01*
X527338Y761721D01*
X528679Y761166D01*
X530118Y760976D01*
X531557Y761166D01*
X532898Y761721D01*
X534049Y762604D01*
X534933Y763756D01*
X535488Y765097D01*
X535677Y766535D01*
Y768898D01*
X535488Y770336D01*
X534933Y771677D01*
X534049Y772829D01*
X532898Y773712D01*
X531557Y774268D01*
X530118Y774457D01*
D02*
G37*
G36*
X434449D02*
X433010Y774268D01*
X431669Y773712D01*
X430518Y772829D01*
X429634Y771677D01*
X429079Y770336D01*
X428890Y768898D01*
Y766535D01*
X429079Y765097D01*
X429634Y763756D01*
X430518Y762604D01*
X431669Y761721D01*
X433010Y761166D01*
X434449Y760976D01*
X435888Y761166D01*
X437228Y761721D01*
X438380Y762604D01*
X439263Y763756D01*
X439819Y765097D01*
X440008Y766535D01*
Y768898D01*
X439819Y770336D01*
X439263Y771677D01*
X438380Y772829D01*
X437228Y773712D01*
X435888Y774268D01*
X434449Y774457D01*
D02*
G37*
G36*
X575591Y793933D02*
X574511Y793791D01*
X573506Y793375D01*
X572642Y792712D01*
X571980Y791849D01*
X571563Y790843D01*
X571421Y789764D01*
Y785039D01*
X571563Y783960D01*
X571980Y782955D01*
X572642Y782091D01*
X573506Y781428D01*
X573985Y781230D01*
Y772515D01*
X569284Y767815D01*
X561713D01*
Y759744D01*
X573327D01*
Y767316D01*
X576726Y770715D01*
X577074Y771236D01*
X577094Y771338D01*
X577196Y771850D01*
X577196Y771850D01*
Y781230D01*
X577675Y781428D01*
X578539Y782091D01*
X579202Y782955D01*
X579618Y783960D01*
X579760Y785039D01*
Y789764D01*
X579618Y790843D01*
X579202Y791849D01*
X578539Y792712D01*
X577675Y793375D01*
X576670Y793791D01*
X575591Y793933D01*
D02*
G37*
G36*
X787480Y764165D02*
X786412Y764025D01*
X785417Y763613D01*
X784563Y762957D01*
X783907Y762102D01*
X783495Y761107D01*
X783355Y760039D01*
X783495Y758972D01*
X783907Y757976D01*
X784563Y757122D01*
X785417Y756466D01*
X786412Y756054D01*
X787480Y755913D01*
X788548Y756054D01*
X789543Y756466D01*
X790398Y757122D01*
X791053Y757976D01*
X791466Y758972D01*
X791606Y760039D01*
X791466Y761107D01*
X791053Y762102D01*
X790398Y762957D01*
X789543Y763613D01*
X788548Y764025D01*
X787480Y764165D01*
D02*
G37*
G36*
X677650Y764264D02*
X673649D01*
X673739Y763582D01*
X674195Y762480D01*
X674921Y761535D01*
X675866Y760809D01*
X676968Y760353D01*
X677650Y760263D01*
Y764264D01*
D02*
G37*
G36*
X682650D02*
X678650D01*
Y760263D01*
X679331Y760353D01*
X680433Y760809D01*
X681379Y761535D01*
X682104Y762480D01*
X682561Y763582D01*
X682650Y764264D01*
D02*
G37*
G36*
X555118Y793933D02*
X554039Y793791D01*
X553033Y793375D01*
X552170Y792712D01*
X551507Y791849D01*
X551091Y790843D01*
X550949Y789764D01*
Y785039D01*
X551091Y783960D01*
X551507Y782955D01*
X552170Y782091D01*
X553033Y781428D01*
X554039Y781012D01*
X555118Y780870D01*
X556197Y781012D01*
X557203Y781428D01*
X558066Y782091D01*
X558729Y782955D01*
X559146Y783960D01*
X559288Y785039D01*
Y789764D01*
X559146Y790843D01*
X558729Y791849D01*
X558066Y792712D01*
X557203Y793375D01*
X556197Y793791D01*
X555118Y793933D01*
D02*
G37*
G36*
X541732D02*
X540653Y793791D01*
X539647Y793375D01*
X538784Y792712D01*
X538121Y791849D01*
X537705Y790843D01*
X537563Y789764D01*
Y785039D01*
X537705Y783960D01*
X538121Y782955D01*
X538784Y782091D01*
X539647Y781428D01*
X540653Y781012D01*
X541732Y780870D01*
X542811Y781012D01*
X543817Y781428D01*
X544681Y782091D01*
X545343Y782955D01*
X545760Y783960D01*
X545902Y785039D01*
Y789764D01*
X545760Y790843D01*
X545343Y791849D01*
X544681Y792712D01*
X543817Y793375D01*
X542811Y793791D01*
X541732Y793933D01*
D02*
G37*
G36*
X675197Y792944D02*
X674272Y792822D01*
X673410Y792465D01*
X672670Y791897D01*
X672102Y791157D01*
X671745Y790295D01*
X671623Y789370D01*
Y785433D01*
X671745Y784508D01*
X672102Y783646D01*
X672670Y782906D01*
X673410Y782338D01*
X674272Y781981D01*
X675197Y781859D01*
X676122Y781981D01*
X676984Y782338D01*
X677724Y782906D01*
X678292Y783646D01*
X678649Y784508D01*
X678771Y785433D01*
Y789370D01*
X678649Y790295D01*
X678292Y791157D01*
X677724Y791897D01*
X676984Y792465D01*
X676122Y792822D01*
X675197Y792944D01*
D02*
G37*
G36*
X655512D02*
X654587Y792822D01*
X653725Y792465D01*
X652985Y791897D01*
X652417Y791157D01*
X652060Y790295D01*
X651938Y789370D01*
Y785433D01*
X652060Y784508D01*
X652417Y783646D01*
X652985Y782906D01*
X653725Y782338D01*
X654587Y781981D01*
X655512Y781859D01*
X656437Y781981D01*
X657299Y782338D01*
X658039Y782906D01*
X658607Y783646D01*
X658964Y784508D01*
X659086Y785433D01*
Y789370D01*
X658964Y790295D01*
X658607Y791157D01*
X658039Y791897D01*
X657299Y792465D01*
X656437Y792822D01*
X655512Y792944D01*
D02*
G37*
G36*
X678650Y769265D02*
Y765264D01*
X682650D01*
X682561Y765946D01*
X682104Y767047D01*
X681379Y767993D01*
X680433Y768719D01*
X679331Y769175D01*
X678650Y769265D01*
D02*
G37*
G36*
X729724Y774457D02*
X728286Y774268D01*
X726945Y773712D01*
X725793Y772829D01*
X724910Y771677D01*
X724355Y770336D01*
X724165Y768898D01*
Y766535D01*
X724355Y765097D01*
X724910Y763756D01*
X725793Y762604D01*
X726945Y761721D01*
X728286Y761166D01*
X729724Y760976D01*
X731163Y761166D01*
X732504Y761721D01*
X733656Y762604D01*
X734539Y763756D01*
X735094Y765097D01*
X735284Y766535D01*
Y768898D01*
X735094Y770336D01*
X734539Y771677D01*
X733656Y772829D01*
X732504Y773712D01*
X731163Y774268D01*
X729724Y774457D01*
D02*
G37*
G36*
X628543D02*
X627104Y774268D01*
X625764Y773712D01*
X624612Y772829D01*
X623729Y771677D01*
X623173Y770336D01*
X622984Y768898D01*
Y766535D01*
X623173Y765097D01*
X623729Y763756D01*
X624612Y762604D01*
X625764Y761721D01*
X627104Y761166D01*
X628543Y760976D01*
X629982Y761166D01*
X631323Y761721D01*
X632474Y762604D01*
X633358Y763756D01*
X633913Y765097D01*
X634103Y766535D01*
Y768898D01*
X633913Y770336D01*
X633358Y771677D01*
X632474Y772829D01*
X631323Y773712D01*
X629982Y774268D01*
X628543Y774457D01*
D02*
G37*
G36*
X677650Y769265D02*
X676968Y769175D01*
X675866Y768719D01*
X674921Y767993D01*
X674195Y767047D01*
X673739Y765946D01*
X673649Y765264D01*
X677650D01*
Y769265D01*
D02*
G37*
G36*
X766339Y774457D02*
X764900Y774268D01*
X763559Y773712D01*
X762407Y772829D01*
X761524Y771677D01*
X760969Y770336D01*
X760779Y768898D01*
Y766535D01*
X760969Y765097D01*
X761524Y763756D01*
X762407Y762604D01*
X763559Y761721D01*
X764900Y761166D01*
X766339Y760976D01*
X767777Y761166D01*
X769118Y761721D01*
X770270Y762604D01*
X771153Y763756D01*
X771708Y765097D01*
X771898Y766535D01*
Y768898D01*
X771708Y770336D01*
X771153Y771677D01*
X770270Y772829D01*
X769118Y773712D01*
X767777Y774268D01*
X766339Y774457D01*
D02*
G37*
G36*
X521153Y744658D02*
X520472Y744568D01*
X519370Y744112D01*
X518424Y743387D01*
X517699Y742441D01*
X517242Y741339D01*
X517153Y740658D01*
X521153D01*
Y744658D01*
D02*
G37*
G36*
X463098D02*
Y740658D01*
X467099D01*
X467009Y741339D01*
X466553Y742441D01*
X465828Y743387D01*
X464882Y744112D01*
X463780Y744568D01*
X463098Y744658D01*
D02*
G37*
G36*
X619579D02*
X618897Y744568D01*
X617795Y744112D01*
X616850Y743387D01*
X616124Y742441D01*
X615668Y741339D01*
X615578Y740658D01*
X619579D01*
Y744658D01*
D02*
G37*
G36*
X522154D02*
Y740658D01*
X526154D01*
X526065Y741339D01*
X525608Y742441D01*
X524883Y743387D01*
X523937Y744112D01*
X522835Y744568D01*
X522154Y744658D01*
D02*
G37*
G36*
X462098D02*
X461416Y744568D01*
X460315Y744112D01*
X459369Y743387D01*
X458644Y742441D01*
X458187Y741339D01*
X458098Y740658D01*
X462098D01*
Y744658D01*
D02*
G37*
G36*
X787480Y744165D02*
X786412Y744025D01*
X785417Y743612D01*
X784563Y742957D01*
X783907Y742102D01*
X783495Y741107D01*
X783355Y740039D01*
X783495Y738972D01*
X783907Y737976D01*
X784563Y737122D01*
X785417Y736466D01*
X786412Y736054D01*
X787480Y735914D01*
X788548Y736054D01*
X789543Y736466D01*
X790398Y737122D01*
X791053Y737976D01*
X791466Y738972D01*
X791606Y740039D01*
X791466Y741107D01*
X791053Y742102D01*
X790398Y742957D01*
X789543Y743612D01*
X788548Y744025D01*
X787480Y744165D01*
D02*
G37*
G36*
X777480D02*
X776412Y744025D01*
X775417Y743612D01*
X774563Y742957D01*
X773907Y742102D01*
X773495Y741107D01*
X773354Y740039D01*
X773495Y738972D01*
X773907Y737976D01*
X774563Y737122D01*
X775417Y736466D01*
X776412Y736054D01*
X777480Y735914D01*
X778548Y736054D01*
X779543Y736466D01*
X780398Y737122D01*
X781053Y737976D01*
X781466Y738972D01*
X781606Y740039D01*
X781466Y741107D01*
X781053Y742102D01*
X780398Y742957D01*
X779543Y743612D01*
X778548Y744025D01*
X777480Y744165D01*
D02*
G37*
G36*
X678650Y743674D02*
Y739673D01*
X682650D01*
X682561Y740355D01*
X682104Y741457D01*
X681379Y742402D01*
X680433Y743128D01*
X679331Y743584D01*
X678650Y743674D01*
D02*
G37*
G36*
X677650Y743674D02*
X676968Y743584D01*
X675866Y743128D01*
X674921Y742402D01*
X674195Y741457D01*
X673739Y740355D01*
X673649Y739673D01*
X677650D01*
Y743674D01*
D02*
G37*
G36*
X690945Y761535D02*
X689763Y761379D01*
X688662Y760923D01*
X687716Y760198D01*
X686990Y759252D01*
X686534Y758150D01*
X686378Y756968D01*
X686534Y755787D01*
X686990Y754685D01*
X687716Y753739D01*
X688662Y753014D01*
X689763Y752558D01*
X690945Y752402D01*
X692127Y752558D01*
X693228Y753014D01*
X694174Y753739D01*
X694900Y754685D01*
X695356Y755787D01*
X695393Y756065D01*
X699350D01*
X700394Y755022D01*
Y752559D01*
X705118D01*
Y756496D01*
X701474D01*
X700363Y757607D01*
X700070Y757803D01*
X699724Y757872D01*
X695393D01*
X695356Y758150D01*
X694900Y759252D01*
X694174Y760198D01*
X693228Y760923D01*
X692127Y761379D01*
X690945Y761535D01*
D02*
G37*
G36*
X787480Y754165D02*
X786412Y754025D01*
X785417Y753613D01*
X784563Y752957D01*
X783907Y752102D01*
X783495Y751107D01*
X783355Y750039D01*
X783495Y748972D01*
X783907Y747976D01*
X784563Y747122D01*
X785417Y746466D01*
X786412Y746054D01*
X787480Y745914D01*
X788548Y746054D01*
X789543Y746466D01*
X790398Y747122D01*
X791053Y747976D01*
X791466Y748972D01*
X791606Y750039D01*
X791466Y751107D01*
X791053Y752102D01*
X790398Y752957D01*
X789543Y753613D01*
X788548Y754025D01*
X787480Y754165D01*
D02*
G37*
G36*
X777480Y764165D02*
X776412Y764025D01*
X775417Y763613D01*
X774563Y762957D01*
X773907Y762102D01*
X773495Y761107D01*
X773354Y760039D01*
X773495Y758972D01*
X773907Y757976D01*
X774563Y757122D01*
X775417Y756466D01*
X776412Y756054D01*
X777480Y755913D01*
X778548Y756054D01*
X779543Y756466D01*
X780398Y757122D01*
X781053Y757976D01*
X781466Y758972D01*
X781606Y760039D01*
X781466Y761107D01*
X781053Y762102D01*
X780398Y762957D01*
X779543Y763613D01*
X778548Y764025D01*
X777480Y764165D01*
D02*
G37*
G36*
X556398Y767815D02*
X544783D01*
Y759744D01*
X549157D01*
X549455Y759298D01*
X555700Y753053D01*
X555454Y752592D01*
X555243Y752634D01*
X555178Y752621D01*
X555117Y752646D01*
X539462Y752608D01*
X539370Y752646D01*
X539370D01*
X539369Y752646D01*
X539369Y752646D01*
X539309Y752621D01*
X539245Y752634D01*
X538477Y752481D01*
X538372Y752411D01*
X538247Y752386D01*
X537596Y751951D01*
X537525Y751845D01*
X537419Y751774D01*
X536984Y751123D01*
X536960Y750998D01*
X536889Y750893D01*
X536736Y750125D01*
X536749Y750061D01*
X536724Y750000D01*
Y750000D01*
X536724Y750000D01*
X536724Y750000D01*
X536762Y679325D01*
X536732Y679278D01*
X536732Y679278D01*
X536745Y679223D01*
X536724Y679172D01*
X536749Y679112D01*
X536736Y679048D01*
X536889Y678280D01*
X536960Y678174D01*
X536984Y678049D01*
X537419Y677398D01*
X537525Y677327D01*
X537596Y677222D01*
X538247Y676787D01*
X538372Y676762D01*
X538477Y676691D01*
X539245Y676538D01*
X539310Y676551D01*
X539372Y676526D01*
X554951Y676564D01*
X554986Y676540D01*
X554987Y676540D01*
X555054Y676552D01*
X555118Y676526D01*
X555178Y676551D01*
X555243Y676538D01*
X556011Y676691D01*
X556117Y676762D01*
X556241Y676787D01*
X556892Y677222D01*
X556963Y677327D01*
X557069Y677398D01*
X557504Y678049D01*
X557529Y678174D01*
X557599Y678279D01*
X557752Y679047D01*
X557739Y679112D01*
X557764Y679173D01*
X557759Y689263D01*
X558259Y689470D01*
X563038Y684691D01*
X563559Y684343D01*
X563661Y684323D01*
X563681Y684319D01*
Y683366D01*
X573327D01*
Y683538D01*
X573827Y683745D01*
X574258Y683314D01*
X574258Y683314D01*
X574606Y683081D01*
X574779Y682965D01*
X575394Y682843D01*
X575394Y682843D01*
X576378D01*
Y682480D01*
X581102D01*
Y686417D01*
X576378D01*
Y686417D01*
X575878Y686235D01*
X575151Y686962D01*
X574630Y687310D01*
X574528Y687330D01*
X574016Y687432D01*
X574016Y687432D01*
X573327D01*
Y688287D01*
X563983D01*
X560661Y691610D01*
Y725785D01*
X561123Y725977D01*
X563038Y724061D01*
X563038Y724061D01*
X563559Y723713D01*
X563681Y723689D01*
Y722736D01*
X573327D01*
Y722908D01*
X573827Y723115D01*
X574258Y722684D01*
X574258Y722683D01*
X574606Y722451D01*
X574779Y722335D01*
X575394Y722213D01*
X575394Y722213D01*
X576378D01*
Y721850D01*
X581102D01*
Y725787D01*
X576378D01*
Y725787D01*
X575878Y725605D01*
X575151Y726332D01*
X574630Y726680D01*
X574528Y726701D01*
X574016Y726802D01*
X574016Y726802D01*
X573327D01*
Y727658D01*
X563983D01*
X560661Y730980D01*
Y751968D01*
X560661Y751968D01*
X560559Y752481D01*
X560539Y752583D01*
X560190Y753104D01*
X554012Y759282D01*
X554204Y759744D01*
X556398D01*
Y767815D01*
D02*
G37*
G36*
X777480Y754165D02*
X776412Y754025D01*
X775417Y753613D01*
X774563Y752957D01*
X773907Y752102D01*
X773495Y751107D01*
X773354Y750039D01*
X773495Y748972D01*
X773907Y747976D01*
X774563Y747122D01*
X775417Y746466D01*
X776412Y746054D01*
X777480Y745914D01*
X778548Y746054D01*
X779543Y746466D01*
X780398Y747122D01*
X781053Y747976D01*
X781466Y748972D01*
X781606Y750039D01*
X781466Y751107D01*
X781053Y752102D01*
X780398Y752957D01*
X779543Y753613D01*
X778548Y754025D01*
X777480Y754165D01*
D02*
G37*
G36*
X757374Y744658D02*
X756692Y744568D01*
X755591Y744112D01*
X754645Y743387D01*
X753919Y742441D01*
X753463Y741339D01*
X753373Y740658D01*
X757374D01*
Y744658D01*
D02*
G37*
G36*
X620579D02*
Y740658D01*
X624580D01*
X624490Y741339D01*
X624034Y742441D01*
X623308Y743387D01*
X622362Y744112D01*
X621261Y744568D01*
X620579Y744658D01*
D02*
G37*
G36*
X690945Y751535D02*
X689763Y751379D01*
X688662Y750923D01*
X687716Y750198D01*
X686990Y749252D01*
X686534Y748150D01*
X686378Y746969D01*
X686534Y745787D01*
X686990Y744685D01*
X687716Y743739D01*
X688662Y743014D01*
X689763Y742557D01*
X690945Y742402D01*
X692127Y742557D01*
X693228Y743014D01*
X694174Y743739D01*
X694900Y744685D01*
X695356Y745787D01*
X695511Y746969D01*
X695356Y748150D01*
X694900Y749252D01*
X694174Y750198D01*
X693228Y750923D01*
X692127Y751379D01*
X690945Y751535D01*
D02*
G37*
G36*
X758374Y744658D02*
Y740658D01*
X762375D01*
X762285Y741339D01*
X761829Y742441D01*
X761103Y743387D01*
X760157Y744112D01*
X759056Y744568D01*
X758374Y744658D01*
D02*
G37*
G36*
X434449Y715402D02*
X433010Y715212D01*
X431669Y714657D01*
X430518Y713774D01*
X429634Y712622D01*
X429079Y711281D01*
X428890Y709842D01*
Y707480D01*
X429079Y706041D01*
X429634Y704701D01*
X430518Y703549D01*
X431669Y702666D01*
X433010Y702110D01*
X434449Y701921D01*
X435888Y702110D01*
X437228Y702666D01*
X438380Y703549D01*
X439263Y704701D01*
X439819Y706041D01*
X440008Y707480D01*
Y709842D01*
X439819Y711281D01*
X439263Y712622D01*
X438380Y713774D01*
X437228Y714657D01*
X435888Y715212D01*
X434449Y715402D01*
D02*
G37*
G36*
X694382Y674606D02*
X692520D01*
Y673138D01*
X694382D01*
Y674606D01*
D02*
G37*
G36*
X642323Y673622D02*
X640854D01*
Y671760D01*
X642323D01*
Y673622D01*
D02*
G37*
G36*
X697244Y674606D02*
X695382D01*
Y673138D01*
X697244D01*
Y674606D01*
D02*
G37*
G36*
X787480Y684165D02*
X786412Y684025D01*
X785417Y683612D01*
X784563Y682957D01*
X783907Y682102D01*
X783495Y681107D01*
X783355Y680039D01*
X783495Y678971D01*
X783907Y677976D01*
X784563Y677122D01*
X785417Y676466D01*
X786412Y676054D01*
X787480Y675913D01*
X788548Y676054D01*
X789543Y676466D01*
X790398Y677122D01*
X791053Y677976D01*
X791466Y678971D01*
X791606Y680039D01*
X791466Y681107D01*
X791053Y682102D01*
X790398Y682957D01*
X789543Y683612D01*
X788548Y684025D01*
X787480Y684165D01*
D02*
G37*
G36*
X777480D02*
X776412Y684025D01*
X775417Y683612D01*
X774563Y682957D01*
X773907Y682102D01*
X773495Y681107D01*
X773354Y680039D01*
X773495Y678971D01*
X773907Y677976D01*
X774563Y677122D01*
X775417Y676466D01*
X776412Y676054D01*
X777480Y675913D01*
X778548Y676054D01*
X779543Y676466D01*
X780398Y677122D01*
X781053Y677976D01*
X781466Y678971D01*
X781606Y680039D01*
X781466Y681107D01*
X781053Y682102D01*
X780398Y682957D01*
X779543Y683612D01*
X778548Y684025D01*
X777480Y684165D01*
D02*
G37*
G36*
X665748Y671850D02*
X663886D01*
Y670382D01*
X665748D01*
Y671850D01*
D02*
G37*
G36*
X662886D02*
X661024D01*
Y670382D01*
X662886D01*
Y671850D01*
D02*
G37*
G36*
X694382Y672138D02*
X692520D01*
Y670669D01*
X694382D01*
Y672138D01*
D02*
G37*
G36*
X639854Y673622D02*
X638386D01*
Y671760D01*
X639854D01*
Y673622D01*
D02*
G37*
G36*
X697244Y672138D02*
X695382D01*
Y670669D01*
X697244D01*
Y672138D01*
D02*
G37*
G36*
X442913Y685669D02*
X441732Y685513D01*
X440630Y685057D01*
X439684Y684332D01*
X438959Y683386D01*
X438502Y682284D01*
X438347Y681102D01*
X438502Y679920D01*
X438959Y678819D01*
X439684Y677873D01*
X440630Y677147D01*
X441732Y676691D01*
X442913Y676536D01*
X444095Y676691D01*
X445197Y677147D01*
X446142Y677873D01*
X446868Y678819D01*
X447324Y679920D01*
X447480Y681102D01*
X447324Y682284D01*
X446868Y683386D01*
X446142Y684332D01*
X445197Y685057D01*
X444095Y685513D01*
X442913Y685669D01*
D02*
G37*
G36*
X526154Y680602D02*
X522154D01*
Y676602D01*
X522835Y676691D01*
X523937Y677147D01*
X524883Y677873D01*
X525608Y678819D01*
X526065Y679920D01*
X526154Y680602D01*
D02*
G37*
G36*
X521153D02*
X517153D01*
X517242Y679920D01*
X517699Y678819D01*
X518424Y677873D01*
X519370Y677147D01*
X520472Y676691D01*
X521153Y676602D01*
Y680602D01*
D02*
G37*
G36*
X619579D02*
X615578D01*
X615668Y679920D01*
X616124Y678819D01*
X616850Y677873D01*
X617795Y677147D01*
X618897Y676691D01*
X619579Y676602D01*
Y680602D01*
D02*
G37*
G36*
X757374D02*
X753373D01*
X753463Y679920D01*
X753919Y678819D01*
X754645Y677873D01*
X755591Y677147D01*
X756692Y676691D01*
X757374Y676602D01*
Y680602D01*
D02*
G37*
G36*
X624580D02*
X620579D01*
Y676602D01*
X621261Y676691D01*
X622362Y677147D01*
X623308Y677873D01*
X624034Y678819D01*
X624490Y679920D01*
X624580Y680602D01*
D02*
G37*
G36*
X600394Y685669D02*
X599212Y685513D01*
X598110Y685057D01*
X597165Y684332D01*
X596439Y683386D01*
X595983Y682284D01*
X595827Y681102D01*
X595983Y679920D01*
X596439Y678819D01*
X597165Y677873D01*
X598110Y677147D01*
X599212Y676691D01*
X600394Y676536D01*
X601576Y676691D01*
X602677Y677147D01*
X603623Y677873D01*
X604349Y678819D01*
X604805Y679920D01*
X604960Y681102D01*
X604805Y682284D01*
X604349Y683386D01*
X603623Y684332D01*
X602677Y685057D01*
X601576Y685513D01*
X600394Y685669D01*
D02*
G37*
G36*
X501968D02*
X500787Y685513D01*
X499685Y685057D01*
X498739Y684332D01*
X498014Y683386D01*
X497557Y682284D01*
X497402Y681102D01*
X497557Y679920D01*
X498014Y678819D01*
X498739Y677873D01*
X499685Y677147D01*
X500787Y676691D01*
X501968Y676536D01*
X503150Y676691D01*
X504252Y677147D01*
X505198Y677873D01*
X505923Y678819D01*
X506380Y679920D01*
X506535Y681102D01*
X506380Y682284D01*
X505923Y683386D01*
X505198Y684332D01*
X504252Y685057D01*
X503150Y685513D01*
X501968Y685669D01*
D02*
G37*
G36*
X738189D02*
X737007Y685513D01*
X735906Y685057D01*
X734960Y684332D01*
X734234Y683386D01*
X733778Y682284D01*
X733622Y681102D01*
X733778Y679920D01*
X734234Y678819D01*
X734960Y677873D01*
X735906Y677147D01*
X737007Y676691D01*
X738189Y676536D01*
X739371Y676691D01*
X740472Y677147D01*
X741418Y677873D01*
X742144Y678819D01*
X742600Y679920D01*
X742756Y681102D01*
X742600Y682284D01*
X742144Y683386D01*
X741418Y684332D01*
X740472Y685057D01*
X739371Y685513D01*
X738189Y685669D01*
D02*
G37*
G36*
X467099Y680602D02*
X463098D01*
Y676602D01*
X463780Y676691D01*
X464882Y677147D01*
X465828Y677873D01*
X466553Y678819D01*
X467009Y679920D01*
X467099Y680602D01*
D02*
G37*
G36*
X462098D02*
X458098D01*
X458187Y679920D01*
X458644Y678819D01*
X459369Y677873D01*
X460315Y677147D01*
X461416Y676691D01*
X462098Y676602D01*
Y680602D01*
D02*
G37*
G36*
X777480Y664165D02*
X776412Y664025D01*
X775417Y663613D01*
X774563Y662957D01*
X773907Y662102D01*
X773495Y661107D01*
X773354Y660039D01*
X773495Y658972D01*
X773907Y657976D01*
X774563Y657122D01*
X775417Y656466D01*
X776412Y656054D01*
X777480Y655913D01*
X778548Y656054D01*
X779543Y656466D01*
X780398Y657122D01*
X781053Y657976D01*
X781466Y658972D01*
X781606Y660039D01*
X781466Y661107D01*
X781053Y662102D01*
X780398Y662957D01*
X779543Y663613D01*
X778548Y664025D01*
X777480Y664165D01*
D02*
G37*
G36*
X542823Y655091D02*
Y651091D01*
X546824D01*
X546734Y651772D01*
X546278Y652874D01*
X545552Y653820D01*
X544606Y654545D01*
X543505Y655002D01*
X542823Y655091D01*
D02*
G37*
G36*
X787480Y664165D02*
X786412Y664025D01*
X785417Y663613D01*
X784563Y662957D01*
X783907Y662102D01*
X783495Y661107D01*
X783355Y660039D01*
X783495Y658972D01*
X783907Y657976D01*
X784563Y657122D01*
X785417Y656466D01*
X786412Y656054D01*
X787480Y655913D01*
X788548Y656054D01*
X789543Y656466D01*
X790398Y657122D01*
X791053Y657976D01*
X791466Y658972D01*
X791606Y660039D01*
X791466Y661107D01*
X791053Y662102D01*
X790398Y662957D01*
X789543Y663613D01*
X788548Y664025D01*
X787480Y664165D01*
D02*
G37*
G36*
X637205Y662886D02*
X635736D01*
Y661024D01*
X637205D01*
Y662886D01*
D02*
G37*
G36*
X683366Y668110D02*
X679902D01*
Y662284D01*
X680731D01*
Y661619D01*
X680361Y661372D01*
X680013Y660851D01*
X679890Y660236D01*
X680013Y659622D01*
X680361Y659101D01*
X680882Y658753D01*
X681496Y658631D01*
X682111Y658753D01*
X682631Y659101D01*
X682979Y659622D01*
X683102Y660236D01*
X682979Y660851D01*
X682631Y661372D01*
X682537Y661435D01*
Y662284D01*
X683366D01*
Y668110D01*
D02*
G37*
G36*
X606693Y648228D02*
X604831D01*
Y646760D01*
X606693D01*
Y648228D01*
D02*
G37*
G36*
X603831D02*
X601968D01*
Y646760D01*
X603831D01*
Y648228D01*
D02*
G37*
G36*
X427650Y655091D02*
X426968Y655002D01*
X425866Y654545D01*
X424921Y653820D01*
X424195Y652874D01*
X423739Y651772D01*
X423649Y651091D01*
X427650D01*
Y655091D01*
D02*
G37*
G36*
X541823Y655091D02*
X541141Y655002D01*
X540039Y654545D01*
X539094Y653820D01*
X538368Y652874D01*
X537912Y651772D01*
X537822Y651091D01*
X541823D01*
Y655091D01*
D02*
G37*
G36*
X428650Y655091D02*
Y651091D01*
X432650D01*
X432561Y651772D01*
X432104Y652874D01*
X431379Y653820D01*
X430433Y654545D01*
X429331Y655002D01*
X428650Y655091D01*
D02*
G37*
G36*
X686134Y664697D02*
X684902D01*
Y662284D01*
X686134D01*
Y664697D01*
D02*
G37*
G36*
X662886Y669382D02*
X661024D01*
Y667913D01*
X662886D01*
Y669382D01*
D02*
G37*
G36*
X787480Y674165D02*
X786412Y674025D01*
X785417Y673612D01*
X784563Y672957D01*
X783907Y672102D01*
X783495Y671107D01*
X783355Y670039D01*
X783495Y668971D01*
X783907Y667976D01*
X784563Y667122D01*
X785417Y666466D01*
X786412Y666054D01*
X787480Y665913D01*
X788548Y666054D01*
X789543Y666466D01*
X790398Y667122D01*
X791053Y667976D01*
X791466Y668971D01*
X791606Y670039D01*
X791466Y671107D01*
X791053Y672102D01*
X790398Y672957D01*
X789543Y673612D01*
X788548Y674025D01*
X787480Y674165D01*
D02*
G37*
G36*
X665748Y669382D02*
X663886D01*
Y667913D01*
X665748D01*
Y669382D01*
D02*
G37*
G36*
X642323Y670760D02*
X640854D01*
Y668898D01*
X642323D01*
Y670760D01*
D02*
G37*
G36*
X639854D02*
X638386D01*
Y668898D01*
X639854D01*
Y670760D01*
D02*
G37*
G36*
X637205Y665748D02*
X635736D01*
Y663886D01*
X637205D01*
Y665748D01*
D02*
G37*
G36*
X688366Y664697D02*
X687134D01*
Y662284D01*
X688366D01*
Y664697D01*
D02*
G37*
G36*
X686134Y668110D02*
X684902D01*
Y665697D01*
X686134D01*
Y668110D01*
D02*
G37*
G36*
X777480Y674165D02*
X776412Y674025D01*
X775417Y673612D01*
X774563Y672957D01*
X773907Y672102D01*
X773495Y671107D01*
X773354Y670039D01*
X773495Y668971D01*
X773907Y667976D01*
X774563Y667122D01*
X775417Y666466D01*
X776412Y666054D01*
X777480Y665913D01*
X778548Y666054D01*
X779543Y666466D01*
X780398Y667122D01*
X781053Y667976D01*
X781466Y668971D01*
X781606Y670039D01*
X781466Y671107D01*
X781053Y672102D01*
X780398Y672957D01*
X779543Y673612D01*
X778548Y674025D01*
X777480Y674165D01*
D02*
G37*
G36*
X688366Y668110D02*
X687134D01*
Y665697D01*
X688366D01*
Y668110D01*
D02*
G37*
G36*
X662886Y687598D02*
X661024D01*
Y686130D01*
X662886D01*
Y687598D01*
D02*
G37*
G36*
X665748D02*
X663886D01*
Y686130D01*
X665748D01*
Y687598D01*
D02*
G37*
G36*
X688366Y688110D02*
X684902D01*
Y686100D01*
X683366D01*
Y688110D01*
X679902D01*
Y686100D01*
X678366D01*
Y688110D01*
X674902D01*
Y686100D01*
X673366D01*
Y688110D01*
X669902D01*
Y682283D01*
X673366D01*
Y684294D01*
X674902D01*
Y682283D01*
X678366D01*
Y684294D01*
X679902D01*
Y682283D01*
X683366D01*
Y684294D01*
X684902D01*
Y682283D01*
X688366D01*
Y684294D01*
X689232D01*
X690969Y682557D01*
X690914Y682283D01*
X691036Y681669D01*
X691384Y681148D01*
X691905Y680800D01*
X692520Y680678D01*
X692794Y680732D01*
X693339Y680186D01*
X693148Y679724D01*
X692520D01*
Y675787D01*
X697244D01*
Y679724D01*
X696209D01*
X695785Y679921D01*
X695728Y680209D01*
X695716Y680267D01*
X695520Y680560D01*
X694071Y682010D01*
X694125Y682283D01*
X694003Y682898D01*
X693655Y683419D01*
X693134Y683767D01*
X692520Y683889D01*
X692246Y683835D01*
X690245Y685836D01*
X689952Y686031D01*
X689606Y686100D01*
X688366D01*
Y688110D01*
D02*
G37*
G36*
X777480Y694165D02*
X776412Y694025D01*
X775417Y693612D01*
X774563Y692957D01*
X773907Y692102D01*
X773495Y691107D01*
X773354Y690039D01*
X773495Y688972D01*
X773907Y687976D01*
X774563Y687122D01*
X775417Y686466D01*
X776412Y686054D01*
X777480Y685914D01*
X778548Y686054D01*
X779543Y686466D01*
X780398Y687122D01*
X781053Y687976D01*
X781466Y688972D01*
X781606Y690039D01*
X781466Y691107D01*
X781053Y692102D01*
X780398Y692957D01*
X779543Y693612D01*
X778548Y694025D01*
X777480Y694165D01*
D02*
G37*
G36*
X787480D02*
X786412Y694025D01*
X785417Y693612D01*
X784563Y692957D01*
X783907Y692102D01*
X783495Y691107D01*
X783355Y690039D01*
X783495Y688972D01*
X783907Y687976D01*
X784563Y687122D01*
X785417Y686466D01*
X786412Y686054D01*
X787480Y685914D01*
X788548Y686054D01*
X789543Y686466D01*
X790398Y687122D01*
X791053Y687976D01*
X791466Y688972D01*
X791606Y690039D01*
X791466Y691107D01*
X791053Y692102D01*
X790398Y692957D01*
X789543Y693612D01*
X788548Y694025D01*
X787480Y694165D01*
D02*
G37*
G36*
X660433Y769330D02*
X659251Y769175D01*
X658150Y768719D01*
X657204Y767993D01*
X656478Y767047D01*
X656022Y765946D01*
X655866Y764764D01*
X656022Y763582D01*
X656478Y762480D01*
X657204Y761535D01*
X658150Y760809D01*
X659251Y760353D01*
X659530Y760316D01*
Y743621D01*
X659251Y743584D01*
X658150Y743128D01*
X657204Y742402D01*
X656478Y741457D01*
X656022Y740355D01*
X655866Y739173D01*
X656022Y737991D01*
X656478Y736890D01*
X657204Y735944D01*
X658150Y735218D01*
X659251Y734762D01*
X659530Y734726D01*
Y708051D01*
X645853Y694375D01*
X645391Y694566D01*
Y705905D01*
X645323Y706251D01*
X645127Y706544D01*
X614020Y737651D01*
X614191Y737874D01*
X614647Y738976D01*
X614803Y740158D01*
X614647Y741339D01*
X614191Y742441D01*
X613465Y743387D01*
X612520Y744112D01*
X611418Y744568D01*
X610236Y744724D01*
X609054Y744568D01*
X607953Y744112D01*
X607007Y743387D01*
X606281Y742441D01*
X605825Y741339D01*
X605670Y740158D01*
X605825Y738976D01*
X606281Y737874D01*
X607007Y736928D01*
X607953Y736203D01*
X609054Y735746D01*
X610236Y735591D01*
X611418Y735746D01*
X612520Y736203D01*
X612743Y736374D01*
X643585Y705531D01*
Y662972D01*
X642785Y662172D01*
X642323Y662364D01*
Y665748D01*
X638386D01*
Y661024D01*
X638567D01*
X638774Y660524D01*
X638141Y659891D01*
X637945Y659598D01*
X637876Y659252D01*
Y657874D01*
X637311D01*
Y654331D01*
Y650787D01*
X637876D01*
Y649978D01*
X637841Y649954D01*
X637493Y649433D01*
X637371Y648819D01*
X637493Y648204D01*
X637841Y647683D01*
X638362Y647335D01*
X638976Y647213D01*
X639591Y647335D01*
X640112Y647683D01*
X640460Y648204D01*
X640582Y648819D01*
X640460Y649433D01*
X640112Y649954D01*
X639683Y650241D01*
Y650787D01*
X651165D01*
X651372Y650287D01*
X640109Y639024D01*
X639914Y638731D01*
X639845Y638386D01*
Y612992D01*
X635746D01*
Y613539D01*
X636175Y613825D01*
X636523Y614346D01*
X636645Y614961D01*
X636523Y615575D01*
X636175Y616096D01*
X635654Y616444D01*
X635039Y616566D01*
X634425Y616444D01*
X633904Y616096D01*
X633556Y615575D01*
X633434Y614961D01*
X633556Y614346D01*
X633904Y613825D01*
X633939Y613802D01*
Y612992D01*
X633374D01*
Y609449D01*
Y605905D01*
X633939D01*
Y602756D01*
X632480D01*
Y598032D01*
X635908D01*
Y556476D01*
X617690Y538259D01*
X617308Y538582D01*
X618094Y540052D01*
X618578Y541648D01*
X618742Y543307D01*
X618578Y544966D01*
X618094Y546562D01*
X617308Y548033D01*
X616251Y549321D01*
X614962Y550379D01*
X613491Y551165D01*
X611896Y551649D01*
X610236Y551813D01*
X608577Y551649D01*
X606981Y551165D01*
X605511Y550379D01*
X604222Y549321D01*
X603164Y548033D01*
X602378Y546562D01*
X601894Y544966D01*
X601731Y543307D01*
X601894Y541648D01*
X602378Y540052D01*
X603164Y538582D01*
X604222Y537293D01*
X605511Y536235D01*
X606981Y535449D01*
X608577Y534965D01*
X610236Y534802D01*
X611896Y534965D01*
X613491Y535449D01*
X614962Y536235D01*
X615285Y535853D01*
X605527Y526095D01*
X604947Y526222D01*
X604167Y527238D01*
X603016Y528122D01*
X601675Y528677D01*
X600236Y528866D01*
X598797Y528677D01*
X597457Y528122D01*
X596305Y527238D01*
X595422Y526087D01*
X594866Y524746D01*
X594677Y523307D01*
X594866Y521868D01*
X595422Y520527D01*
X596305Y519376D01*
X597457Y518493D01*
X598797Y517937D01*
X600236Y517748D01*
X601675Y517937D01*
X603016Y518493D01*
X604167Y519376D01*
X605051Y520527D01*
X605606Y521868D01*
X605796Y523307D01*
X605737Y523751D01*
X625832Y543846D01*
X626305Y543612D01*
X626265Y543307D01*
X626401Y542279D01*
X626797Y541322D01*
X627428Y540499D01*
X628251Y539868D01*
X629209Y539471D01*
X630236Y539336D01*
X631264Y539471D01*
X632222Y539868D01*
X633044Y540499D01*
X633675Y541322D01*
X634072Y542279D01*
X634207Y543307D01*
X634072Y544335D01*
X633675Y545293D01*
X633044Y546115D01*
X632222Y546746D01*
X631264Y547143D01*
X630236Y547278D01*
X629931Y547238D01*
X629697Y547711D01*
X637450Y555464D01*
X637450Y555464D01*
X637645Y555757D01*
X637657Y555814D01*
X637714Y556102D01*
X637714Y556102D01*
Y604619D01*
X638201Y604841D01*
X638467Y604610D01*
Y537382D01*
X550492Y449407D01*
X530873D01*
X530803Y449943D01*
X530248Y451284D01*
X529364Y452435D01*
X528213Y453319D01*
X526872Y453874D01*
X525433Y454063D01*
X523994Y453874D01*
X522653Y453319D01*
X521502Y452435D01*
X520618Y451284D01*
X520063Y449943D01*
X519874Y448504D01*
X520063Y447065D01*
X520618Y445724D01*
X521502Y444573D01*
X522653Y443689D01*
X523994Y443134D01*
X525433Y442945D01*
X526872Y443134D01*
X528213Y443689D01*
X529364Y444573D01*
X530248Y445724D01*
X530803Y447065D01*
X530873Y447601D01*
X550866D01*
X551212Y447670D01*
X551505Y447865D01*
X640009Y536369D01*
X640204Y536662D01*
X640273Y537008D01*
Y605118D01*
X640216Y605406D01*
X640249Y605528D01*
X640511Y605905D01*
X643031D01*
X643298Y605406D01*
X643260Y605348D01*
X643191Y605002D01*
Y488957D01*
X617690Y463455D01*
X617308Y463778D01*
X618094Y465249D01*
X618578Y466845D01*
X618742Y468504D01*
X618578Y470163D01*
X618094Y471759D01*
X617308Y473229D01*
X616251Y474518D01*
X614962Y475576D01*
X613491Y476362D01*
X611896Y476846D01*
X610236Y477009D01*
X608577Y476846D01*
X606981Y476362D01*
X605511Y475576D01*
X604222Y474518D01*
X603164Y473229D01*
X602378Y471759D01*
X601894Y470163D01*
X601731Y468504D01*
X601894Y466845D01*
X602378Y465249D01*
X603164Y463778D01*
X604222Y462490D01*
X605511Y461432D01*
X606981Y460646D01*
X608577Y460162D01*
X610236Y459998D01*
X611896Y460162D01*
X613491Y460646D01*
X614962Y461432D01*
X615285Y461050D01*
X605527Y451292D01*
X604947Y451419D01*
X604167Y452435D01*
X603016Y453319D01*
X601675Y453874D01*
X600236Y454063D01*
X598797Y453874D01*
X597457Y453319D01*
X596305Y452435D01*
X595422Y451284D01*
X594866Y449943D01*
X594677Y448504D01*
X594866Y447065D01*
X595422Y445724D01*
X596305Y444573D01*
X597457Y443689D01*
X598797Y443134D01*
X600236Y442945D01*
X601675Y443134D01*
X603016Y443689D01*
X604167Y444573D01*
X605051Y445724D01*
X605606Y447065D01*
X605796Y448504D01*
X605737Y448948D01*
X625832Y469043D01*
X626305Y468809D01*
X626265Y468504D01*
X626401Y467476D01*
X626797Y466518D01*
X627428Y465696D01*
X628251Y465065D01*
X629209Y464668D01*
X630236Y464533D01*
X631264Y464668D01*
X632222Y465065D01*
X633044Y465696D01*
X633675Y466518D01*
X634072Y467476D01*
X634207Y468504D01*
X634072Y469532D01*
X633675Y470489D01*
X633044Y471312D01*
X632222Y471943D01*
X631264Y472340D01*
X630236Y472475D01*
X629931Y472435D01*
X629697Y472908D01*
X644733Y487944D01*
X644929Y488237D01*
X644998Y488583D01*
Y604494D01*
X645264Y604725D01*
X645750Y604504D01*
Y475394D01*
X645819Y475048D01*
X646015Y474755D01*
X670009Y450761D01*
X669669Y449943D01*
X669480Y448504D01*
X669669Y447065D01*
X670225Y445724D01*
X671108Y444573D01*
X672260Y443689D01*
X673600Y443134D01*
X675039Y442945D01*
X676478Y443134D01*
X677819Y443689D01*
X678970Y444573D01*
X679854Y445724D01*
X680409Y447065D01*
X680599Y448504D01*
X680409Y449943D01*
X679854Y451284D01*
X678970Y452435D01*
X677819Y453319D01*
X676478Y453874D01*
X675039Y454063D01*
X673600Y453874D01*
X672260Y453319D01*
X671108Y452435D01*
X670903Y452422D01*
X647557Y475768D01*
Y605905D01*
X649687D01*
Y547756D01*
X649756Y547410D01*
X649952Y547117D01*
X670554Y526515D01*
X670225Y526087D01*
X669669Y524746D01*
X669480Y523307D01*
X669669Y521868D01*
X670225Y520527D01*
X671108Y519376D01*
X672260Y518493D01*
X673600Y517937D01*
X675039Y517748D01*
X676478Y517937D01*
X677819Y518493D01*
X678970Y519376D01*
X679854Y520527D01*
X680409Y521868D01*
X680599Y523307D01*
X680409Y524746D01*
X679854Y526087D01*
X678970Y527238D01*
X677819Y528122D01*
X676478Y528677D01*
X675039Y528866D01*
X673600Y528677D01*
X672260Y528122D01*
X671831Y527793D01*
X651494Y548130D01*
Y605905D01*
X651772D01*
Y612876D01*
X668524D01*
X677314Y604086D01*
X677607Y603890D01*
X677953Y603821D01*
X679528D01*
Y603108D01*
X675591D01*
Y604921D01*
X670866D01*
Y600984D01*
X675591D01*
Y601301D01*
X679528D01*
Y600472D01*
X685354D01*
Y601301D01*
X686111D01*
X686266Y601069D01*
X686787Y600721D01*
X687402Y600599D01*
X688016Y600721D01*
X688537Y601069D01*
X688885Y601590D01*
X689007Y602205D01*
X688885Y602819D01*
X688537Y603340D01*
X688016Y603688D01*
X687402Y603810D01*
X686787Y603688D01*
X686266Y603340D01*
X686111Y603108D01*
X685354D01*
Y603821D01*
X685827D01*
X686172Y603890D01*
X686465Y604086D01*
X689221Y606842D01*
X689417Y607135D01*
X689429Y607192D01*
X689486Y607480D01*
X689486Y607480D01*
Y619685D01*
X689486Y619685D01*
X689429Y619973D01*
X689417Y620031D01*
X689221Y620324D01*
X689221Y620324D01*
X686702Y622843D01*
X686409Y623039D01*
X686063Y623108D01*
X685354D01*
Y623937D01*
X679528D01*
Y620588D01*
X674390D01*
X671308Y623670D01*
X671015Y623866D01*
X670669Y623935D01*
X661811D01*
Y625787D01*
Y626469D01*
X658268D01*
X654724D01*
Y625787D01*
Y623819D01*
Y621850D01*
Y620276D01*
Y619998D01*
X653915D01*
X653891Y620033D01*
X653370Y620381D01*
X652756Y620503D01*
X652141Y620381D01*
X651620Y620033D01*
X651272Y619512D01*
X651150Y618898D01*
X651272Y618283D01*
X651620Y617762D01*
X652141Y617414D01*
X652756Y617292D01*
X653370Y617414D01*
X653891Y617762D01*
X654178Y618191D01*
X654724D01*
Y617913D01*
Y615945D01*
X661811D01*
Y616223D01*
X668720D01*
X678377Y606566D01*
X678670Y606370D01*
X679016Y606301D01*
X679528D01*
Y605628D01*
X678327D01*
X669536Y614418D01*
X669243Y614614D01*
X668898Y614683D01*
X649606D01*
X649261Y614614D01*
X648968Y614418D01*
X648968Y614418D01*
X647983Y613434D01*
X647788Y613141D01*
X647758Y612992D01*
X643620D01*
Y638012D01*
X661398Y655790D01*
X670866D01*
X671212Y655859D01*
X671505Y656054D01*
X677273Y661822D01*
X677468Y662115D01*
X677502Y662284D01*
X678366D01*
Y668110D01*
X677537D01*
Y669035D01*
X677468Y669381D01*
X677273Y669674D01*
X665796Y681150D01*
X665748Y681183D01*
Y682480D01*
X661024D01*
Y678543D01*
X665748D01*
X665748Y678543D01*
Y678543D01*
X666122Y678270D01*
X675731Y668661D01*
Y668110D01*
X674902D01*
Y662284D01*
X674902Y662284D01*
X674902D01*
X674738Y661842D01*
X670492Y657596D01*
X668242D01*
X668035Y658096D01*
X671898Y661960D01*
X671899Y661960D01*
X672094Y662253D01*
X672100Y662284D01*
X673366D01*
Y668110D01*
X669902D01*
Y665667D01*
X665748D01*
Y666732D01*
X661024D01*
Y662795D01*
X665748D01*
Y663861D01*
X669902D01*
Y662517D01*
X666555Y659171D01*
X660630D01*
X660284Y659102D01*
X659991Y658906D01*
X652272Y651187D01*
X651772Y651394D01*
Y657874D01*
X651494D01*
Y681712D01*
X663760Y693979D01*
X703169D01*
X747128Y650020D01*
Y626495D01*
X746850Y626458D01*
X745748Y626002D01*
X744802Y625276D01*
X744077Y624331D01*
X743620Y623229D01*
X743465Y622047D01*
X743620Y620865D01*
X744077Y619764D01*
X744802Y618818D01*
X745748Y618092D01*
X746850Y617636D01*
X748032Y617481D01*
X749213Y617636D01*
X750315Y618092D01*
X751261Y618818D01*
X751986Y619764D01*
X752443Y620865D01*
X752598Y622047D01*
X752443Y623229D01*
X751986Y624331D01*
X751261Y625276D01*
X750315Y626002D01*
X749213Y626458D01*
X748935Y626495D01*
Y650394D01*
X748935Y650394D01*
X748877Y650682D01*
X748866Y650739D01*
X748670Y651032D01*
X748670Y651032D01*
X704182Y695520D01*
X703889Y695716D01*
X703543Y695785D01*
X663386D01*
X663040Y695716D01*
X662747Y695520D01*
X662747Y695520D01*
X650578Y683351D01*
X650116Y683542D01*
Y684272D01*
X663760Y697916D01*
X729547D01*
X744077Y683386D01*
X744077Y683386D01*
X743620Y682284D01*
X743465Y681102D01*
X743620Y679920D01*
X744077Y678819D01*
X744802Y677873D01*
X745748Y677147D01*
X746850Y676691D01*
X748032Y676536D01*
X749213Y676691D01*
X750315Y677147D01*
X751261Y677873D01*
X751986Y678819D01*
X752443Y679920D01*
X752598Y681102D01*
X752443Y682284D01*
X751986Y683386D01*
X751261Y684332D01*
X750315Y685057D01*
X749213Y685513D01*
X748032Y685669D01*
X746850Y685513D01*
X745748Y685057D01*
X745302Y684715D01*
X730560Y699458D01*
X730267Y699653D01*
X729921Y699722D01*
X663386D01*
X663040Y699653D01*
X662747Y699458D01*
X662747Y699458D01*
X649397Y686107D01*
X648935Y686298D01*
Y687028D01*
X681476Y719569D01*
X728346D01*
X728692Y719638D01*
X728985Y719834D01*
X745525Y736374D01*
X745748Y736203D01*
X746850Y735746D01*
X748032Y735591D01*
X749213Y735746D01*
X750315Y736203D01*
X751261Y736928D01*
X751986Y737874D01*
X752443Y738976D01*
X752598Y740158D01*
X752443Y741339D01*
X751986Y742441D01*
X751261Y743387D01*
X750315Y744112D01*
X749213Y744568D01*
X748032Y744724D01*
X746850Y744568D01*
X745748Y744112D01*
X744802Y743387D01*
X744077Y742441D01*
X743620Y741339D01*
X743465Y740158D01*
X743620Y738976D01*
X744077Y737874D01*
X744248Y737651D01*
X727972Y721376D01*
X681102D01*
X680757Y721307D01*
X680464Y721111D01*
X648215Y688863D01*
X647754Y689054D01*
Y689783D01*
X703395Y745424D01*
X703395Y745424D01*
X703590Y745717D01*
X703659Y746063D01*
Y747441D01*
X705118D01*
Y751378D01*
X700394D01*
Y747441D01*
X701853D01*
Y746437D01*
X647034Y691619D01*
X646572Y691810D01*
Y692539D01*
X661072Y707038D01*
X661268Y707332D01*
X661336Y707677D01*
Y734726D01*
X661615Y734762D01*
X662716Y735218D01*
X663662Y735944D01*
X664388Y736890D01*
X664844Y737991D01*
X665000Y739173D01*
X664844Y740355D01*
X664388Y741457D01*
X663662Y742402D01*
X662716Y743128D01*
X661615Y743584D01*
X661336Y743621D01*
Y760316D01*
X661615Y760353D01*
X662716Y760809D01*
X663662Y761535D01*
X664388Y762480D01*
X664844Y763582D01*
X665000Y764764D01*
X664844Y765946D01*
X664388Y767047D01*
X663662Y767993D01*
X662716Y768719D01*
X661615Y769175D01*
X660433Y769330D01*
D02*
G37*
G36*
X573327Y703437D02*
X569004D01*
Y701476D01*
X573327D01*
Y703437D01*
D02*
G37*
G36*
X568004D02*
X563681D01*
Y701476D01*
X568004D01*
Y703437D01*
D02*
G37*
G36*
X581102Y702165D02*
X576378D01*
Y698228D01*
X577135D01*
Y696875D01*
X576915Y696707D01*
X576747Y696488D01*
X573327D01*
Y697342D01*
X563681D01*
Y692421D01*
X573327D01*
Y693276D01*
X576747D01*
X576915Y693057D01*
X577135Y692888D01*
Y691535D01*
X576378D01*
Y687598D01*
X581102D01*
Y691535D01*
X580346D01*
Y692888D01*
X580565Y693057D01*
X580975Y693591D01*
X581233Y694214D01*
X581321Y694882D01*
X581233Y695550D01*
X580975Y696173D01*
X580565Y696707D01*
X580346Y696875D01*
Y698228D01*
X581102D01*
Y702165D01*
D02*
G37*
G36*
X777480Y704165D02*
X776412Y704025D01*
X775417Y703613D01*
X774563Y702957D01*
X773907Y702102D01*
X773495Y701107D01*
X773354Y700039D01*
X773495Y698972D01*
X773907Y697976D01*
X774563Y697122D01*
X775417Y696466D01*
X776412Y696054D01*
X777480Y695914D01*
X778548Y696054D01*
X779543Y696466D01*
X780398Y697122D01*
X781053Y697976D01*
X781466Y698972D01*
X781606Y700039D01*
X781466Y701107D01*
X781053Y702102D01*
X780398Y702957D01*
X779543Y703613D01*
X778548Y704025D01*
X777480Y704165D01*
D02*
G37*
G36*
X787480D02*
X786412Y704025D01*
X785417Y703613D01*
X784563Y702957D01*
X783907Y702102D01*
X783495Y701107D01*
X783355Y700039D01*
X783495Y698972D01*
X783907Y697976D01*
X784563Y697122D01*
X785417Y696466D01*
X786412Y696054D01*
X787480Y695914D01*
X788548Y696054D01*
X789543Y696466D01*
X790398Y697122D01*
X791053Y697976D01*
X791466Y698972D01*
X791606Y700039D01*
X791466Y701107D01*
X791053Y702102D01*
X790398Y702957D01*
X789543Y703613D01*
X788548Y704025D01*
X787480Y704165D01*
D02*
G37*
G36*
X521153Y685603D02*
X520472Y685513D01*
X519370Y685057D01*
X518424Y684332D01*
X517699Y683386D01*
X517242Y682284D01*
X517153Y681602D01*
X521153D01*
Y685603D01*
D02*
G37*
G36*
X619579D02*
X618897Y685513D01*
X617795Y685057D01*
X616850Y684332D01*
X616124Y683386D01*
X615668Y682284D01*
X615578Y681602D01*
X619579D01*
Y685603D01*
D02*
G37*
G36*
X463098D02*
Y681602D01*
X467099D01*
X467009Y682284D01*
X466553Y683386D01*
X465828Y684332D01*
X464882Y685057D01*
X463780Y685513D01*
X463098Y685603D01*
D02*
G37*
G36*
X762375Y680602D02*
X758374D01*
Y676602D01*
X759056Y676691D01*
X760157Y677147D01*
X761103Y677873D01*
X761829Y678819D01*
X762285Y679920D01*
X762375Y680602D01*
D02*
G37*
G36*
X462098Y685603D02*
X461416Y685513D01*
X460315Y685057D01*
X459369Y684332D01*
X458644Y683386D01*
X458187Y682284D01*
X458098Y681602D01*
X462098D01*
Y685603D01*
D02*
G37*
G36*
X620579D02*
Y681602D01*
X624580D01*
X624490Y682284D01*
X624034Y683386D01*
X623308Y684332D01*
X622362Y685057D01*
X621261Y685513D01*
X620579Y685603D01*
D02*
G37*
G36*
X665748Y685130D02*
X663886D01*
Y683661D01*
X665748D01*
Y685130D01*
D02*
G37*
G36*
X511811Y744724D02*
X510629Y744568D01*
X509528Y744112D01*
X508582Y743387D01*
X507856Y742441D01*
X507400Y741339D01*
X507244Y740158D01*
X507400Y738976D01*
X507856Y737874D01*
X508582Y736928D01*
X509528Y736203D01*
X510629Y735746D01*
X510908Y735710D01*
Y698819D01*
X510977Y698473D01*
X511172Y698180D01*
X523625Y685728D01*
X523342Y685304D01*
X522835Y685513D01*
X522154Y685603D01*
Y681602D01*
X526154D01*
X526065Y682284D01*
X525855Y682791D01*
X526279Y683074D01*
X540700Y668653D01*
X540700Y668653D01*
X540993Y668457D01*
X541050Y668445D01*
X541339Y668388D01*
X541339Y668388D01*
X619705D01*
X629719Y658374D01*
X629512Y657874D01*
X623935D01*
Y660433D01*
X623866Y660779D01*
X623670Y661072D01*
X621630Y663112D01*
X621684Y663386D01*
X621562Y664000D01*
X621214Y664521D01*
X620693Y664869D01*
X620079Y664992D01*
X619464Y664869D01*
X618943Y664521D01*
X618595Y664000D01*
X618473Y663386D01*
X618595Y662771D01*
X618943Y662251D01*
X619464Y661902D01*
X619632Y661869D01*
Y661359D01*
X619464Y661326D01*
X618943Y660978D01*
X618595Y660457D01*
X618473Y659842D01*
X618595Y659228D01*
X618943Y658707D01*
X619464Y658359D01*
X619698Y658313D01*
X619882Y657874D01*
Y657874D01*
X619882Y657874D01*
X619882Y657874D01*
Y650787D01*
X624097D01*
Y650591D01*
X624166Y650245D01*
X624361Y649952D01*
X625081Y649232D01*
Y646172D01*
X624849Y646017D01*
X624501Y645496D01*
X624379Y644882D01*
X624501Y644267D01*
X624849Y643747D01*
X625370Y643399D01*
X625984Y643276D01*
X626550Y643389D01*
X626686Y643364D01*
X627050Y643169D01*
Y641448D01*
X626817Y641293D01*
X626469Y640772D01*
X626347Y640158D01*
X626469Y639543D01*
X626817Y639022D01*
X627338Y638674D01*
X627953Y638552D01*
X628518Y638664D01*
X628654Y638639D01*
X629018Y638445D01*
Y637905D01*
X628786Y637749D01*
X628438Y637229D01*
X628316Y636614D01*
X628438Y636000D01*
X628786Y635479D01*
X629307Y635131D01*
X629921Y635008D01*
X630536Y635131D01*
X631057Y635479D01*
X631405Y636000D01*
X631527Y636614D01*
X631405Y637229D01*
X631057Y637749D01*
X630824Y637905D01*
Y649606D01*
X630756Y649952D01*
X630560Y650245D01*
X630479Y650325D01*
X630671Y650787D01*
X633939D01*
Y649978D01*
X633904Y649954D01*
X633556Y649433D01*
X633434Y648819D01*
X633556Y648204D01*
X633904Y647683D01*
X634425Y647335D01*
X635039Y647213D01*
X635654Y647335D01*
X636175Y647683D01*
X636523Y648204D01*
X636645Y648819D01*
X636523Y649433D01*
X636175Y649954D01*
X635746Y650241D01*
Y650787D01*
X636311D01*
Y654331D01*
Y657874D01*
X635746D01*
Y658858D01*
X635677Y659204D01*
X635481Y659497D01*
X634416Y660562D01*
X634608Y661024D01*
X634736D01*
Y663386D01*
Y665748D01*
X633580D01*
Y668327D01*
X634151Y668898D01*
X637205D01*
Y673622D01*
X633268D01*
Y670569D01*
X632038Y669339D01*
X631843Y669046D01*
X631774Y668701D01*
Y661549D01*
X631274Y661342D01*
X614020Y678596D01*
X614191Y678819D01*
X614647Y679920D01*
X614803Y681102D01*
X614647Y682284D01*
X614191Y683386D01*
X613465Y684332D01*
X612520Y685057D01*
X611418Y685513D01*
X610236Y685669D01*
X609054Y685513D01*
X607953Y685057D01*
X607007Y684332D01*
X606281Y683386D01*
X605825Y682284D01*
X605670Y681102D01*
X605825Y679920D01*
X606281Y678819D01*
X607007Y677873D01*
X607953Y677147D01*
X609054Y676691D01*
X610236Y676536D01*
X611418Y676691D01*
X612520Y677147D01*
X612743Y677319D01*
X619405Y670656D01*
X619213Y670194D01*
X541713D01*
X512714Y699193D01*
Y735710D01*
X512993Y735746D01*
X514094Y736203D01*
X515040Y736928D01*
X515766Y737874D01*
X516222Y738976D01*
X516378Y740158D01*
X516222Y741339D01*
X515766Y742441D01*
X515040Y743387D01*
X514094Y744112D01*
X512993Y744568D01*
X511811Y744724D01*
D02*
G37*
G36*
X662886Y685130D02*
X661024D01*
Y683661D01*
X662886D01*
Y685130D01*
D02*
G37*
G36*
X757374Y685603D02*
X756692Y685513D01*
X755591Y685057D01*
X754645Y684332D01*
X753919Y683386D01*
X753463Y682284D01*
X753373Y681602D01*
X757374D01*
Y685603D01*
D02*
G37*
G36*
X758374D02*
Y681602D01*
X762375D01*
X762285Y682284D01*
X761829Y683386D01*
X761103Y684332D01*
X760157Y685057D01*
X759056Y685513D01*
X758374Y685603D01*
D02*
G37*
%LPD*%
G36*
X607066Y619463D02*
X601214Y613611D01*
X601018Y613318D01*
X600950Y612972D01*
Y612598D01*
X598335D01*
Y609941D01*
Y607283D01*
X600950D01*
Y606164D01*
X600101Y605315D01*
X594685D01*
Y600785D01*
X593259Y599359D01*
X593063Y599066D01*
X592994Y598720D01*
Y596850D01*
X591929D01*
Y592126D01*
X595866D01*
Y596850D01*
X594801D01*
Y598346D01*
X596454Y600000D01*
X600984D01*
Y603644D01*
X602491Y605151D01*
X602687Y605444D01*
X602756Y605790D01*
Y612598D01*
X608349Y618191D01*
X609139D01*
X609267Y617983D01*
X609327Y617691D01*
X606251Y614615D01*
X606055Y614322D01*
X605987Y613976D01*
Y612598D01*
X603740D01*
Y607283D01*
X609550D01*
X610908Y605925D01*
Y596850D01*
X608858D01*
Y592126D01*
X612795D01*
Y596850D01*
X612714D01*
Y606299D01*
X612714Y606299D01*
X612657Y606588D01*
X612645Y606645D01*
X612450Y606938D01*
X612450Y606938D01*
X610039Y609348D01*
Y612598D01*
X607793D01*
Y613602D01*
X610136Y615945D01*
X616929D01*
Y617913D01*
Y619350D01*
X617429Y619618D01*
X617561Y619529D01*
X617996Y618878D01*
X618149Y618110D01*
X618110Y592520D01*
X618110D01*
X618141Y592482D01*
X617996Y591752D01*
X617561Y591101D01*
X616910Y590665D01*
X616142Y590513D01*
X592520Y590551D01*
Y590551D01*
X592482Y590520D01*
X591752Y590665D01*
X591101Y591101D01*
X590665Y591752D01*
X590513Y592520D01*
X590543Y612888D01*
X597618Y619963D01*
X606859D01*
X607066Y619463D01*
D02*
G37*
G36*
X673102Y616566D02*
X673394Y616370D01*
X673740Y616301D01*
X679528D01*
Y615472D01*
X685354D01*
Y617943D01*
X685854Y618171D01*
X686105Y617977D01*
Y613912D01*
X685854Y613719D01*
X685354Y613937D01*
Y613937D01*
X679528D01*
Y610472D01*
X685354D01*
Y611302D01*
X685827D01*
X686172Y611370D01*
X686465Y611566D01*
X687180Y612280D01*
X687679Y612073D01*
Y607854D01*
X685854Y606029D01*
X685354Y606236D01*
Y608937D01*
X679528D01*
Y608677D01*
X679028Y608470D01*
X669733Y617765D01*
X669440Y617960D01*
X669095Y618029D01*
X661811D01*
Y619882D01*
Y620160D01*
X669508D01*
X673102Y616566D01*
D02*
G37*
G36*
X555886Y751854D02*
X556537Y751419D01*
X556972Y750768D01*
X557125Y750000D01*
X557125Y750000D01*
X557087Y750000D01*
X557125Y679172D01*
X557125Y679172D01*
X556972Y678404D01*
X556537Y677753D01*
X555886Y677318D01*
X555118Y677165D01*
X555118Y677165D01*
X555118Y677204D01*
X539370Y677165D01*
X539370Y677165D01*
X538602Y677318D01*
X537951Y677753D01*
X537516Y678404D01*
X537363Y679172D01*
X537363Y679172D01*
X537402D01*
X537363Y750000D01*
Y750000D01*
X537516Y750768D01*
X537951Y751419D01*
X538602Y751854D01*
X539370Y752007D01*
X539370D01*
X539370Y751968D01*
X555118Y752007D01*
X555118Y752007D01*
X555886Y751854D01*
D02*
G37*
%LPC*%
G36*
X613673Y609736D02*
X612667D01*
X612690Y609622D01*
X613038Y609101D01*
X613559Y608753D01*
X613673Y608730D01*
Y609736D01*
D02*
G37*
G36*
X606390Y605315D02*
X603740D01*
Y603158D01*
X606390D01*
Y605315D01*
D02*
G37*
G36*
X597335Y612598D02*
X594685D01*
Y610441D01*
X597335D01*
Y612598D01*
D02*
G37*
G36*
X615679Y609736D02*
X614673D01*
Y608730D01*
X614788Y608753D01*
X615309Y609101D01*
X615657Y609622D01*
X615679Y609736D01*
D02*
G37*
G36*
X606390Y602157D02*
X603740D01*
Y600000D01*
X606390D01*
Y602157D01*
D02*
G37*
G36*
X610039D02*
X607390D01*
Y600000D01*
X610039D01*
Y602157D01*
D02*
G37*
G36*
X597335Y609441D02*
X594685D01*
Y607283D01*
X597335D01*
Y609441D01*
D02*
G37*
G36*
X610039Y605315D02*
X607390D01*
Y603158D01*
X610039D01*
Y605315D01*
D02*
G37*
G36*
X600984Y593988D02*
X599516D01*
Y592126D01*
X600984D01*
Y593988D01*
D02*
G37*
G36*
X605209Y593988D02*
X603740D01*
Y592126D01*
X605209D01*
Y593988D01*
D02*
G37*
G36*
X598516Y593988D02*
X597047D01*
Y592126D01*
X598516D01*
Y593988D01*
D02*
G37*
G36*
X613673Y611742D02*
X613559Y611720D01*
X613038Y611372D01*
X612690Y610851D01*
X612667Y610736D01*
X613673D01*
Y611742D01*
D02*
G37*
G36*
X614673D02*
Y610736D01*
X615679D01*
X615657Y610851D01*
X615309Y611372D01*
X614788Y611720D01*
X614673Y611742D01*
D02*
G37*
G36*
X598516Y596850D02*
X597047D01*
Y594988D01*
X598516D01*
Y596850D01*
D02*
G37*
G36*
X600984D02*
X599516D01*
Y594988D01*
X600984D01*
Y596850D01*
D02*
G37*
G36*
X607677D02*
X606209D01*
Y594988D01*
X607677D01*
Y596850D01*
D02*
G37*
G36*
Y593988D02*
X606209D01*
Y592126D01*
X607677D01*
Y593988D01*
D02*
G37*
G36*
X605209Y596850D02*
X603740D01*
Y594988D01*
X605209D01*
Y596850D01*
D02*
G37*
%LPD*%
D10*
X671634Y665197D02*
D03*
X686634D02*
D03*
X681634D02*
D03*
X676634D02*
D03*
X671634Y685197D02*
D03*
X676634D02*
D03*
X681634D02*
D03*
X686634D02*
D03*
D11*
X694882Y672638D02*
D03*
Y677756D02*
D03*
X663386Y664764D02*
D03*
Y669882D02*
D03*
Y680512D02*
D03*
Y685630D02*
D03*
X578740Y744685D02*
D03*
Y739567D02*
D03*
X578740Y705315D02*
D03*
Y700197D02*
D03*
X578740Y723819D02*
D03*
Y728937D02*
D03*
X578740Y684449D02*
D03*
Y689567D02*
D03*
X720472Y607677D02*
D03*
Y612795D02*
D03*
X712598Y619488D02*
D03*
Y624606D02*
D03*
Y607677D02*
D03*
Y612795D02*
D03*
X667323Y644291D02*
D03*
Y639173D02*
D03*
Y632480D02*
D03*
Y627362D02*
D03*
X702756Y754528D02*
D03*
Y749409D02*
D03*
X604331Y627362D02*
D03*
Y632480D02*
D03*
X604331Y641142D02*
D03*
Y646260D02*
D03*
X673228Y602953D02*
D03*
Y597835D02*
D03*
X584646Y640354D02*
D03*
Y635236D02*
D03*
D12*
X568504Y703937D02*
D03*
Y685827D02*
D03*
Y694882D02*
D03*
Y743307D02*
D03*
Y725197D02*
D03*
Y734252D02*
D03*
D13*
X545669Y694882D02*
D03*
Y734252D02*
D03*
D14*
X713976Y590551D02*
D03*
X719095D02*
D03*
X713976Y598425D02*
D03*
X719095D02*
D03*
X725787Y590551D02*
D03*
X730905D02*
D03*
X725787Y598425D02*
D03*
X730905D02*
D03*
X698228Y635827D02*
D03*
X703346D02*
D03*
X687598D02*
D03*
X682480D02*
D03*
X635236Y671260D02*
D03*
X640354D02*
D03*
X635236Y663386D02*
D03*
X640354D02*
D03*
X599016Y594488D02*
D03*
X593898D02*
D03*
X605709D02*
D03*
X610827D02*
D03*
X634449Y600394D02*
D03*
X629331D02*
D03*
D15*
X597835Y602658D02*
D03*
X606890D02*
D03*
Y609941D02*
D03*
X597835D02*
D03*
D16*
X650591Y654331D02*
D03*
X648622D02*
D03*
X646654D02*
D03*
X644685D02*
D03*
X642717D02*
D03*
X640748D02*
D03*
X638779D02*
D03*
X636811D02*
D03*
X634842D02*
D03*
X632874D02*
D03*
X630905D02*
D03*
X628937D02*
D03*
X626968D02*
D03*
X625000D02*
D03*
X623032D02*
D03*
X621063D02*
D03*
Y609449D02*
D03*
X623032D02*
D03*
X625000D02*
D03*
X626968D02*
D03*
X628937D02*
D03*
X630905D02*
D03*
X632874D02*
D03*
X634842D02*
D03*
X636811D02*
D03*
X638779D02*
D03*
X640748D02*
D03*
X642717D02*
D03*
X644685D02*
D03*
X646654D02*
D03*
X648622D02*
D03*
X650591D02*
D03*
D17*
X613386Y617126D02*
D03*
Y619095D02*
D03*
Y621063D02*
D03*
Y623032D02*
D03*
Y625000D02*
D03*
Y626968D02*
D03*
Y628937D02*
D03*
Y630905D02*
D03*
Y632874D02*
D03*
Y634842D02*
D03*
Y636811D02*
D03*
Y638779D02*
D03*
Y640748D02*
D03*
Y642717D02*
D03*
Y644685D02*
D03*
Y646654D02*
D03*
X658268Y617126D02*
D03*
Y619095D02*
D03*
Y621063D02*
D03*
Y623032D02*
D03*
Y625000D02*
D03*
Y626968D02*
D03*
Y628937D02*
D03*
Y630905D02*
D03*
Y632874D02*
D03*
Y634842D02*
D03*
Y636811D02*
D03*
Y638779D02*
D03*
Y640748D02*
D03*
Y642717D02*
D03*
Y644685D02*
D03*
Y646654D02*
D03*
D18*
X703386Y627205D02*
D03*
Y622205D02*
D03*
Y617205D02*
D03*
Y612205D02*
D03*
Y607205D02*
D03*
Y602205D02*
D03*
Y597205D02*
D03*
X682441D02*
D03*
Y602205D02*
D03*
Y607205D02*
D03*
Y612205D02*
D03*
Y617205D02*
D03*
Y622205D02*
D03*
Y627205D02*
D03*
D19*
X567520Y763779D02*
D03*
X550591D02*
D03*
D20*
X621063Y604528D02*
X621260Y604331D01*
X621063Y604528D02*
Y609449D01*
X626968Y616339D02*
X627953Y617323D01*
X626968Y609449D02*
Y616339D01*
X630709Y617126D02*
Y617323D01*
X628937Y615354D02*
X630709Y617126D01*
X628937Y609449D02*
Y615354D01*
X624803Y614961D02*
X625000Y614764D01*
Y609449D02*
Y614764D01*
X728346Y594488D02*
X781496D01*
X724409Y598425D02*
X728346Y594488D01*
X724409Y598425D02*
X725787D01*
X781496Y594488D02*
X799213Y612205D01*
X775591Y795276D02*
X803150Y767717D01*
Y610236D02*
Y767717D01*
X779528Y586614D02*
X803150Y610236D01*
X728346Y586614D02*
X779528D01*
X799213Y612205D02*
Y765748D01*
X653543Y795276D02*
X775591D01*
X777559Y787402D02*
X799213Y765748D01*
X685039Y787402D02*
X777559D01*
X645669D02*
X653543Y795276D01*
X629921Y636614D02*
Y649606D01*
X628937Y650591D02*
X629921Y649606D01*
X628937Y650591D02*
Y654331D01*
X617520Y638779D02*
X623622Y632677D01*
X613386Y638779D02*
X617520D01*
X618898Y634252D02*
Y634646D01*
X618701Y634842D02*
X618898Y634646D01*
X625984Y644882D02*
Y649606D01*
X635039Y648819D02*
Y648819D01*
X634842Y648622D02*
X635039Y648819D01*
X627953Y640158D02*
Y649606D01*
X626968Y650591D02*
X627953Y649606D01*
X625000Y650591D02*
X625984Y649606D01*
X625000Y650591D02*
Y654331D01*
X613386Y634842D02*
X618701D01*
X626968Y650591D02*
Y654331D01*
X541339Y669291D02*
X620079D01*
X511811Y698819D02*
X541339Y669291D01*
X511811Y698819D02*
Y740158D01*
X607975Y619095D02*
X613386D01*
X601853Y612972D02*
X607975Y619095D01*
X601853Y605790D02*
Y612972D01*
X598720Y602658D02*
X601853Y605790D01*
X611811Y595472D02*
Y606299D01*
X608169Y609941D02*
X611811Y606299D01*
X606890Y609941D02*
X608169D01*
X610827Y594488D02*
X611811Y595472D01*
X610039Y617126D02*
X613386D01*
X606890Y613976D02*
X610039Y617126D01*
X606890Y609941D02*
Y613976D01*
X597835Y602658D02*
X598720D01*
X593898Y598720D02*
X597835Y602658D01*
X593898Y594488D02*
Y598720D01*
X608268Y646063D02*
Y648819D01*
X595669Y661417D02*
X608268Y648819D01*
X500000Y661417D02*
X595669D01*
X626772Y604331D02*
X629528D01*
X625197Y602756D02*
X626772Y604331D01*
X625197Y593701D02*
Y602756D01*
X554803Y523307D02*
X625197Y593701D01*
X676634Y662461D02*
Y665197D01*
X671260Y662598D02*
Y664823D01*
X650591Y547756D02*
X675039Y523307D01*
X650591Y547756D02*
Y609449D01*
X673543Y448504D02*
X675039D01*
X646654Y475394D02*
X673543Y448504D01*
X646654Y475394D02*
Y609449D01*
X525433Y448504D02*
X550866D01*
X598425Y665354D02*
X613386Y650394D01*
X527559Y665354D02*
X598425D01*
X511811Y681102D02*
X527559Y665354D01*
X452756Y708661D02*
X500000Y661417D01*
X581496Y657480D02*
X589764Y649213D01*
X476378Y657480D02*
X581496D01*
X452756Y681102D02*
X476378Y657480D01*
X609252Y632874D02*
X613386D01*
X450630Y523307D02*
X454410D01*
X497244Y491339D02*
Y546457D01*
X454410Y448504D02*
X497244Y491339D01*
X450630Y448504D02*
X454410D01*
X597244Y620866D02*
X613189D01*
X592520Y622047D02*
X608661D01*
X587795Y623228D02*
X607874D01*
X582677Y618110D02*
X587795Y623228D01*
X452756Y618110D02*
X582677D01*
X613189Y620866D02*
X613386Y621063D01*
X608661Y622047D02*
X609646Y623032D01*
X607874Y623228D02*
X609646Y625000D01*
X560630Y624409D02*
X607087D01*
X560039Y625000D02*
X560630Y624409D01*
X607087D02*
X609646Y626968D01*
X613386D01*
X609646Y625000D02*
X613386D01*
X609646Y623032D02*
X613386D01*
X703346Y635827D02*
X703386Y635787D01*
Y627205D02*
Y635787D01*
X698228Y631299D02*
X698425Y631102D01*
X698228Y631299D02*
Y635827D01*
X687402Y631102D02*
X687598Y631299D01*
Y635827D01*
X634449Y600394D02*
X634842Y600787D01*
Y609449D01*
X636811Y556102D02*
Y609449D01*
X604016Y523307D02*
X636811Y556102D01*
X600236Y523307D02*
X604016D01*
X600236Y448504D02*
X604016D01*
X629528Y604331D02*
X630905Y605709D01*
Y609449D01*
X664961Y648032D02*
X682677D01*
X525433Y523307D02*
X554803D01*
X749843Y448504D02*
Y512756D01*
X661614Y644685D02*
X664961Y648032D01*
X658268Y644685D02*
X661614D01*
X658464Y646457D02*
X661417D01*
X658268Y646654D02*
X658464Y646457D01*
X632677Y668701D02*
X635236Y671260D01*
X632677Y661024D02*
Y668701D01*
Y661024D02*
X634842Y658858D01*
Y654331D02*
Y658858D01*
X688583Y607480D02*
Y619685D01*
X686063Y622205D02*
X688583Y619685D01*
X687008Y613386D02*
Y618504D01*
X685827Y612205D02*
X687008Y613386D01*
X682441Y612205D02*
X685827D01*
X658268Y623032D02*
X670669D01*
X679016Y607205D02*
X682441D01*
X669095Y617126D02*
X679016Y607205D01*
X658268Y617126D02*
X669095D01*
X682441Y622205D02*
X686063D01*
X719095Y598425D02*
X725787D01*
X673858Y597205D02*
X682441D01*
X673228Y597835D02*
X673858Y597205D01*
X673976Y602205D02*
X682441D01*
X673228Y602953D02*
X673976Y602205D01*
X703386Y617205D02*
X710315D01*
X712598Y619488D01*
X703386Y622205D02*
X706850D01*
X709252Y624606D02*
X712598D01*
X706850Y622205D02*
X709252Y624606D01*
X703386Y597205D02*
X705945D01*
X712598Y590551D01*
X713976D01*
X703386Y602205D02*
X706850D01*
X710630Y598425D01*
X713976D01*
X663386Y664764D02*
X671201D01*
X671260Y664823D01*
X671634Y665197D01*
X748032Y622047D02*
X748032Y622047D01*
X748032Y681102D02*
X748425Y681496D01*
X748032Y740158D02*
X748032Y740158D01*
X729921Y698819D02*
X747244Y681496D01*
X748425D01*
X703543Y694882D02*
X748032Y650394D01*
Y622047D02*
Y650394D01*
X663386Y680512D02*
X665158D01*
X676634Y669035D01*
Y665197D02*
Y669035D01*
X648622Y654331D02*
Y658858D01*
X649213Y659449D01*
X646654Y654331D02*
Y658858D01*
X648032Y660236D01*
X644685Y654331D02*
Y658858D01*
X646850Y661024D01*
X642717Y654331D02*
Y658858D01*
X645669Y661811D01*
X610236Y740158D02*
X644488Y705905D01*
X640748Y654331D02*
Y658858D01*
X644488Y662598D01*
Y705905D01*
X650591Y654331D02*
Y682087D01*
X663386Y694882D01*
X703543D01*
X649213Y659449D02*
Y684646D01*
X663386Y698819D01*
X729921D01*
X648032Y660236D02*
Y687402D01*
X646850Y661024D02*
Y690158D01*
X702756Y746063D01*
Y750000D01*
X648032Y687402D02*
X681102Y720472D01*
X728346D01*
X748032Y740158D01*
X640158Y663189D02*
X640354Y663386D01*
X638779Y654331D02*
Y659252D01*
X640158Y660630D01*
Y663189D01*
X630905Y654331D02*
Y658465D01*
X609646Y644685D02*
X613386D01*
X608268Y646063D02*
X609646Y644685D01*
X690945Y756968D02*
X699724D01*
X702756Y753937D01*
X677953Y604724D02*
X685827D01*
X688583Y607480D01*
X668898Y613779D02*
X677953Y604724D01*
X648622Y609449D02*
Y612795D01*
X649606Y613779D01*
X668898D01*
X658268Y621063D02*
X669882D01*
X673740Y617205D01*
X682441D01*
X582205Y642795D02*
X584646Y640354D01*
X572835Y642795D02*
X582205D01*
X604724Y640748D02*
X613386D01*
X604331Y641142D02*
X604724Y640748D01*
X608858Y630905D02*
X613386D01*
X607480Y632283D02*
X608858Y630905D01*
X604528Y632283D02*
X607480D01*
X604331Y632480D02*
X604528Y632283D01*
X445866Y625000D02*
X452756Y618110D01*
X445866Y625000D02*
Y650591D01*
X560039Y625000D02*
Y650591D01*
X660433Y707677D02*
Y739173D01*
X645669Y692913D02*
X660433Y707677D01*
Y739173D02*
Y764764D01*
X613386Y646654D02*
Y650394D01*
X452756Y708661D02*
Y740158D01*
X610236Y681102D02*
X631102Y660236D01*
X632874Y658465D01*
Y654331D02*
Y658465D01*
X712598Y612795D02*
X720472D01*
X703386Y612205D02*
X708268D01*
X708858Y612795D01*
X712598D01*
X703386Y607205D02*
X708386D01*
X709055Y607874D01*
X712402D01*
X730905Y598425D02*
X735039D01*
X730905Y590551D02*
X735039D01*
X671634Y685197D02*
X676634D01*
X681634D01*
X686634D01*
X689606D01*
X694882Y679921D01*
Y677756D02*
Y679921D01*
X681634Y660374D02*
Y665197D01*
X681496Y660236D02*
X681634Y660374D01*
X682441Y602205D02*
X687402D01*
X645669Y661811D02*
Y692913D01*
X620079Y669291D02*
X630905Y658465D01*
X694210Y578939D02*
X749843Y523307D01*
X691732Y570866D02*
X749843Y512756D01*
X691732Y570866D02*
Y638976D01*
X682677Y648032D02*
X691732Y638976D01*
X694210Y578939D02*
Y640042D01*
X661417Y646457D02*
X665354Y650394D01*
X683858D01*
X694210Y640042D01*
X550866Y448504D02*
X639370Y537008D01*
X638779Y605709D02*
Y609449D01*
Y605709D02*
X639370Y605118D01*
Y537008D02*
Y605118D01*
X604016Y448504D02*
X644095Y488583D01*
Y605002D01*
X644685Y605593D01*
Y609449D01*
X606890Y635236D02*
X609252Y632874D01*
X584646Y635236D02*
X606890D01*
X685827Y619685D02*
X687008Y618504D01*
X670669Y623032D02*
X674016Y619685D01*
X685827D01*
X640748Y609449D02*
Y638386D01*
X642717Y609449D02*
Y638386D01*
X661024Y656693D01*
X670866D01*
X676634Y662461D01*
X640748Y638386D02*
X660630Y658268D01*
X666929D01*
X671260Y662598D01*
X658268Y628937D02*
X661614D01*
X665158Y632480D02*
X667323D01*
X661614Y628937D02*
X665158Y632480D01*
X658268Y636811D02*
X662402D01*
X664764Y639173D02*
X667323D01*
X662402Y636811D02*
X664764Y639173D01*
X653346Y628937D02*
X658268D01*
X652953Y636811D02*
X658268D01*
X652756Y636614D02*
X652953Y636811D01*
X638779Y649016D02*
Y654331D01*
Y649016D02*
X638976Y648819D01*
X634842Y609449D02*
Y614764D01*
X635039Y614961D01*
X613386Y630905D02*
X618701D01*
X618898Y631102D01*
X613386Y640748D02*
X618307D01*
X618898Y640158D01*
X609252Y636811D02*
X613386D01*
X589764Y649213D02*
X600787Y638189D01*
X607874D01*
X609252Y636811D01*
X719095Y590551D02*
X725787D01*
Y589173D02*
Y590551D01*
Y589173D02*
X728346Y586614D01*
X578740Y602362D02*
X597244Y620866D01*
X497244Y546457D02*
X553150Y602362D01*
X578740D01*
X580709Y610236D02*
X592520Y622047D01*
X454410Y523307D02*
X541339Y610236D01*
X580709D01*
X634842Y648622D02*
Y654331D01*
X623032D02*
Y660433D01*
X620079Y663386D02*
X623032Y660433D01*
X621063Y654331D02*
Y658858D01*
X620079Y659842D02*
X621063Y658858D01*
X716535Y607087D02*
X719882D01*
X720472Y607677D01*
X713189Y607087D02*
X716535D01*
X712402Y607874D02*
X712598Y607677D01*
X713189Y607087D01*
X652756Y629528D02*
X653346Y628937D01*
X652756Y618898D02*
X652953Y619095D01*
X658268D01*
D21*
X780787Y603346D02*
X787480Y610039D01*
X795276Y617835D01*
Y763779D01*
X739173Y603346D02*
X780787D01*
X729724Y612795D02*
X739173Y603346D01*
X720472Y612795D02*
X729724D01*
X779528Y779528D02*
X795276Y763779D01*
X622047Y779528D02*
X779528D01*
X587205Y744685D02*
X622047Y779528D01*
X578740Y744685D02*
X587205D01*
X574016Y743307D02*
X575394Y744685D01*
X578740D01*
X568504Y743307D02*
X574016D01*
X559055Y690945D02*
Y751968D01*
X550591Y760433D02*
X559055Y751968D01*
X550591Y760433D02*
Y763779D01*
X559055Y690945D02*
X564173Y685827D01*
X559055Y730315D02*
X564173Y725197D01*
X578740Y734252D02*
Y739567D01*
Y728937D02*
Y734252D01*
X578740Y734252D02*
X578740Y734252D01*
X568504Y734252D02*
X578740D01*
Y689567D02*
Y694882D01*
X568504D02*
X578740D01*
Y700197D01*
X564173Y725197D02*
X568504D01*
X574016Y685827D02*
X575394Y684449D01*
X568504Y685827D02*
X574016D01*
X575394Y684449D02*
X578740D01*
X574016Y725197D02*
X575394Y723819D01*
X568504Y725197D02*
X574016D01*
X575394Y723819D02*
X578740D01*
X564173Y685827D02*
X568504D01*
X567520Y763779D02*
X575591Y771850D01*
Y787402D01*
D22*
X787480Y760039D02*
D03*
X777480D02*
D03*
X787480Y750039D02*
D03*
X777480D02*
D03*
X787480Y740039D02*
D03*
X777480D02*
D03*
X787480Y730039D02*
D03*
X777480D02*
D03*
X787480Y720039D02*
D03*
X777480D02*
D03*
X787480Y710039D02*
D03*
X777480D02*
D03*
X787480Y700039D02*
D03*
X777480D02*
D03*
X787480Y690039D02*
D03*
X777480D02*
D03*
X787480Y680039D02*
D03*
X777480D02*
D03*
X787480Y670039D02*
D03*
X777480D02*
D03*
X787480Y660039D02*
D03*
X777480D02*
D03*
X787480Y650039D02*
D03*
X777480D02*
D03*
X787480Y640039D02*
D03*
X777480D02*
D03*
X787480Y630039D02*
D03*
X777480D02*
D03*
X787480Y620039D02*
D03*
X777480D02*
D03*
X787480Y610039D02*
D03*
X777480D02*
D03*
D23*
X748032Y622047D02*
D03*
X738189D02*
D03*
X757874D02*
D03*
Y740158D02*
D03*
X738189D02*
D03*
X748032D02*
D03*
Y681102D02*
D03*
X738189D02*
D03*
X757874D02*
D03*
X452756Y740158D02*
D03*
X442913D02*
D03*
X462598D02*
D03*
X452756Y681102D02*
D03*
X442913D02*
D03*
X462598D02*
D03*
X521654Y740158D02*
D03*
X501968D02*
D03*
X511811D02*
D03*
X610236D02*
D03*
X600394D02*
D03*
X620079D02*
D03*
Y681102D02*
D03*
X600394D02*
D03*
X610236D02*
D03*
X511811D02*
D03*
X501968D02*
D03*
X521654D02*
D03*
X678150Y739173D02*
D03*
Y764764D02*
D03*
X660433D02*
D03*
Y739173D02*
D03*
X542323Y650591D02*
D03*
Y625000D02*
D03*
X560039D02*
D03*
Y650591D02*
D03*
X428150Y650591D02*
D03*
Y625000D02*
D03*
X445866D02*
D03*
Y650591D02*
D03*
X572835Y642795D02*
D03*
Y632795D02*
D03*
X690945Y746969D02*
D03*
Y756968D02*
D03*
D24*
X729724Y649606D02*
D03*
X766339D02*
D03*
Y767717D02*
D03*
X729724D02*
D03*
Y708661D02*
D03*
X766339D02*
D03*
X434449Y767717D02*
D03*
X471063D02*
D03*
X434449Y708661D02*
D03*
X471063D02*
D03*
X530118Y767717D02*
D03*
X493504D02*
D03*
X591929D02*
D03*
X628543D02*
D03*
Y708661D02*
D03*
X591929D02*
D03*
X493504D02*
D03*
X530118D02*
D03*
D25*
X460630Y543307D02*
D03*
X535433D02*
D03*
X610236D02*
D03*
X685039D02*
D03*
X759842D02*
D03*
X460630Y468504D02*
D03*
X535433D02*
D03*
X610236D02*
D03*
X685039D02*
D03*
X759842D02*
D03*
D26*
X475630Y533307D02*
D03*
X450630Y523307D02*
D03*
X525433D02*
D03*
X550433Y533307D02*
D03*
X625236D02*
D03*
X600236Y523307D02*
D03*
X675039D02*
D03*
X700039Y533307D02*
D03*
X774843D02*
D03*
X749843Y523307D02*
D03*
X450630Y448504D02*
D03*
X475630Y458504D02*
D03*
X550433D02*
D03*
X525433Y448504D02*
D03*
X600236D02*
D03*
X625236Y458504D02*
D03*
X700039D02*
D03*
X675039Y448504D02*
D03*
X749843D02*
D03*
X774843Y458504D02*
D03*
D27*
X440630Y543307D02*
D03*
X480630D02*
D03*
X555433D02*
D03*
X515433D02*
D03*
X590236D02*
D03*
X630236D02*
D03*
X705039D02*
D03*
X665039D02*
D03*
X739843D02*
D03*
X779843D02*
D03*
X480630Y468504D02*
D03*
X440630D02*
D03*
X515433D02*
D03*
X555433D02*
D03*
X630236D02*
D03*
X590236D02*
D03*
X665039D02*
D03*
X705039D02*
D03*
X779843D02*
D03*
X739843D02*
D03*
D28*
X540551Y816142D02*
D03*
X579528D02*
D03*
D29*
X555118Y812205D02*
D03*
D30*
X541732Y787402D02*
D03*
X555118D02*
D03*
X575591D02*
D03*
D31*
X675197D02*
D03*
X685039D02*
D03*
X655512D02*
D03*
X645669D02*
D03*
D32*
X665354Y807087D02*
D03*
D33*
X413386Y413386D02*
D03*
X807087D02*
D03*
X413386Y807087D02*
D03*
X807087D02*
D03*
D34*
X621260Y604331D02*
D03*
X630709Y617323D02*
D03*
X627953D02*
D03*
X624803Y614961D02*
D03*
X629921Y636614D02*
D03*
X623622Y632677D02*
D03*
X618898Y634252D02*
D03*
X625984Y644882D02*
D03*
X635039Y648819D02*
D03*
X627953Y640158D02*
D03*
X614173Y610236D02*
D03*
X698425Y631102D02*
D03*
X687402D02*
D03*
X735039Y598425D02*
D03*
X735039Y590551D02*
D03*
X692520Y682283D02*
D03*
X681496Y660236D02*
D03*
X687402Y602205D02*
D03*
X635039Y614961D02*
D03*
X618898Y631102D02*
D03*
Y640158D02*
D03*
X638976Y648819D02*
D03*
X652756Y636614D02*
D03*
X620079Y659842D02*
D03*
Y663386D02*
D03*
X716535Y607087D02*
D03*
X652756Y629528D02*
D03*
X652756Y618898D02*
D03*
D35*
X551181Y750000D02*
D03*
X547244D02*
D03*
X543307D02*
D03*
X539370D02*
D03*
X555118D02*
D03*
X551181Y679134D02*
D03*
X547244D02*
D03*
X543307D02*
D03*
X539370D02*
D03*
X555118D02*
D03*
Y718504D02*
D03*
Y726378D02*
D03*
Y730315D02*
D03*
Y734252D02*
D03*
Y738189D02*
D03*
Y742126D02*
D03*
Y746063D02*
D03*
Y722441D02*
D03*
Y710630D02*
D03*
Y714567D02*
D03*
Y706693D02*
D03*
Y702756D02*
D03*
Y687008D02*
D03*
Y683071D02*
D03*
Y694882D02*
D03*
Y690945D02*
D03*
Y698819D02*
D03*
X551181Y694882D02*
D03*
Y690945D02*
D03*
Y698819D02*
D03*
X539370D02*
D03*
Y690945D02*
D03*
Y694882D02*
D03*
Y683071D02*
D03*
X543307D02*
D03*
X547244D02*
D03*
X551181D02*
D03*
X539370Y687008D02*
D03*
X543307D02*
D03*
X547244D02*
D03*
X551181D02*
D03*
X539370Y702756D02*
D03*
X543307D02*
D03*
X547244D02*
D03*
X551181D02*
D03*
X539370Y706693D02*
D03*
X543307D02*
D03*
X547244D02*
D03*
X551181D02*
D03*
Y714567D02*
D03*
X547244D02*
D03*
X543307D02*
D03*
X539370D02*
D03*
X551181Y710630D02*
D03*
X547244D02*
D03*
X543307D02*
D03*
X539370D02*
D03*
X551181Y726378D02*
D03*
Y730315D02*
D03*
Y734252D02*
D03*
Y738189D02*
D03*
Y742126D02*
D03*
Y746063D02*
D03*
Y722441D02*
D03*
X547244D02*
D03*
X543307D02*
D03*
X539370D02*
D03*
X543307Y746063D02*
D03*
Y742126D02*
D03*
X547244D02*
D03*
Y746063D02*
D03*
X539370D02*
D03*
Y742126D02*
D03*
Y738189D02*
D03*
Y734252D02*
D03*
Y730315D02*
D03*
X547244Y726378D02*
D03*
X543307D02*
D03*
X539370D02*
D03*
X551181Y718504D02*
D03*
X547244D02*
D03*
X543307D02*
D03*
X539370D02*
D03*
D36*
X578740Y694882D02*
D03*
Y734252D02*
D03*
M02*
