G04 Layer_Color=7318015*
%FSLAX25Y25*%
%MOIN*%
G70*
G01*
G75*
%ADD10R,0.10433X0.06890*%
%ADD11R,0.03543X0.02756*%
%ADD12R,0.02756X0.03543*%
%ADD13R,0.04646X0.02284*%
%ADD14R,0.05906X0.01181*%
%ADD15R,0.01181X0.05906*%
%ADD16R,0.05118X0.04134*%
%ADD17R,0.08465X0.12795*%
%ADD18R,0.08465X0.03740*%
%ADD19R,0.02284X0.04646*%
D10*
X550591Y763779D02*
D03*
X567520D02*
D03*
D11*
X584646Y635236D02*
D03*
Y640354D02*
D03*
X673228Y597835D02*
D03*
Y602953D02*
D03*
X604331Y646260D02*
D03*
Y641142D02*
D03*
X604331Y632480D02*
D03*
Y627362D02*
D03*
X702756Y749409D02*
D03*
Y754528D02*
D03*
X667323Y627362D02*
D03*
Y632480D02*
D03*
Y639173D02*
D03*
Y644291D02*
D03*
X712598Y612795D02*
D03*
Y607677D02*
D03*
Y624606D02*
D03*
Y619488D02*
D03*
X720472Y612795D02*
D03*
Y607677D02*
D03*
X578740Y689567D02*
D03*
Y684449D02*
D03*
X578740Y728937D02*
D03*
Y723819D02*
D03*
X578740Y700197D02*
D03*
Y705315D02*
D03*
X578740Y739567D02*
D03*
Y744685D02*
D03*
X663386Y685630D02*
D03*
Y680512D02*
D03*
Y669882D02*
D03*
Y664764D02*
D03*
X694882Y677756D02*
D03*
Y672638D02*
D03*
D12*
X629331Y600394D02*
D03*
X634449D02*
D03*
X610827Y594488D02*
D03*
X605709D02*
D03*
X593898D02*
D03*
X599016D02*
D03*
X640354Y663386D02*
D03*
X635236D02*
D03*
X640354Y671260D02*
D03*
X635236D02*
D03*
X682480Y635827D02*
D03*
X687598D02*
D03*
X703346D02*
D03*
X698228D02*
D03*
X730905Y598425D02*
D03*
X725787D02*
D03*
X730905Y590551D02*
D03*
X725787D02*
D03*
X719095Y598425D02*
D03*
X713976D02*
D03*
X719095Y590551D02*
D03*
X713976D02*
D03*
D13*
X682441Y627205D02*
D03*
Y622205D02*
D03*
Y617205D02*
D03*
Y612205D02*
D03*
Y607205D02*
D03*
Y602205D02*
D03*
Y597205D02*
D03*
X703386D02*
D03*
Y602205D02*
D03*
Y607205D02*
D03*
Y612205D02*
D03*
Y617205D02*
D03*
Y622205D02*
D03*
Y627205D02*
D03*
D14*
X658268Y646654D02*
D03*
Y644685D02*
D03*
Y642717D02*
D03*
Y640748D02*
D03*
Y638779D02*
D03*
Y636811D02*
D03*
Y634842D02*
D03*
Y632874D02*
D03*
Y630905D02*
D03*
Y628937D02*
D03*
Y626968D02*
D03*
Y625000D02*
D03*
Y623032D02*
D03*
Y621063D02*
D03*
Y619095D02*
D03*
Y617126D02*
D03*
X613386Y646654D02*
D03*
Y644685D02*
D03*
Y642717D02*
D03*
Y640748D02*
D03*
Y638779D02*
D03*
Y636811D02*
D03*
Y634842D02*
D03*
Y632874D02*
D03*
Y630905D02*
D03*
Y628937D02*
D03*
Y626968D02*
D03*
Y625000D02*
D03*
Y623032D02*
D03*
Y621063D02*
D03*
Y619095D02*
D03*
Y617126D02*
D03*
D15*
X650591Y609449D02*
D03*
X648622D02*
D03*
X646654D02*
D03*
X644685D02*
D03*
X642717D02*
D03*
X640748D02*
D03*
X638779D02*
D03*
X636811D02*
D03*
X634842D02*
D03*
X632874D02*
D03*
X630905D02*
D03*
X628937D02*
D03*
X626968D02*
D03*
X625000D02*
D03*
X623032D02*
D03*
X621063D02*
D03*
Y654331D02*
D03*
X623032D02*
D03*
X625000D02*
D03*
X626968D02*
D03*
X628937D02*
D03*
X630905D02*
D03*
X632874D02*
D03*
X634842D02*
D03*
X636811D02*
D03*
X638779D02*
D03*
X640748D02*
D03*
X642717D02*
D03*
X644685D02*
D03*
X646654D02*
D03*
X648622D02*
D03*
X650591D02*
D03*
D16*
X597835Y609941D02*
D03*
X606890D02*
D03*
Y602658D02*
D03*
X597835D02*
D03*
D17*
X545669Y734252D02*
D03*
Y694882D02*
D03*
D18*
X568504Y734252D02*
D03*
Y725197D02*
D03*
Y743307D02*
D03*
Y694882D02*
D03*
Y685827D02*
D03*
Y703937D02*
D03*
D19*
X686634Y685197D02*
D03*
X681634D02*
D03*
X676634D02*
D03*
X671634D02*
D03*
X676634Y665197D02*
D03*
X681634D02*
D03*
X686634D02*
D03*
X671634D02*
D03*
M02*
