G04 Layer_Color=20142*
%FSLAX25Y25*%
%MOIN*%
G70*
G01*
G75*
%ADD38R,0.03084X0.05446*%
%ADD39R,0.04343X0.03556*%
%ADD40R,0.09265X0.04540*%
%ADD41R,0.09265X0.13595*%
%ADD42R,0.03556X0.04343*%
%ADD43R,0.05918X0.04934*%
%ADD44R,0.01981X0.06706*%
%ADD45R,0.06706X0.01981*%
%ADD46R,0.05446X0.03084*%
%ADD47R,0.11233X0.07690*%
%ADD48C,0.07800*%
%ADD49C,0.08674*%
%ADD50O,0.10642X0.13005*%
%ADD51C,0.16548*%
%ADD52C,0.10642*%
%ADD53C,0.07493*%
%ADD54O,0.07887X0.13792*%
%ADD55C,0.10822*%
%ADD56O,0.07887X0.12611*%
%ADD57O,0.06706X0.10642*%
%ADD58O,0.10642X0.06706*%
%ADD59C,0.13005*%
G36*
X555886Y751854D02*
X556537Y751419D01*
X556972Y750768D01*
X557125Y750000D01*
X557125Y750000D01*
X557087Y750000D01*
X557125Y679172D01*
X557125Y679172D01*
X556972Y678404D01*
X556537Y677753D01*
X555886Y677318D01*
X555118Y677165D01*
X555118Y677165D01*
X555118Y677204D01*
X539370Y677165D01*
X539370Y677165D01*
X538602Y677318D01*
X537951Y677753D01*
X537516Y678404D01*
X537363Y679172D01*
X537363Y679172D01*
X537402D01*
X537363Y750000D01*
Y750000D01*
X537516Y750768D01*
X537951Y751419D01*
X538602Y751854D01*
X539370Y752007D01*
X539370D01*
X539370Y751968D01*
X555118Y752007D01*
X555118Y752007D01*
X555886Y751854D01*
D02*
G37*
D38*
X671634Y665197D02*
D03*
X686634D02*
D03*
X681634D02*
D03*
X676634D02*
D03*
X671634Y685197D02*
D03*
X676634D02*
D03*
X681634D02*
D03*
X686634D02*
D03*
D39*
X694882Y672638D02*
D03*
Y677756D02*
D03*
X663386Y664764D02*
D03*
Y669882D02*
D03*
Y680512D02*
D03*
Y685630D02*
D03*
X578740Y744685D02*
D03*
Y739567D02*
D03*
X578740Y705315D02*
D03*
Y700197D02*
D03*
X578740Y723819D02*
D03*
Y728937D02*
D03*
X578740Y684449D02*
D03*
Y689567D02*
D03*
X720472Y607677D02*
D03*
Y612795D02*
D03*
X712598Y619488D02*
D03*
Y624606D02*
D03*
Y607677D02*
D03*
Y612795D02*
D03*
X667323Y644291D02*
D03*
Y639173D02*
D03*
Y632480D02*
D03*
Y627362D02*
D03*
X702756Y754528D02*
D03*
Y749409D02*
D03*
X604331Y627362D02*
D03*
Y632480D02*
D03*
X604331Y641142D02*
D03*
Y646260D02*
D03*
X673228Y602953D02*
D03*
Y597835D02*
D03*
X584646Y640354D02*
D03*
Y635236D02*
D03*
D40*
X568504Y703937D02*
D03*
Y685827D02*
D03*
Y694882D02*
D03*
Y743307D02*
D03*
Y725197D02*
D03*
Y734252D02*
D03*
D41*
X545669Y694882D02*
D03*
Y734252D02*
D03*
D42*
X713976Y590551D02*
D03*
X719095D02*
D03*
X713976Y598425D02*
D03*
X719095D02*
D03*
X725787Y590551D02*
D03*
X730905D02*
D03*
X725787Y598425D02*
D03*
X730905D02*
D03*
X698228Y635827D02*
D03*
X703346D02*
D03*
X687598D02*
D03*
X682480D02*
D03*
X635236Y671260D02*
D03*
X640354D02*
D03*
X635236Y663386D02*
D03*
X640354D02*
D03*
X599016Y594488D02*
D03*
X593898D02*
D03*
X605709D02*
D03*
X610827D02*
D03*
X634449Y600394D02*
D03*
X629331D02*
D03*
D43*
X597835Y602658D02*
D03*
X606890D02*
D03*
Y609941D02*
D03*
X597835D02*
D03*
D44*
X650591Y654331D02*
D03*
X648622D02*
D03*
X646654D02*
D03*
X644685D02*
D03*
X642717D02*
D03*
X640748D02*
D03*
X638779D02*
D03*
X636811D02*
D03*
X634842D02*
D03*
X632874D02*
D03*
X630905D02*
D03*
X628937D02*
D03*
X626968D02*
D03*
X625000D02*
D03*
X623032D02*
D03*
X621063D02*
D03*
Y609449D02*
D03*
X623032D02*
D03*
X625000D02*
D03*
X626968D02*
D03*
X628937D02*
D03*
X630905D02*
D03*
X632874D02*
D03*
X634842D02*
D03*
X636811D02*
D03*
X638779D02*
D03*
X640748D02*
D03*
X642717D02*
D03*
X644685D02*
D03*
X646654D02*
D03*
X648622D02*
D03*
X650591D02*
D03*
D45*
X613386Y617126D02*
D03*
Y619095D02*
D03*
Y621063D02*
D03*
Y623032D02*
D03*
Y625000D02*
D03*
Y626968D02*
D03*
Y628937D02*
D03*
Y630905D02*
D03*
Y632874D02*
D03*
Y634842D02*
D03*
Y636811D02*
D03*
Y638779D02*
D03*
Y640748D02*
D03*
Y642717D02*
D03*
Y644685D02*
D03*
Y646654D02*
D03*
X658268Y617126D02*
D03*
Y619095D02*
D03*
Y621063D02*
D03*
Y623032D02*
D03*
Y625000D02*
D03*
Y626968D02*
D03*
Y628937D02*
D03*
Y630905D02*
D03*
Y632874D02*
D03*
Y634842D02*
D03*
Y636811D02*
D03*
Y638779D02*
D03*
Y640748D02*
D03*
Y642717D02*
D03*
Y644685D02*
D03*
Y646654D02*
D03*
D46*
X703386Y627205D02*
D03*
Y622205D02*
D03*
Y617205D02*
D03*
Y612205D02*
D03*
Y607205D02*
D03*
Y602205D02*
D03*
Y597205D02*
D03*
X682441D02*
D03*
Y602205D02*
D03*
Y607205D02*
D03*
Y612205D02*
D03*
Y617205D02*
D03*
Y622205D02*
D03*
Y627205D02*
D03*
D47*
X567520Y763779D02*
D03*
X550591D02*
D03*
D48*
X787480Y760039D02*
D03*
X777480D02*
D03*
X787480Y750039D02*
D03*
X777480D02*
D03*
X787480Y740039D02*
D03*
X777480D02*
D03*
X787480Y730039D02*
D03*
X777480D02*
D03*
X787480Y720039D02*
D03*
X777480D02*
D03*
X787480Y710039D02*
D03*
X777480D02*
D03*
X787480Y700039D02*
D03*
X777480D02*
D03*
X787480Y690039D02*
D03*
X777480D02*
D03*
X787480Y680039D02*
D03*
X777480D02*
D03*
X787480Y670039D02*
D03*
X777480D02*
D03*
X787480Y660039D02*
D03*
X777480D02*
D03*
X787480Y650039D02*
D03*
X777480D02*
D03*
X787480Y640039D02*
D03*
X777480D02*
D03*
X787480Y630039D02*
D03*
X777480D02*
D03*
X787480Y620039D02*
D03*
X777480D02*
D03*
X787480Y610039D02*
D03*
X777480D02*
D03*
D49*
X748032Y622047D02*
D03*
X738189D02*
D03*
X757874D02*
D03*
Y740158D02*
D03*
X738189D02*
D03*
X748032D02*
D03*
Y681102D02*
D03*
X738189D02*
D03*
X757874D02*
D03*
X452756Y740158D02*
D03*
X442913D02*
D03*
X462598D02*
D03*
X452756Y681102D02*
D03*
X442913D02*
D03*
X462598D02*
D03*
X521654Y740158D02*
D03*
X501968D02*
D03*
X511811D02*
D03*
X610236D02*
D03*
X600394D02*
D03*
X620079D02*
D03*
Y681102D02*
D03*
X600394D02*
D03*
X610236D02*
D03*
X511811D02*
D03*
X501968D02*
D03*
X521654D02*
D03*
X678150Y739173D02*
D03*
Y764764D02*
D03*
X660433D02*
D03*
Y739173D02*
D03*
X542323Y650591D02*
D03*
Y625000D02*
D03*
X560039D02*
D03*
Y650591D02*
D03*
X428150Y650591D02*
D03*
Y625000D02*
D03*
X445866D02*
D03*
Y650591D02*
D03*
X572835Y642795D02*
D03*
Y632795D02*
D03*
X690945Y746969D02*
D03*
Y756968D02*
D03*
D50*
X729724Y649606D02*
D03*
X766339D02*
D03*
Y767717D02*
D03*
X729724D02*
D03*
Y708661D02*
D03*
X766339D02*
D03*
X434449Y767717D02*
D03*
X471063D02*
D03*
X434449Y708661D02*
D03*
X471063D02*
D03*
X530118Y767717D02*
D03*
X493504D02*
D03*
X591929D02*
D03*
X628543D02*
D03*
Y708661D02*
D03*
X591929D02*
D03*
X493504D02*
D03*
X530118D02*
D03*
D51*
X460630Y543307D02*
D03*
X535433D02*
D03*
X610236D02*
D03*
X685039D02*
D03*
X759842D02*
D03*
X460630Y468504D02*
D03*
X535433D02*
D03*
X610236D02*
D03*
X685039D02*
D03*
X759842D02*
D03*
D52*
X475630Y533307D02*
D03*
X450630Y523307D02*
D03*
X525433D02*
D03*
X550433Y533307D02*
D03*
X625236D02*
D03*
X600236Y523307D02*
D03*
X675039D02*
D03*
X700039Y533307D02*
D03*
X774843D02*
D03*
X749843Y523307D02*
D03*
X450630Y448504D02*
D03*
X475630Y458504D02*
D03*
X550433D02*
D03*
X525433Y448504D02*
D03*
X600236D02*
D03*
X625236Y458504D02*
D03*
X700039D02*
D03*
X675039Y448504D02*
D03*
X749843D02*
D03*
X774843Y458504D02*
D03*
D53*
X440630Y543307D02*
D03*
X480630D02*
D03*
X555433D02*
D03*
X515433D02*
D03*
X590236D02*
D03*
X630236D02*
D03*
X705039D02*
D03*
X665039D02*
D03*
X739843D02*
D03*
X779843D02*
D03*
X480630Y468504D02*
D03*
X440630D02*
D03*
X515433D02*
D03*
X555433D02*
D03*
X630236D02*
D03*
X590236D02*
D03*
X665039D02*
D03*
X705039D02*
D03*
X779843D02*
D03*
X739843D02*
D03*
D54*
X540551Y816142D02*
D03*
X579528D02*
D03*
D55*
X555118Y812205D02*
D03*
D56*
X541732Y787402D02*
D03*
X555118D02*
D03*
X575591D02*
D03*
D57*
X675197D02*
D03*
X685039D02*
D03*
X655512D02*
D03*
X645669D02*
D03*
D58*
X665354Y807087D02*
D03*
D59*
X413386Y413386D02*
D03*
X807087D02*
D03*
X413386Y807087D02*
D03*
X807087D02*
D03*
M02*
