M48
;Layer_Color=6321
;FILE_FORMAT=2:5
INCH,LZ
;TYPE=PLATED
T3F00S00C0.03150
T6F00S00C0.05906
;TYPE=NON_PLATED
%
G90
G05
T03
G00X0645669Y0788779
M15
G01Y0786024
M16
G00X0655512Y0788779
M15
G01Y0786024
M16
G00X0675197Y0788779
M15
G01Y0786024
M16
G00X0685039Y0788779
M15
G01Y0786024
M16
G00X0663976Y0807087
M15
G01X0666732
M16
G00X0579528Y0819094
M15
G01Y0813189
M16
G00X0575591Y0789764
M15
G01Y0785039
M16
G00X0555118Y0789764
M15
G01Y0785039
M16
G00X0541732Y0789764
M15
G01Y0785039
M16
G00X0540551Y0819094
M15
G01Y0813189
M16
T06
G00X0434449Y070748
M15
G01Y0709842
M16
G00X0434449Y0766535
M15
G01Y0768898
M16
G00X0471063Y0766535
M15
G01Y0768898
M16
G00X0493504Y0766535
M15
G01Y0768898
M16
G00X0530118Y0766535
M15
G01Y0768898
M16
G00X0530118Y070748
M15
G01Y0709842
M16
G00X0493504Y070748
M15
G01Y0709842
M16
G00X0471063Y070748
M15
G01Y0709842
M16
G00X0591929Y070748
M15
G01Y0709842
M16
G00X0591929Y0766535
M15
G01Y0768898
M16
G00X0628543Y0766535
M15
G01Y0768898
M16
G00X0628543Y070748
M15
G01Y0709842
M16
G00X0729724Y070748
M15
G01Y0709842
M16
G00X0766339Y070748
M15
G01Y0709842
M16
G00X0766339Y0766535
M15
G01Y0768898
M16
G00X0729724Y0766535
M15
G01Y0768898
M16
G00X0729724Y0648425
M15
G01Y0650787
M16
G00X0766339Y0648425
M15
G01Y0650787
M16
M17
M30
