G04 Layer_Color=13948096*
%FSLAX25Y25*%
%MOIN*%
G70*
G01*
G75*
G36*
X788193Y566794D02*
X788137Y566650D01*
X788082Y566517D01*
X788032Y566389D01*
X787988Y566273D01*
X787949Y566162D01*
X787915Y566056D01*
X787882Y565962D01*
X787854Y565879D01*
X787832Y565801D01*
X787810Y565740D01*
X787799Y565684D01*
X787788Y565640D01*
X787777Y565612D01*
X787771Y565590D01*
Y565585D01*
X787727Y565374D01*
X787693Y565168D01*
X787666Y564968D01*
X787654Y564874D01*
X787649Y564785D01*
X787643Y564702D01*
X787638Y564630D01*
Y564563D01*
X787632Y564508D01*
Y564463D01*
Y564430D01*
Y564408D01*
Y564402D01*
Y564291D01*
X787638Y564180D01*
X787643Y564080D01*
X787649Y563986D01*
X787660Y563914D01*
X787666Y563853D01*
Y563831D01*
X787671Y563814D01*
Y563808D01*
Y563803D01*
X787704Y563587D01*
X787727Y563481D01*
X787743Y563387D01*
X787760Y563303D01*
X787777Y563242D01*
X787782Y563220D01*
Y563203D01*
X787788Y563193D01*
Y563187D01*
X787815Y563070D01*
X787843Y562965D01*
X787871Y562865D01*
X787893Y562782D01*
X787915Y562715D01*
X787932Y562665D01*
X787943Y562632D01*
X787949Y562626D01*
Y562621D01*
X787988Y562521D01*
X788032Y562404D01*
X788082Y562282D01*
X788132Y562166D01*
X788182Y562060D01*
X788198Y562016D01*
X788221Y561977D01*
X788232Y561944D01*
X788243Y561922D01*
X788254Y561905D01*
Y561899D01*
X787743D01*
X787660Y562027D01*
X787588Y562155D01*
X787521Y562282D01*
X787455Y562404D01*
X787399Y562527D01*
X787344Y562637D01*
X787299Y562748D01*
X787255Y562848D01*
X787216Y562943D01*
X787188Y563026D01*
X787160Y563098D01*
X787138Y563165D01*
X787122Y563215D01*
X787111Y563248D01*
X787100Y563276D01*
Y563281D01*
X787044Y563514D01*
X787000Y563731D01*
X786983Y563831D01*
X786972Y563931D01*
X786955Y564019D01*
X786950Y564103D01*
X786944Y564180D01*
X786939Y564253D01*
X786933Y564314D01*
X786928Y564363D01*
Y564402D01*
Y564436D01*
Y564452D01*
Y564458D01*
X786939Y564702D01*
X786961Y564930D01*
X786977Y565041D01*
X787000Y565152D01*
X787016Y565251D01*
X787039Y565340D01*
X787061Y565429D01*
X787077Y565507D01*
X787100Y565573D01*
X787116Y565629D01*
X787127Y565679D01*
X787138Y565712D01*
X787149Y565734D01*
Y565740D01*
X787238Y565973D01*
X787338Y566195D01*
X787388Y566300D01*
X787438Y566395D01*
X787488Y566489D01*
X787538Y566578D01*
X787582Y566656D01*
X787621Y566728D01*
X787660Y566789D01*
X787693Y566839D01*
X787721Y566883D01*
X787743Y566911D01*
X787754Y566933D01*
X787760Y566939D01*
X788260D01*
X788193Y566794D01*
D02*
G37*
G36*
X794009Y566750D02*
X794126Y566556D01*
X794220Y566373D01*
X794265Y566289D01*
X794303Y566206D01*
X794337Y566134D01*
X794370Y566062D01*
X794398Y566001D01*
X794420Y565951D01*
X794437Y565906D01*
X794448Y565879D01*
X794459Y565857D01*
Y565851D01*
X794503Y565723D01*
X794542Y565596D01*
X794609Y565346D01*
X794653Y565102D01*
X794670Y564991D01*
X794681Y564885D01*
X794692Y564785D01*
X794703Y564697D01*
X794709Y564613D01*
Y564547D01*
X794714Y564491D01*
Y564452D01*
Y564430D01*
Y564419D01*
X794703Y564191D01*
X794681Y563964D01*
X794648Y563753D01*
X794631Y563653D01*
X794609Y563559D01*
X794592Y563476D01*
X794575Y563398D01*
X794559Y563331D01*
X794542Y563270D01*
X794525Y563226D01*
X794520Y563187D01*
X794509Y563165D01*
Y563159D01*
X794420Y562921D01*
X794326Y562687D01*
X794270Y562582D01*
X794220Y562476D01*
X794170Y562377D01*
X794120Y562288D01*
X794076Y562205D01*
X794031Y562127D01*
X793993Y562060D01*
X793959Y562005D01*
X793931Y561960D01*
X793909Y561927D01*
X793898Y561905D01*
X793893Y561899D01*
X793388D01*
X793432Y561994D01*
X793471Y562077D01*
X793504Y562160D01*
X793538Y562232D01*
X793565Y562304D01*
X793593Y562365D01*
X793615Y562421D01*
X793637Y562476D01*
X793660Y562521D01*
X793671Y562560D01*
X793687Y562593D01*
X793698Y562621D01*
X793704Y562643D01*
X793710Y562660D01*
X793715Y562665D01*
Y562671D01*
X793765Y562821D01*
X793810Y562970D01*
X793843Y563115D01*
X793876Y563248D01*
X793887Y563303D01*
X793898Y563359D01*
X793909Y563403D01*
X793915Y563442D01*
X793926Y563476D01*
Y563498D01*
X793931Y563514D01*
Y563520D01*
X793959Y563686D01*
X793976Y563847D01*
X793993Y563997D01*
X793998Y564130D01*
X794004Y564191D01*
Y564241D01*
X794009Y564291D01*
Y564330D01*
Y564358D01*
Y564386D01*
Y564397D01*
Y564402D01*
X794004Y564636D01*
X793987Y564852D01*
X793976Y564957D01*
X793965Y565052D01*
X793954Y565146D01*
X793943Y565229D01*
X793931Y565307D01*
X793920Y565374D01*
X793909Y565435D01*
X793898Y565490D01*
X793887Y565529D01*
X793882Y565562D01*
X793876Y565579D01*
Y565585D01*
X793848Y565690D01*
X793815Y565801D01*
X793743Y566028D01*
X793660Y566256D01*
X793621Y566367D01*
X793576Y566472D01*
X793538Y566567D01*
X793504Y566656D01*
X793471Y566739D01*
X793438Y566806D01*
X793415Y566861D01*
X793399Y566905D01*
X793388Y566928D01*
X793382Y566939D01*
X793887D01*
X794009Y566750D01*
D02*
G37*
G36*
X798499Y566939D02*
X798643Y566922D01*
X798771Y566900D01*
X798882Y566878D01*
X798932Y566861D01*
X798977Y566850D01*
X799010Y566839D01*
X799043Y566828D01*
X799065Y566817D01*
X799082Y566811D01*
X799093Y566806D01*
X799099D01*
X799210Y566750D01*
X799304Y566689D01*
X799387Y566622D01*
X799454Y566561D01*
X799509Y566506D01*
X799543Y566461D01*
X799570Y566428D01*
X799576Y566423D01*
Y566417D01*
X799631Y566323D01*
X799670Y566223D01*
X799698Y566128D01*
X799715Y566045D01*
X799726Y565973D01*
X799737Y565917D01*
Y565895D01*
Y565879D01*
Y565873D01*
Y565868D01*
X799731Y565784D01*
X799720Y565701D01*
X799704Y565629D01*
X799681Y565557D01*
X799626Y565423D01*
X799559Y565307D01*
X799532Y565257D01*
X799498Y565218D01*
X799470Y565179D01*
X799443Y565146D01*
X799420Y565124D01*
X799404Y565107D01*
X799393Y565096D01*
X799387Y565091D01*
X799337Y565052D01*
X799276Y565013D01*
X799215Y564974D01*
X799143Y564941D01*
X799004Y564874D01*
X798860Y564819D01*
X798788Y564796D01*
X798727Y564774D01*
X798666Y564757D01*
X798616Y564741D01*
X798577Y564730D01*
X798544Y564719D01*
X798521Y564713D01*
X798516D01*
X798427Y564691D01*
X798349Y564669D01*
X798277Y564652D01*
X798211Y564636D01*
X798155Y564619D01*
X798105Y564608D01*
X798061Y564591D01*
X798022Y564580D01*
X797989Y564574D01*
X797961Y564563D01*
X797922Y564552D01*
X797900Y564541D01*
X797894D01*
X797822Y564513D01*
X797767Y564486D01*
X797717Y564458D01*
X797678Y564430D01*
X797650Y564408D01*
X797633Y564391D01*
X797622Y564380D01*
X797617Y564375D01*
X797589Y564336D01*
X797567Y564297D01*
X797556Y564258D01*
X797545Y564225D01*
X797539Y564191D01*
X797534Y564164D01*
Y564147D01*
Y564142D01*
X797539Y564064D01*
X797561Y563997D01*
X797594Y563931D01*
X797628Y563875D01*
X797667Y563831D01*
X797694Y563797D01*
X797717Y563775D01*
X797728Y563770D01*
X797806Y563720D01*
X797894Y563681D01*
X797989Y563653D01*
X798077Y563636D01*
X798161Y563625D01*
X798227Y563614D01*
X798288D01*
X798416Y563620D01*
X798527Y563642D01*
X798621Y563670D01*
X798705Y563703D01*
X798771Y563736D01*
X798815Y563764D01*
X798843Y563786D01*
X798854Y563792D01*
X798927Y563869D01*
X798982Y563953D01*
X799032Y564047D01*
X799065Y564142D01*
X799093Y564225D01*
X799115Y564291D01*
X799121Y564314D01*
Y564336D01*
X799126Y564347D01*
Y564352D01*
X799881Y564280D01*
X799864Y564164D01*
X799842Y564053D01*
X799809Y563947D01*
X799781Y563853D01*
X799742Y563764D01*
X799704Y563681D01*
X799665Y563609D01*
X799626Y563542D01*
X799587Y563487D01*
X799548Y563437D01*
X799515Y563392D01*
X799481Y563353D01*
X799459Y563326D01*
X799437Y563309D01*
X799426Y563298D01*
X799420Y563292D01*
X799343Y563231D01*
X799260Y563181D01*
X799171Y563137D01*
X799076Y563098D01*
X798988Y563070D01*
X798893Y563043D01*
X798710Y563004D01*
X798627Y562987D01*
X798549Y562976D01*
X798483Y562970D01*
X798421Y562965D01*
X798372Y562959D01*
X798299D01*
X798122Y562965D01*
X797961Y562982D01*
X797817Y563004D01*
X797755Y563015D01*
X797694Y563031D01*
X797645Y563043D01*
X797600Y563054D01*
X797561Y563065D01*
X797528Y563076D01*
X797500Y563087D01*
X797484Y563093D01*
X797472Y563098D01*
X797467D01*
X797345Y563159D01*
X797245Y563226D01*
X797151Y563292D01*
X797078Y563365D01*
X797023Y563426D01*
X796979Y563481D01*
X796956Y563514D01*
X796945Y563520D01*
Y563525D01*
X796884Y563636D01*
X796834Y563742D01*
X796801Y563847D01*
X796779Y563947D01*
X796768Y564025D01*
X796762Y564064D01*
X796757Y564092D01*
Y564114D01*
Y564130D01*
Y564142D01*
Y564147D01*
X796762Y564280D01*
X796779Y564397D01*
X796806Y564502D01*
X796834Y564591D01*
X796862Y564663D01*
X796890Y564713D01*
X796906Y564747D01*
X796912Y564757D01*
X796973Y564846D01*
X797045Y564924D01*
X797117Y564991D01*
X797184Y565046D01*
X797245Y565091D01*
X797295Y565124D01*
X797328Y565146D01*
X797334Y565152D01*
X797339D01*
X797395Y565179D01*
X797450Y565207D01*
X797583Y565257D01*
X797722Y565302D01*
X797855Y565346D01*
X797916Y565363D01*
X797977Y565379D01*
X798033Y565396D01*
X798077Y565407D01*
X798116Y565418D01*
X798144Y565423D01*
X798166Y565429D01*
X798172D01*
X798272Y565457D01*
X798360Y565479D01*
X798444Y565501D01*
X798521Y565523D01*
X798582Y565546D01*
X798643Y565568D01*
X798694Y565590D01*
X798738Y565607D01*
X798777Y565623D01*
X798804Y565640D01*
X798832Y565651D01*
X798849Y565662D01*
X798877Y565679D01*
X798882Y565684D01*
X798921Y565723D01*
X798949Y565762D01*
X798965Y565801D01*
X798977Y565840D01*
X798988Y565868D01*
X798993Y565895D01*
Y565912D01*
Y565917D01*
X798988Y565973D01*
X798977Y566017D01*
X798954Y566062D01*
X798932Y566095D01*
X798910Y566123D01*
X798888Y566140D01*
X798877Y566151D01*
X798871Y566156D01*
X798793Y566206D01*
X798710Y566239D01*
X798621Y566267D01*
X798538Y566284D01*
X798466Y566295D01*
X798405Y566300D01*
X798349D01*
X798233Y566295D01*
X798133Y566278D01*
X798050Y566256D01*
X797983Y566234D01*
X797928Y566212D01*
X797889Y566189D01*
X797866Y566173D01*
X797861Y566167D01*
X797806Y566112D01*
X797755Y566045D01*
X797717Y565978D01*
X797689Y565906D01*
X797667Y565845D01*
X797656Y565795D01*
X797645Y565757D01*
Y565751D01*
Y565745D01*
X796868Y565773D01*
X796873Y565873D01*
X796890Y565962D01*
X796912Y566051D01*
X796940Y566128D01*
X796967Y566206D01*
X797001Y566278D01*
X797034Y566339D01*
X797067Y566400D01*
X797106Y566450D01*
X797140Y566495D01*
X797173Y566534D01*
X797200Y566567D01*
X797223Y566589D01*
X797239Y566606D01*
X797251Y566617D01*
X797256Y566622D01*
X797328Y566678D01*
X797406Y566728D01*
X797489Y566772D01*
X797578Y566811D01*
X797667Y566839D01*
X797755Y566867D01*
X797933Y566905D01*
X798016Y566917D01*
X798089Y566928D01*
X798161Y566933D01*
X798222Y566939D01*
X798272Y566944D01*
X798338D01*
X798499Y566939D01*
D02*
G37*
G36*
X806968Y643032D02*
X806252D01*
Y645562D01*
X804693Y643032D01*
X803916D01*
Y646872D01*
X804632D01*
Y644286D01*
X806219Y646872D01*
X806968D01*
Y643032D01*
D02*
G37*
G36*
X797706Y656939D02*
X797850Y656922D01*
X797977Y656894D01*
X798105Y656861D01*
X798216Y656822D01*
X798327Y656778D01*
X798421Y656728D01*
X798510Y656678D01*
X798594Y656628D01*
X798660Y656578D01*
X798721Y656534D01*
X798771Y656495D01*
X798810Y656461D01*
X798838Y656434D01*
X798854Y656417D01*
X798860Y656411D01*
X798949Y656306D01*
X799021Y656195D01*
X799087Y656078D01*
X799143Y655956D01*
X799193Y655829D01*
X799232Y655707D01*
X799265Y655584D01*
X799293Y655468D01*
X799315Y655351D01*
X799326Y655252D01*
X799337Y655157D01*
X799348Y655079D01*
Y655013D01*
X799354Y654963D01*
Y654930D01*
Y654924D01*
Y654918D01*
X799348Y654752D01*
X799332Y654597D01*
X799309Y654447D01*
X799276Y654314D01*
X799243Y654186D01*
X799198Y654064D01*
X799154Y653958D01*
X799110Y653864D01*
X799065Y653775D01*
X799021Y653697D01*
X798977Y653636D01*
X798943Y653581D01*
X798910Y653542D01*
X798888Y653509D01*
X798871Y653492D01*
X798866Y653487D01*
X798771Y653392D01*
X798671Y653314D01*
X798566Y653242D01*
X798460Y653187D01*
X798355Y653137D01*
X798249Y653093D01*
X798149Y653059D01*
X798055Y653031D01*
X797961Y653009D01*
X797878Y652993D01*
X797800Y652982D01*
X797739Y652976D01*
X797683Y652970D01*
X797645Y652965D01*
X797611D01*
X797495Y652970D01*
X797389Y652976D01*
X797284Y652993D01*
X797189Y653015D01*
X797101Y653037D01*
X797017Y653059D01*
X796940Y653087D01*
X796868Y653120D01*
X796806Y653148D01*
X796751Y653176D01*
X796701Y653198D01*
X796662Y653220D01*
X796629Y653242D01*
X796607Y653259D01*
X796596Y653265D01*
X796590Y653270D01*
X796518Y653331D01*
X796451Y653398D01*
X796329Y653548D01*
X796229Y653703D01*
X796152Y653853D01*
X796118Y653925D01*
X796091Y653992D01*
X796068Y654053D01*
X796046Y654103D01*
X796029Y654147D01*
X796018Y654180D01*
X796013Y654203D01*
Y654208D01*
X796768Y654441D01*
X796812Y654291D01*
X796862Y654164D01*
X796912Y654058D01*
X796967Y653969D01*
X797012Y653903D01*
X797051Y653858D01*
X797078Y653831D01*
X797089Y653820D01*
X797178Y653753D01*
X797267Y653709D01*
X797356Y653675D01*
X797434Y653648D01*
X797506Y653636D01*
X797567Y653631D01*
X797589Y653625D01*
X797617D01*
X797694Y653631D01*
X797767Y653636D01*
X797900Y653675D01*
X798016Y653720D01*
X798111Y653781D01*
X798188Y653836D01*
X798244Y653881D01*
X798266Y653903D01*
X798283Y653920D01*
X798288Y653925D01*
X798294Y653931D01*
X798338Y653992D01*
X798377Y654064D01*
X798416Y654142D01*
X798444Y654225D01*
X798488Y654397D01*
X798521Y654569D01*
X798532Y654652D01*
X798538Y654724D01*
X798549Y654796D01*
Y654857D01*
X798555Y654902D01*
Y654941D01*
Y654969D01*
Y654974D01*
X798549Y655102D01*
X798544Y655218D01*
X798532Y655324D01*
X798516Y655423D01*
X798494Y655512D01*
X798471Y655596D01*
X798449Y655668D01*
X798421Y655734D01*
X798399Y655790D01*
X798377Y655840D01*
X798355Y655879D01*
X798333Y655912D01*
X798316Y655940D01*
X798305Y655956D01*
X798294Y655968D01*
Y655973D01*
X798244Y656029D01*
X798188Y656078D01*
X798133Y656117D01*
X798072Y656151D01*
X797955Y656206D01*
X797844Y656245D01*
X797750Y656267D01*
X797706Y656273D01*
X797672Y656278D01*
X797639Y656284D01*
X797600D01*
X797489Y656278D01*
X797389Y656256D01*
X797300Y656228D01*
X797223Y656195D01*
X797162Y656162D01*
X797117Y656134D01*
X797089Y656112D01*
X797078Y656106D01*
X797006Y656040D01*
X796940Y655962D01*
X796890Y655884D01*
X796851Y655806D01*
X796823Y655740D01*
X796806Y655690D01*
X796795Y655668D01*
Y655651D01*
X796790Y655646D01*
Y655640D01*
X796024Y655823D01*
X796079Y655984D01*
X796140Y656123D01*
X796207Y656245D01*
X796268Y656345D01*
X796329Y656423D01*
X796351Y656456D01*
X796374Y656484D01*
X796390Y656500D01*
X796407Y656517D01*
X796412Y656528D01*
X796418D01*
X796501Y656600D01*
X796596Y656667D01*
X796684Y656722D01*
X796779Y656767D01*
X796879Y656811D01*
X796973Y656844D01*
X797067Y656872D01*
X797156Y656894D01*
X797239Y656911D01*
X797317Y656922D01*
X797384Y656933D01*
X797445Y656939D01*
X797495Y656944D01*
X797561D01*
X797706Y656939D01*
D02*
G37*
G36*
X803494Y642965D02*
X802950D01*
X801990Y646939D01*
X802545D01*
X803494Y642965D01*
D02*
G37*
G36*
X800092Y646939D02*
X800236Y646922D01*
X800364Y646894D01*
X800492Y646861D01*
X800603Y646822D01*
X800714Y646778D01*
X800808Y646728D01*
X800897Y646678D01*
X800980Y646628D01*
X801047Y646578D01*
X801108Y646534D01*
X801158Y646495D01*
X801196Y646461D01*
X801224Y646434D01*
X801241Y646417D01*
X801246Y646411D01*
X801335Y646306D01*
X801407Y646195D01*
X801474Y646078D01*
X801530Y645956D01*
X801579Y645829D01*
X801618Y645707D01*
X801652Y645584D01*
X801679Y645468D01*
X801702Y645351D01*
X801713Y645252D01*
X801724Y645157D01*
X801735Y645079D01*
Y645013D01*
X801740Y644963D01*
Y644930D01*
Y644924D01*
Y644918D01*
X801735Y644752D01*
X801718Y644597D01*
X801696Y644447D01*
X801663Y644314D01*
X801629Y644186D01*
X801585Y644064D01*
X801541Y643958D01*
X801496Y643864D01*
X801452Y643775D01*
X801407Y643698D01*
X801363Y643636D01*
X801330Y643581D01*
X801296Y643542D01*
X801274Y643509D01*
X801258Y643492D01*
X801252Y643487D01*
X801158Y643392D01*
X801058Y643315D01*
X800952Y643242D01*
X800847Y643187D01*
X800741Y643137D01*
X800636Y643093D01*
X800536Y643059D01*
X800442Y643032D01*
X800347Y643009D01*
X800264Y642993D01*
X800186Y642981D01*
X800125Y642976D01*
X800070Y642970D01*
X800031Y642965D01*
X799998D01*
X799881Y642970D01*
X799776Y642976D01*
X799670Y642993D01*
X799576Y643015D01*
X799487Y643037D01*
X799404Y643059D01*
X799326Y643087D01*
X799254Y643120D01*
X799193Y643148D01*
X799137Y643176D01*
X799087Y643198D01*
X799049Y643220D01*
X799015Y643242D01*
X798993Y643259D01*
X798982Y643265D01*
X798977Y643270D01*
X798904Y643331D01*
X798838Y643398D01*
X798716Y643548D01*
X798616Y643703D01*
X798538Y643853D01*
X798505Y643925D01*
X798477Y643992D01*
X798455Y644053D01*
X798433Y644103D01*
X798416Y644147D01*
X798405Y644180D01*
X798399Y644203D01*
Y644208D01*
X799154Y644441D01*
X799198Y644291D01*
X799248Y644164D01*
X799298Y644058D01*
X799354Y643969D01*
X799398Y643903D01*
X799437Y643858D01*
X799465Y643831D01*
X799476Y643820D01*
X799565Y643753D01*
X799654Y643709D01*
X799742Y643675D01*
X799820Y643647D01*
X799892Y643636D01*
X799953Y643631D01*
X799975Y643625D01*
X800003D01*
X800081Y643631D01*
X800153Y643636D01*
X800286Y643675D01*
X800403Y643720D01*
X800497Y643781D01*
X800575Y643836D01*
X800630Y643881D01*
X800653Y643903D01*
X800669Y643920D01*
X800675Y643925D01*
X800680Y643931D01*
X800725Y643992D01*
X800764Y644064D01*
X800803Y644141D01*
X800830Y644225D01*
X800875Y644397D01*
X800908Y644569D01*
X800919Y644652D01*
X800924Y644724D01*
X800936Y644796D01*
Y644857D01*
X800941Y644902D01*
Y644941D01*
Y644969D01*
Y644974D01*
X800936Y645102D01*
X800930Y645218D01*
X800919Y645324D01*
X800902Y645424D01*
X800880Y645512D01*
X800858Y645596D01*
X800836Y645668D01*
X800808Y645734D01*
X800786Y645790D01*
X800764Y645840D01*
X800741Y645879D01*
X800719Y645912D01*
X800702Y645940D01*
X800691Y645956D01*
X800680Y645967D01*
Y645973D01*
X800630Y646029D01*
X800575Y646078D01*
X800519Y646117D01*
X800458Y646151D01*
X800342Y646206D01*
X800231Y646245D01*
X800136Y646267D01*
X800092Y646273D01*
X800059Y646278D01*
X800025Y646284D01*
X799987D01*
X799876Y646278D01*
X799776Y646256D01*
X799687Y646228D01*
X799609Y646195D01*
X799548Y646162D01*
X799504Y646134D01*
X799476Y646112D01*
X799465Y646106D01*
X799393Y646040D01*
X799326Y645962D01*
X799276Y645884D01*
X799237Y645807D01*
X799210Y645740D01*
X799193Y645690D01*
X799182Y645668D01*
Y645651D01*
X799176Y645646D01*
Y645640D01*
X798410Y645823D01*
X798466Y645984D01*
X798527Y646123D01*
X798594Y646245D01*
X798655Y646345D01*
X798716Y646422D01*
X798738Y646456D01*
X798760Y646484D01*
X798777Y646500D01*
X798793Y646517D01*
X798799Y646528D01*
X798804D01*
X798888Y646600D01*
X798982Y646667D01*
X799071Y646722D01*
X799165Y646767D01*
X799265Y646811D01*
X799360Y646844D01*
X799454Y646872D01*
X799543Y646894D01*
X799626Y646911D01*
X799704Y646922D01*
X799770Y646933D01*
X799831Y646939D01*
X799881Y646944D01*
X799948D01*
X800092Y646939D01*
D02*
G37*
G36*
X787466Y576794D02*
X787410Y576650D01*
X787355Y576517D01*
X787305Y576389D01*
X787260Y576273D01*
X787222Y576162D01*
X787188Y576056D01*
X787155Y575962D01*
X787127Y575879D01*
X787105Y575801D01*
X787083Y575740D01*
X787072Y575684D01*
X787061Y575640D01*
X787049Y575612D01*
X787044Y575590D01*
Y575585D01*
X787000Y575374D01*
X786966Y575168D01*
X786939Y574968D01*
X786928Y574874D01*
X786922Y574785D01*
X786916Y574702D01*
X786911Y574630D01*
Y574563D01*
X786905Y574508D01*
Y574463D01*
Y574430D01*
Y574408D01*
Y574402D01*
Y574291D01*
X786911Y574180D01*
X786916Y574081D01*
X786922Y573986D01*
X786933Y573914D01*
X786939Y573853D01*
Y573831D01*
X786944Y573814D01*
Y573808D01*
Y573803D01*
X786977Y573587D01*
X787000Y573481D01*
X787016Y573387D01*
X787033Y573303D01*
X787049Y573242D01*
X787055Y573220D01*
Y573204D01*
X787061Y573193D01*
Y573187D01*
X787088Y573070D01*
X787116Y572965D01*
X787144Y572865D01*
X787166Y572782D01*
X787188Y572715D01*
X787205Y572665D01*
X787216Y572632D01*
X787222Y572626D01*
Y572621D01*
X787260Y572521D01*
X787305Y572404D01*
X787355Y572282D01*
X787405Y572166D01*
X787455Y572060D01*
X787471Y572016D01*
X787494Y571977D01*
X787505Y571944D01*
X787516Y571921D01*
X787527Y571905D01*
Y571899D01*
X787016D01*
X786933Y572027D01*
X786861Y572155D01*
X786794Y572282D01*
X786728Y572404D01*
X786672Y572527D01*
X786617Y572637D01*
X786572Y572748D01*
X786528Y572848D01*
X786489Y572943D01*
X786461Y573026D01*
X786434Y573098D01*
X786411Y573165D01*
X786395Y573215D01*
X786384Y573248D01*
X786373Y573276D01*
Y573281D01*
X786317Y573514D01*
X786272Y573731D01*
X786256Y573831D01*
X786245Y573931D01*
X786228Y574019D01*
X786223Y574103D01*
X786217Y574180D01*
X786211Y574253D01*
X786206Y574314D01*
X786200Y574364D01*
Y574402D01*
Y574436D01*
Y574452D01*
Y574458D01*
X786211Y574702D01*
X786234Y574930D01*
X786250Y575041D01*
X786272Y575152D01*
X786289Y575251D01*
X786311Y575340D01*
X786334Y575429D01*
X786350Y575507D01*
X786373Y575573D01*
X786389Y575629D01*
X786400Y575679D01*
X786411Y575712D01*
X786422Y575734D01*
Y575740D01*
X786511Y575973D01*
X786611Y576195D01*
X786661Y576300D01*
X786711Y576395D01*
X786761Y576489D01*
X786811Y576578D01*
X786855Y576656D01*
X786894Y576728D01*
X786933Y576789D01*
X786966Y576839D01*
X786994Y576883D01*
X787016Y576911D01*
X787027Y576933D01*
X787033Y576939D01*
X787532D01*
X787466Y576794D01*
D02*
G37*
G36*
X797750Y576750D02*
X797866Y576556D01*
X797961Y576373D01*
X798005Y576289D01*
X798044Y576206D01*
X798077Y576134D01*
X798111Y576062D01*
X798139Y576001D01*
X798161Y575951D01*
X798177Y575906D01*
X798188Y575879D01*
X798200Y575856D01*
Y575851D01*
X798244Y575723D01*
X798283Y575596D01*
X798349Y575346D01*
X798394Y575102D01*
X798410Y574991D01*
X798421Y574885D01*
X798433Y574785D01*
X798444Y574696D01*
X798449Y574613D01*
Y574547D01*
X798455Y574491D01*
Y574452D01*
Y574430D01*
Y574419D01*
X798444Y574191D01*
X798421Y573964D01*
X798388Y573753D01*
X798372Y573653D01*
X798349Y573559D01*
X798333Y573476D01*
X798316Y573398D01*
X798299Y573331D01*
X798283Y573270D01*
X798266Y573226D01*
X798260Y573187D01*
X798249Y573165D01*
Y573159D01*
X798161Y572921D01*
X798066Y572687D01*
X798011Y572582D01*
X797961Y572476D01*
X797911Y572377D01*
X797861Y572288D01*
X797817Y572205D01*
X797772Y572127D01*
X797733Y572060D01*
X797700Y572005D01*
X797672Y571960D01*
X797650Y571927D01*
X797639Y571905D01*
X797633Y571899D01*
X797128D01*
X797173Y571994D01*
X797212Y572077D01*
X797245Y572160D01*
X797278Y572232D01*
X797306Y572304D01*
X797334Y572366D01*
X797356Y572421D01*
X797378Y572476D01*
X797400Y572521D01*
X797411Y572560D01*
X797428Y572593D01*
X797439Y572621D01*
X797445Y572643D01*
X797450Y572660D01*
X797456Y572665D01*
Y572671D01*
X797506Y572821D01*
X797550Y572970D01*
X797583Y573115D01*
X797617Y573248D01*
X797628Y573303D01*
X797639Y573359D01*
X797650Y573403D01*
X797656Y573442D01*
X797667Y573476D01*
Y573498D01*
X797672Y573514D01*
Y573520D01*
X797700Y573686D01*
X797717Y573847D01*
X797733Y573997D01*
X797739Y574130D01*
X797744Y574191D01*
Y574241D01*
X797750Y574291D01*
Y574330D01*
Y574358D01*
Y574386D01*
Y574397D01*
Y574402D01*
X797744Y574636D01*
X797728Y574852D01*
X797717Y574957D01*
X797706Y575052D01*
X797694Y575146D01*
X797683Y575229D01*
X797672Y575307D01*
X797661Y575374D01*
X797650Y575435D01*
X797639Y575490D01*
X797628Y575529D01*
X797622Y575562D01*
X797617Y575579D01*
Y575585D01*
X797589Y575690D01*
X797556Y575801D01*
X797484Y576028D01*
X797400Y576256D01*
X797361Y576367D01*
X797317Y576473D01*
X797278Y576567D01*
X797245Y576656D01*
X797212Y576739D01*
X797178Y576805D01*
X797156Y576861D01*
X797140Y576905D01*
X797128Y576928D01*
X797123Y576939D01*
X797628D01*
X797750Y576750D01*
D02*
G37*
G36*
X795030Y576939D02*
X795191Y576922D01*
X795330Y576894D01*
X795452Y576867D01*
X795502Y576850D01*
X795552Y576839D01*
X795591Y576828D01*
X795624Y576811D01*
X795652Y576805D01*
X795674Y576794D01*
X795685Y576789D01*
X795691D01*
X795791Y576744D01*
X795885Y576689D01*
X795968Y576628D01*
X796040Y576572D01*
X796102Y576522D01*
X796152Y576478D01*
X796179Y576450D01*
X796185Y576445D01*
X796190Y576439D01*
X796268Y576350D01*
X796340Y576256D01*
X796401Y576173D01*
X796451Y576089D01*
X796490Y576017D01*
X796523Y575962D01*
X796529Y575940D01*
X796540Y575923D01*
X796546Y575917D01*
Y575912D01*
X796601Y575757D01*
X796645Y575590D01*
X796673Y575423D01*
X796695Y575268D01*
X796701Y575196D01*
X796706Y575129D01*
X796712Y575074D01*
Y575024D01*
X796718Y574980D01*
Y574952D01*
Y574930D01*
Y574924D01*
X796712Y574757D01*
X796695Y574597D01*
X796673Y574447D01*
X796640Y574308D01*
X796601Y574180D01*
X796557Y574064D01*
X796512Y573953D01*
X796462Y573858D01*
X796418Y573770D01*
X796374Y573698D01*
X796329Y573631D01*
X796290Y573575D01*
X796257Y573536D01*
X796235Y573503D01*
X796218Y573487D01*
X796213Y573481D01*
X796113Y573387D01*
X796007Y573309D01*
X795902Y573237D01*
X795785Y573181D01*
X795674Y573131D01*
X795558Y573087D01*
X795452Y573054D01*
X795341Y573026D01*
X795241Y573004D01*
X795147Y572987D01*
X795064Y572976D01*
X794992Y572970D01*
X794936Y572965D01*
X794892Y572959D01*
X794853D01*
X794698Y572965D01*
X794553Y572982D01*
X794414Y573009D01*
X794287Y573043D01*
X794165Y573081D01*
X794054Y573126D01*
X793954Y573170D01*
X793859Y573220D01*
X793782Y573270D01*
X793710Y573315D01*
X793648Y573359D01*
X793599Y573398D01*
X793554Y573431D01*
X793526Y573459D01*
X793510Y573476D01*
X793504Y573481D01*
X793415Y573587D01*
X793338Y573698D01*
X793265Y573814D01*
X793210Y573931D01*
X793160Y574053D01*
X793116Y574175D01*
X793082Y574297D01*
X793055Y574413D01*
X793038Y574519D01*
X793021Y574624D01*
X793010Y574713D01*
X792999Y574791D01*
Y574857D01*
X792994Y574907D01*
Y574935D01*
Y574946D01*
X792999Y575118D01*
X793016Y575279D01*
X793038Y575429D01*
X793071Y575573D01*
X793110Y575701D01*
X793155Y575823D01*
X793199Y575934D01*
X793249Y576028D01*
X793299Y576117D01*
X793343Y576195D01*
X793388Y576262D01*
X793427Y576317D01*
X793454Y576356D01*
X793482Y576389D01*
X793499Y576406D01*
X793504Y576411D01*
X793604Y576506D01*
X793710Y576589D01*
X793821Y576661D01*
X793931Y576722D01*
X794048Y576772D01*
X794159Y576817D01*
X794270Y576850D01*
X794376Y576878D01*
X794476Y576900D01*
X794570Y576917D01*
X794653Y576928D01*
X794725Y576939D01*
X794781D01*
X794825Y576944D01*
X794864D01*
X795030Y576939D01*
D02*
G37*
G36*
X805320Y566939D02*
X805464Y566922D01*
X805592Y566894D01*
X805720Y566861D01*
X805831Y566822D01*
X805942Y566778D01*
X806036Y566728D01*
X806125Y566678D01*
X806208Y566628D01*
X806275Y566578D01*
X806336Y566534D01*
X806386Y566495D01*
X806425Y566461D01*
X806452Y566434D01*
X806469Y566417D01*
X806474Y566411D01*
X806563Y566306D01*
X806635Y566195D01*
X806702Y566078D01*
X806758Y565956D01*
X806808Y565829D01*
X806846Y565707D01*
X806880Y565585D01*
X806907Y565468D01*
X806930Y565351D01*
X806941Y565251D01*
X806952Y565157D01*
X806963Y565079D01*
Y565013D01*
X806968Y564963D01*
Y564930D01*
Y564924D01*
Y564919D01*
X806963Y564752D01*
X806946Y564597D01*
X806924Y564447D01*
X806891Y564314D01*
X806857Y564186D01*
X806813Y564064D01*
X806769Y563958D01*
X806724Y563864D01*
X806680Y563775D01*
X806635Y563697D01*
X806591Y563636D01*
X806558Y563581D01*
X806524Y563542D01*
X806502Y563509D01*
X806486Y563492D01*
X806480Y563487D01*
X806386Y563392D01*
X806286Y563314D01*
X806180Y563242D01*
X806075Y563187D01*
X805970Y563137D01*
X805864Y563093D01*
X805764Y563059D01*
X805670Y563031D01*
X805575Y563009D01*
X805492Y562993D01*
X805414Y562982D01*
X805353Y562976D01*
X805298Y562970D01*
X805259Y562965D01*
X805226D01*
X805109Y562970D01*
X805004Y562976D01*
X804898Y562993D01*
X804804Y563015D01*
X804715Y563037D01*
X804632Y563059D01*
X804554Y563087D01*
X804482Y563120D01*
X804421Y563148D01*
X804366Y563176D01*
X804316Y563198D01*
X804277Y563220D01*
X804243Y563242D01*
X804221Y563259D01*
X804210Y563265D01*
X804205Y563270D01*
X804132Y563331D01*
X804066Y563398D01*
X803944Y563548D01*
X803844Y563703D01*
X803766Y563853D01*
X803733Y563925D01*
X803705Y563992D01*
X803683Y564053D01*
X803661Y564103D01*
X803644Y564147D01*
X803633Y564180D01*
X803627Y564202D01*
Y564208D01*
X804382Y564441D01*
X804427Y564291D01*
X804477Y564164D01*
X804527Y564058D01*
X804582Y563969D01*
X804626Y563903D01*
X804665Y563858D01*
X804693Y563831D01*
X804704Y563820D01*
X804793Y563753D01*
X804882Y563709D01*
X804970Y563675D01*
X805048Y563648D01*
X805120Y563636D01*
X805181Y563631D01*
X805204Y563625D01*
X805231D01*
X805309Y563631D01*
X805381Y563636D01*
X805514Y563675D01*
X805631Y563720D01*
X805725Y563781D01*
X805803Y563836D01*
X805859Y563881D01*
X805881Y563903D01*
X805897Y563919D01*
X805903Y563925D01*
X805908Y563931D01*
X805953Y563992D01*
X805992Y564064D01*
X806031Y564142D01*
X806058Y564225D01*
X806103Y564397D01*
X806136Y564569D01*
X806147Y564652D01*
X806153Y564724D01*
X806164Y564796D01*
Y564857D01*
X806169Y564902D01*
Y564941D01*
Y564968D01*
Y564974D01*
X806164Y565102D01*
X806158Y565218D01*
X806147Y565324D01*
X806131Y565423D01*
X806108Y565512D01*
X806086Y565596D01*
X806064Y565668D01*
X806036Y565734D01*
X806014Y565790D01*
X805992Y565840D01*
X805970Y565879D01*
X805947Y565912D01*
X805931Y565940D01*
X805919Y565956D01*
X805908Y565968D01*
Y565973D01*
X805859Y566028D01*
X805803Y566078D01*
X805748Y566117D01*
X805686Y566151D01*
X805570Y566206D01*
X805459Y566245D01*
X805365Y566267D01*
X805320Y566273D01*
X805287Y566278D01*
X805254Y566284D01*
X805215D01*
X805104Y566278D01*
X805004Y566256D01*
X804915Y566228D01*
X804837Y566195D01*
X804776Y566162D01*
X804732Y566134D01*
X804704Y566112D01*
X804693Y566106D01*
X804621Y566040D01*
X804554Y565962D01*
X804504Y565884D01*
X804465Y565806D01*
X804438Y565740D01*
X804421Y565690D01*
X804410Y565668D01*
Y565651D01*
X804404Y565646D01*
Y565640D01*
X803638Y565823D01*
X803694Y565984D01*
X803755Y566123D01*
X803822Y566245D01*
X803883Y566345D01*
X803944Y566423D01*
X803966Y566456D01*
X803988Y566484D01*
X804005Y566500D01*
X804021Y566517D01*
X804027Y566528D01*
X804033D01*
X804116Y566600D01*
X804210Y566667D01*
X804299Y566722D01*
X804393Y566767D01*
X804493Y566811D01*
X804588Y566844D01*
X804682Y566872D01*
X804771Y566894D01*
X804854Y566911D01*
X804932Y566922D01*
X804998Y566933D01*
X805059Y566939D01*
X805109Y566944D01*
X805176D01*
X805320Y566939D01*
D02*
G37*
G36*
X789841Y565873D02*
X789941Y565857D01*
X790030Y565834D01*
X790119Y565806D01*
X790202Y565768D01*
X790274Y565729D01*
X790346Y565684D01*
X790407Y565646D01*
X790463Y565601D01*
X790513Y565557D01*
X790557Y565518D01*
X790590Y565479D01*
X790618Y565451D01*
X790640Y565429D01*
X790652Y565412D01*
X790657Y565407D01*
Y565818D01*
X791340D01*
Y563031D01*
X790602D01*
Y564286D01*
Y564369D01*
Y564447D01*
X790596Y564519D01*
X790590Y564580D01*
Y564641D01*
X790585Y564691D01*
X790579Y564741D01*
X790574Y564780D01*
X790563Y564846D01*
X790557Y564891D01*
X790546Y564919D01*
Y564924D01*
X790524Y564985D01*
X790490Y565046D01*
X790457Y565091D01*
X790424Y565135D01*
X790391Y565163D01*
X790363Y565190D01*
X790346Y565202D01*
X790341Y565207D01*
X790280Y565240D01*
X790219Y565268D01*
X790163Y565285D01*
X790108Y565302D01*
X790063Y565307D01*
X790030Y565313D01*
X789997D01*
X789941Y565307D01*
X789891Y565302D01*
X789852Y565290D01*
X789814Y565274D01*
X789780Y565257D01*
X789758Y565246D01*
X789747Y565240D01*
X789741Y565235D01*
X789703Y565207D01*
X789675Y565174D01*
X789625Y565107D01*
X789608Y565074D01*
X789597Y565052D01*
X789586Y565035D01*
Y565029D01*
X789575Y565002D01*
X789569Y564968D01*
X789558Y564885D01*
X789547Y564785D01*
X789541Y564691D01*
X789536Y564597D01*
Y564558D01*
Y564519D01*
Y564491D01*
Y564469D01*
Y564452D01*
Y564447D01*
Y563031D01*
X788798D01*
Y564757D01*
Y564874D01*
X788803Y564968D01*
X788809Y565057D01*
X788820Y565124D01*
X788826Y565179D01*
X788837Y565218D01*
X788842Y565246D01*
Y565251D01*
X788859Y565318D01*
X788881Y565374D01*
X788903Y565429D01*
X788931Y565474D01*
X788953Y565512D01*
X788970Y565540D01*
X788981Y565557D01*
X788986Y565562D01*
X789031Y565612D01*
X789081Y565657D01*
X789131Y565695D01*
X789181Y565729D01*
X789225Y565757D01*
X789264Y565773D01*
X789286Y565784D01*
X789297Y565790D01*
X789375Y565818D01*
X789453Y565840D01*
X789525Y565857D01*
X789591Y565868D01*
X789652Y565873D01*
X789703Y565879D01*
X789741D01*
X789841Y565873D01*
D02*
G37*
G36*
X792844Y563031D02*
X792067D01*
Y566872D01*
X792844D01*
Y563031D01*
D02*
G37*
G36*
X803228Y566223D02*
X802090D01*
Y563031D01*
X801313D01*
Y566223D01*
X800181D01*
Y566872D01*
X803228D01*
Y566223D01*
D02*
G37*
G36*
X801824Y656939D02*
X802001Y656917D01*
X802079Y656900D01*
X802157Y656883D01*
X802229Y656867D01*
X802290Y656850D01*
X802345Y656828D01*
X802401Y656811D01*
X802440Y656794D01*
X802479Y656783D01*
X802506Y656767D01*
X802528Y656761D01*
X802540Y656750D01*
X802545D01*
X802717Y656650D01*
X802789Y656589D01*
X802861Y656534D01*
X802928Y656472D01*
X802989Y656411D01*
X803045Y656350D01*
X803095Y656295D01*
X803133Y656239D01*
X803172Y656189D01*
X803206Y656145D01*
X803233Y656106D01*
X803250Y656073D01*
X803267Y656051D01*
X803272Y656034D01*
X803278Y656029D01*
X803322Y655940D01*
X803361Y655851D01*
X803422Y655668D01*
X803466Y655485D01*
X803494Y655324D01*
X803505Y655246D01*
X803516Y655179D01*
X803522Y655118D01*
Y655063D01*
X803528Y655024D01*
Y654991D01*
Y654969D01*
Y654963D01*
X803516Y654757D01*
X803494Y654569D01*
X803455Y654397D01*
X803439Y654314D01*
X803417Y654241D01*
X803394Y654175D01*
X803378Y654114D01*
X803356Y654064D01*
X803339Y654019D01*
X803328Y653986D01*
X803317Y653958D01*
X803306Y653942D01*
Y653936D01*
X803211Y653770D01*
X803106Y653625D01*
X802995Y653498D01*
X802884Y653398D01*
X802834Y653353D01*
X802784Y653314D01*
X802745Y653281D01*
X802706Y653259D01*
X802678Y653237D01*
X802651Y653220D01*
X802639Y653215D01*
X802634Y653209D01*
X802545Y653165D01*
X802462Y653126D01*
X802279Y653065D01*
X802101Y653020D01*
X801940Y652993D01*
X801863Y652982D01*
X801796Y652970D01*
X801735Y652965D01*
X801679D01*
X801641Y652959D01*
X801579D01*
X801402Y652965D01*
X801235Y652987D01*
X801074Y653015D01*
X800936Y653048D01*
X800875Y653065D01*
X800819Y653082D01*
X800769Y653098D01*
X800725Y653109D01*
X800691Y653120D01*
X800669Y653131D01*
X800653Y653137D01*
X800647D01*
X800481Y653203D01*
X800342Y653276D01*
X800220Y653348D01*
X800114Y653409D01*
X800037Y653464D01*
X800009Y653487D01*
X799981Y653509D01*
X799964Y653525D01*
X799948Y653537D01*
X799937Y653548D01*
Y655091D01*
X801607D01*
Y654441D01*
X800719D01*
Y653947D01*
X800786Y653897D01*
X800858Y653853D01*
X800930Y653814D01*
X800997Y653781D01*
X801052Y653753D01*
X801102Y653731D01*
X801130Y653720D01*
X801136Y653714D01*
X801141D01*
X801230Y653681D01*
X801319Y653659D01*
X801402Y653642D01*
X801474Y653631D01*
X801541Y653625D01*
X801585Y653620D01*
X801629D01*
X801718Y653625D01*
X801807Y653636D01*
X801885Y653653D01*
X801962Y653675D01*
X802101Y653731D01*
X802157Y653759D01*
X802212Y653792D01*
X802262Y653825D01*
X802306Y653853D01*
X802340Y653886D01*
X802373Y653908D01*
X802395Y653931D01*
X802412Y653947D01*
X802423Y653958D01*
X802429Y653964D01*
X802479Y654031D01*
X802528Y654108D01*
X802567Y654186D01*
X802601Y654269D01*
X802656Y654441D01*
X802689Y654608D01*
X802701Y654685D01*
X802712Y654763D01*
X802717Y654824D01*
X802723Y654885D01*
X802728Y654930D01*
Y654969D01*
Y654991D01*
Y654996D01*
X802723Y655113D01*
X802717Y655218D01*
X802701Y655324D01*
X802684Y655418D01*
X802662Y655501D01*
X802634Y655579D01*
X802606Y655651D01*
X802578Y655718D01*
X802556Y655773D01*
X802528Y655823D01*
X802501Y655862D01*
X802479Y655895D01*
X802462Y655923D01*
X802445Y655940D01*
X802440Y655951D01*
X802434Y655956D01*
X802373Y656012D01*
X802312Y656067D01*
X802245Y656106D01*
X802179Y656145D01*
X802112Y656178D01*
X802046Y656206D01*
X801918Y656245D01*
X801857Y656256D01*
X801801Y656267D01*
X801752Y656273D01*
X801707Y656278D01*
X801674Y656284D01*
X801624D01*
X801502Y656278D01*
X801396Y656256D01*
X801302Y656234D01*
X801219Y656201D01*
X801158Y656173D01*
X801108Y656145D01*
X801080Y656123D01*
X801069Y656117D01*
X800991Y656051D01*
X800924Y655978D01*
X800869Y655906D01*
X800830Y655834D01*
X800797Y655768D01*
X800775Y655718D01*
X800764Y655684D01*
X800758Y655679D01*
Y655673D01*
X799987Y655818D01*
X800009Y655912D01*
X800042Y656006D01*
X800075Y656089D01*
X800120Y656167D01*
X800159Y656245D01*
X800203Y656312D01*
X800247Y656373D01*
X800292Y656428D01*
X800336Y656478D01*
X800375Y656523D01*
X800408Y656561D01*
X800442Y656589D01*
X800469Y656611D01*
X800492Y656633D01*
X800503Y656639D01*
X800508Y656644D01*
X800586Y656700D01*
X800669Y656744D01*
X800758Y656783D01*
X800852Y656817D01*
X801035Y656872D01*
X801213Y656905D01*
X801296Y656922D01*
X801374Y656928D01*
X801446Y656933D01*
X801507Y656939D01*
X801557Y656944D01*
X801624D01*
X801824Y656939D01*
D02*
G37*
G36*
X799121Y683032D02*
X797667D01*
X797517Y683037D01*
X797378Y683043D01*
X797261Y683054D01*
X797167Y683070D01*
X797089Y683087D01*
X797028Y683098D01*
X797012Y683104D01*
X796995D01*
X796990Y683109D01*
X796984D01*
X796862Y683154D01*
X796751Y683204D01*
X796662Y683253D01*
X796585Y683303D01*
X796523Y683348D01*
X796479Y683381D01*
X796451Y683403D01*
X796440Y683415D01*
X796346Y683520D01*
X796263Y683631D01*
X796190Y683747D01*
X796135Y683853D01*
X796091Y683953D01*
X796068Y683992D01*
X796057Y684025D01*
X796046Y684058D01*
X796035Y684081D01*
X796029Y684092D01*
Y684097D01*
X795991Y684230D01*
X795957Y684369D01*
X795935Y684502D01*
X795924Y684630D01*
X795919Y684691D01*
X795913Y684747D01*
Y684791D01*
X795907Y684835D01*
Y684868D01*
Y684891D01*
Y684907D01*
Y684913D01*
X795913Y685107D01*
X795930Y685279D01*
X795935Y685362D01*
X795946Y685435D01*
X795957Y685507D01*
X795968Y685568D01*
X795985Y685623D01*
X795996Y685673D01*
X796007Y685718D01*
X796013Y685751D01*
X796024Y685779D01*
X796029Y685801D01*
X796035Y685812D01*
Y685818D01*
X796085Y685951D01*
X796146Y686073D01*
X796207Y686178D01*
X796268Y686267D01*
X796318Y686339D01*
X796362Y686395D01*
X796390Y686428D01*
X796396Y686439D01*
X796401D01*
X796496Y686528D01*
X796590Y686600D01*
X796690Y686661D01*
X796779Y686711D01*
X796856Y686750D01*
X796923Y686778D01*
X796945Y686783D01*
X796962Y686789D01*
X796973Y686794D01*
X796979D01*
X797084Y686822D01*
X797200Y686839D01*
X797323Y686856D01*
X797439Y686861D01*
X797545Y686867D01*
X797589Y686872D01*
X799121D01*
Y683032D01*
D02*
G37*
G36*
X802995D02*
X801541D01*
X801391Y683037D01*
X801252Y683043D01*
X801136Y683054D01*
X801041Y683070D01*
X800963Y683087D01*
X800902Y683098D01*
X800886Y683104D01*
X800869D01*
X800863Y683109D01*
X800858D01*
X800736Y683154D01*
X800625Y683204D01*
X800536Y683253D01*
X800458Y683303D01*
X800397Y683348D01*
X800353Y683381D01*
X800325Y683403D01*
X800314Y683415D01*
X800220Y683520D01*
X800136Y683631D01*
X800064Y683747D01*
X800009Y683853D01*
X799964Y683953D01*
X799942Y683992D01*
X799931Y684025D01*
X799920Y684058D01*
X799909Y684081D01*
X799903Y684092D01*
Y684097D01*
X799864Y684230D01*
X799831Y684369D01*
X799809Y684502D01*
X799798Y684630D01*
X799792Y684691D01*
X799787Y684747D01*
Y684791D01*
X799781Y684835D01*
Y684868D01*
Y684891D01*
Y684907D01*
Y684913D01*
X799787Y685107D01*
X799803Y685279D01*
X799809Y685362D01*
X799820Y685435D01*
X799831Y685507D01*
X799842Y685568D01*
X799859Y685623D01*
X799870Y685673D01*
X799881Y685718D01*
X799887Y685751D01*
X799898Y685779D01*
X799903Y685801D01*
X799909Y685812D01*
Y685818D01*
X799959Y685951D01*
X800020Y686073D01*
X800081Y686178D01*
X800142Y686267D01*
X800192Y686339D01*
X800236Y686395D01*
X800264Y686428D01*
X800270Y686439D01*
X800275D01*
X800369Y686528D01*
X800464Y686600D01*
X800564Y686661D01*
X800653Y686711D01*
X800730Y686750D01*
X800797Y686778D01*
X800819Y686783D01*
X800836Y686789D01*
X800847Y686794D01*
X800852D01*
X800958Y686822D01*
X801074Y686839D01*
X801196Y686856D01*
X801313Y686861D01*
X801418Y686867D01*
X801463Y686872D01*
X802995D01*
Y683032D01*
D02*
G37*
G36*
X805592D02*
X804754D01*
X803389Y686872D01*
X804216D01*
X805154Y684030D01*
X806131Y686872D01*
X806968D01*
X805592Y683032D01*
D02*
G37*
G36*
X806968Y693032D02*
X806252D01*
Y696051D01*
X805498Y693032D01*
X804749D01*
X803994Y696051D01*
X803988Y693032D01*
X803272D01*
Y696872D01*
X804438D01*
X805120Y694247D01*
X805809Y696872D01*
X806968D01*
Y693032D01*
D02*
G37*
G36*
X795330D02*
X794553D01*
Y694635D01*
X794303D01*
X794226Y694630D01*
X794159Y694624D01*
X794104Y694613D01*
X794059Y694608D01*
X794031Y694597D01*
X794015Y694591D01*
X794009D01*
X793965Y694569D01*
X793920Y694547D01*
X793882Y694519D01*
X793843Y694497D01*
X793815Y694469D01*
X793793Y694447D01*
X793782Y694436D01*
X793776Y694430D01*
X793754Y694402D01*
X793726Y694375D01*
X793665Y694291D01*
X793599Y694203D01*
X793526Y694103D01*
X793465Y694014D01*
X793438Y693969D01*
X793415Y693936D01*
X793393Y693908D01*
X793377Y693886D01*
X793371Y693869D01*
X793365Y693864D01*
X792810Y693032D01*
X791878D01*
X792350Y693781D01*
X792400Y693858D01*
X792450Y693936D01*
X792494Y694003D01*
X792538Y694064D01*
X792577Y694119D01*
X792611Y694175D01*
X792677Y694258D01*
X792727Y694325D01*
X792761Y694369D01*
X792788Y694397D01*
X792794Y694402D01*
X792855Y694469D01*
X792927Y694530D01*
X792994Y694580D01*
X793060Y694630D01*
X793116Y694669D01*
X793160Y694697D01*
X793193Y694719D01*
X793199Y694724D01*
X793204D01*
X793110Y694741D01*
X793027Y694763D01*
X792949Y694785D01*
X792872Y694813D01*
X792805Y694841D01*
X792744Y694869D01*
X792683Y694896D01*
X792633Y694930D01*
X792589Y694957D01*
X792550Y694985D01*
X792516Y695013D01*
X792494Y695035D01*
X792472Y695052D01*
X792455Y695068D01*
X792450Y695074D01*
X792444Y695079D01*
X792400Y695135D01*
X792361Y695190D01*
X792294Y695313D01*
X792250Y695429D01*
X792222Y695546D01*
X792200Y695646D01*
X792194Y695684D01*
Y695723D01*
X792189Y695751D01*
Y695779D01*
Y695790D01*
Y695795D01*
X792194Y695918D01*
X792217Y696034D01*
X792244Y696134D01*
X792272Y696223D01*
X792305Y696295D01*
X792333Y696350D01*
X792344Y696367D01*
X792355Y696384D01*
X792361Y696389D01*
Y696395D01*
X792427Y696489D01*
X792500Y696567D01*
X792572Y696628D01*
X792644Y696683D01*
X792710Y696717D01*
X792761Y696744D01*
X792794Y696761D01*
X792799Y696767D01*
X792805D01*
X792860Y696783D01*
X792921Y696800D01*
X793060Y696828D01*
X793210Y696844D01*
X793354Y696861D01*
X793427D01*
X793488Y696867D01*
X793549D01*
X793599Y696872D01*
X795330D01*
Y693032D01*
D02*
G37*
G36*
X798594D02*
X795885D01*
Y693681D01*
X797817D01*
Y696844D01*
X798594D01*
Y693032D01*
D02*
G37*
G36*
X800974Y696939D02*
X801119Y696922D01*
X801246Y696894D01*
X801374Y696861D01*
X801485Y696822D01*
X801596Y696778D01*
X801690Y696728D01*
X801779Y696678D01*
X801863Y696628D01*
X801929Y696578D01*
X801990Y696534D01*
X802040Y696495D01*
X802079Y696461D01*
X802107Y696434D01*
X802123Y696417D01*
X802129Y696411D01*
X802218Y696306D01*
X802290Y696195D01*
X802357Y696078D01*
X802412Y695956D01*
X802462Y695829D01*
X802501Y695707D01*
X802534Y695584D01*
X802562Y695468D01*
X802584Y695351D01*
X802595Y695252D01*
X802606Y695157D01*
X802617Y695079D01*
Y695013D01*
X802623Y694963D01*
Y694930D01*
Y694924D01*
Y694918D01*
X802617Y694752D01*
X802601Y694597D01*
X802578Y694447D01*
X802545Y694314D01*
X802512Y694186D01*
X802468Y694064D01*
X802423Y693958D01*
X802379Y693864D01*
X802334Y693775D01*
X802290Y693698D01*
X802245Y693636D01*
X802212Y693581D01*
X802179Y693542D01*
X802157Y693509D01*
X802140Y693492D01*
X802135Y693487D01*
X802040Y693392D01*
X801940Y693315D01*
X801835Y693242D01*
X801729Y693187D01*
X801624Y693137D01*
X801518Y693093D01*
X801418Y693059D01*
X801324Y693032D01*
X801230Y693009D01*
X801147Y692993D01*
X801069Y692981D01*
X801008Y692976D01*
X800952Y692970D01*
X800914Y692965D01*
X800880D01*
X800764Y692970D01*
X800658Y692976D01*
X800553Y692993D01*
X800458Y693015D01*
X800369Y693037D01*
X800286Y693059D01*
X800209Y693087D01*
X800136Y693120D01*
X800075Y693148D01*
X800020Y693176D01*
X799970Y693198D01*
X799931Y693220D01*
X799898Y693242D01*
X799876Y693259D01*
X799864Y693265D01*
X799859Y693270D01*
X799787Y693331D01*
X799720Y693398D01*
X799598Y693548D01*
X799498Y693703D01*
X799420Y693853D01*
X799387Y693925D01*
X799360Y693992D01*
X799337Y694053D01*
X799315Y694103D01*
X799298Y694147D01*
X799287Y694180D01*
X799282Y694203D01*
Y694208D01*
X800037Y694441D01*
X800081Y694291D01*
X800131Y694164D01*
X800181Y694058D01*
X800236Y693969D01*
X800281Y693903D01*
X800320Y693858D01*
X800347Y693831D01*
X800358Y693820D01*
X800447Y693753D01*
X800536Y693709D01*
X800625Y693675D01*
X800702Y693647D01*
X800775Y693636D01*
X800836Y693631D01*
X800858Y693625D01*
X800886D01*
X800963Y693631D01*
X801035Y693636D01*
X801169Y693675D01*
X801285Y693720D01*
X801380Y693781D01*
X801457Y693836D01*
X801513Y693881D01*
X801535Y693903D01*
X801552Y693920D01*
X801557Y693925D01*
X801563Y693931D01*
X801607Y693992D01*
X801646Y694064D01*
X801685Y694141D01*
X801713Y694225D01*
X801757Y694397D01*
X801790Y694569D01*
X801801Y694652D01*
X801807Y694724D01*
X801818Y694796D01*
Y694857D01*
X801824Y694902D01*
Y694941D01*
Y694969D01*
Y694974D01*
X801818Y695102D01*
X801813Y695218D01*
X801801Y695324D01*
X801785Y695424D01*
X801763Y695512D01*
X801740Y695596D01*
X801718Y695668D01*
X801690Y695734D01*
X801668Y695790D01*
X801646Y695840D01*
X801624Y695879D01*
X801602Y695912D01*
X801585Y695940D01*
X801574Y695956D01*
X801563Y695967D01*
Y695973D01*
X801513Y696029D01*
X801457Y696078D01*
X801402Y696117D01*
X801341Y696151D01*
X801224Y696206D01*
X801113Y696245D01*
X801019Y696267D01*
X800974Y696273D01*
X800941Y696278D01*
X800908Y696284D01*
X800869D01*
X800758Y696278D01*
X800658Y696256D01*
X800569Y696228D01*
X800492Y696195D01*
X800431Y696162D01*
X800386Y696134D01*
X800358Y696112D01*
X800347Y696106D01*
X800275Y696040D01*
X800209Y695962D01*
X800159Y695884D01*
X800120Y695807D01*
X800092Y695740D01*
X800075Y695690D01*
X800064Y695668D01*
Y695651D01*
X800059Y695646D01*
Y695640D01*
X799293Y695823D01*
X799348Y695984D01*
X799409Y696123D01*
X799476Y696245D01*
X799537Y696345D01*
X799598Y696422D01*
X799620Y696456D01*
X799643Y696484D01*
X799659Y696500D01*
X799676Y696517D01*
X799681Y696528D01*
X799687D01*
X799770Y696600D01*
X799864Y696667D01*
X799953Y696722D01*
X800048Y696767D01*
X800148Y696811D01*
X800242Y696844D01*
X800336Y696872D01*
X800425Y696894D01*
X800508Y696911D01*
X800586Y696922D01*
X800653Y696933D01*
X800714Y696939D01*
X800764Y696944D01*
X800830D01*
X800974Y696939D01*
D02*
G37*
G36*
X806968Y663031D02*
X806192D01*
Y664480D01*
X805503D01*
X805420Y664486D01*
X805342D01*
X805270Y664491D01*
X805204Y664497D01*
X805143Y664502D01*
X805093Y664508D01*
X805043D01*
X805004Y664513D01*
X804965Y664519D01*
X804937Y664524D01*
X804915D01*
X804898Y664530D01*
X804887D01*
X804810Y664552D01*
X804737Y664580D01*
X804671Y664608D01*
X804610Y664641D01*
X804560Y664669D01*
X804521Y664691D01*
X804499Y664708D01*
X804488Y664713D01*
X804416Y664769D01*
X804354Y664830D01*
X804293Y664896D01*
X804249Y664952D01*
X804210Y665007D01*
X804182Y665052D01*
X804166Y665079D01*
X804160Y665091D01*
X804116Y665185D01*
X804082Y665285D01*
X804060Y665390D01*
X804044Y665485D01*
X804033Y665562D01*
Y665601D01*
X804027Y665629D01*
Y665657D01*
Y665673D01*
Y665684D01*
Y665690D01*
X804038Y665851D01*
X804060Y666001D01*
X804099Y666123D01*
X804138Y666234D01*
X804160Y666278D01*
X804182Y666317D01*
X804199Y666350D01*
X804221Y666384D01*
X804232Y666406D01*
X804243Y666423D01*
X804255Y666428D01*
Y666434D01*
X804343Y666534D01*
X804432Y666617D01*
X804527Y666683D01*
X804610Y666733D01*
X804687Y666767D01*
X804749Y666794D01*
X804771Y666800D01*
X804787Y666806D01*
X804798Y666811D01*
X804804D01*
X804848Y666822D01*
X804904Y666833D01*
X804970Y666839D01*
X805037Y666844D01*
X805192Y666855D01*
X805348Y666867D01*
X805492D01*
X805553Y666872D01*
X806968D01*
Y663031D01*
D02*
G37*
G36*
X801824Y666939D02*
X802001Y666917D01*
X802079Y666900D01*
X802157Y666883D01*
X802229Y666867D01*
X802290Y666850D01*
X802345Y666828D01*
X802401Y666811D01*
X802440Y666794D01*
X802479Y666783D01*
X802506Y666767D01*
X802528Y666761D01*
X802540Y666750D01*
X802545D01*
X802717Y666650D01*
X802789Y666589D01*
X802861Y666534D01*
X802928Y666472D01*
X802989Y666411D01*
X803045Y666350D01*
X803095Y666295D01*
X803133Y666239D01*
X803172Y666189D01*
X803206Y666145D01*
X803233Y666106D01*
X803250Y666073D01*
X803267Y666051D01*
X803272Y666034D01*
X803278Y666028D01*
X803322Y665940D01*
X803361Y665851D01*
X803422Y665668D01*
X803466Y665485D01*
X803494Y665324D01*
X803505Y665246D01*
X803516Y665179D01*
X803522Y665118D01*
Y665063D01*
X803528Y665024D01*
Y664991D01*
Y664968D01*
Y664963D01*
X803516Y664757D01*
X803494Y664569D01*
X803455Y664397D01*
X803439Y664314D01*
X803417Y664241D01*
X803394Y664175D01*
X803378Y664114D01*
X803356Y664064D01*
X803339Y664019D01*
X803328Y663986D01*
X803317Y663958D01*
X803306Y663942D01*
Y663936D01*
X803211Y663770D01*
X803106Y663625D01*
X802995Y663498D01*
X802884Y663398D01*
X802834Y663353D01*
X802784Y663314D01*
X802745Y663281D01*
X802706Y663259D01*
X802678Y663237D01*
X802651Y663220D01*
X802639Y663215D01*
X802634Y663209D01*
X802545Y663165D01*
X802462Y663126D01*
X802279Y663065D01*
X802101Y663020D01*
X801940Y662993D01*
X801863Y662982D01*
X801796Y662970D01*
X801735Y662965D01*
X801679D01*
X801641Y662959D01*
X801579D01*
X801402Y662965D01*
X801235Y662987D01*
X801074Y663015D01*
X800936Y663048D01*
X800875Y663065D01*
X800819Y663082D01*
X800769Y663098D01*
X800725Y663109D01*
X800691Y663120D01*
X800669Y663131D01*
X800653Y663137D01*
X800647D01*
X800481Y663203D01*
X800342Y663276D01*
X800220Y663348D01*
X800114Y663409D01*
X800037Y663464D01*
X800009Y663487D01*
X799981Y663509D01*
X799964Y663525D01*
X799948Y663537D01*
X799937Y663548D01*
Y665091D01*
X801607D01*
Y664441D01*
X800719D01*
Y663947D01*
X800786Y663897D01*
X800858Y663853D01*
X800930Y663814D01*
X800997Y663781D01*
X801052Y663753D01*
X801102Y663731D01*
X801130Y663720D01*
X801136Y663714D01*
X801141D01*
X801230Y663681D01*
X801319Y663659D01*
X801402Y663642D01*
X801474Y663631D01*
X801541Y663625D01*
X801585Y663620D01*
X801629D01*
X801718Y663625D01*
X801807Y663636D01*
X801885Y663653D01*
X801962Y663675D01*
X802101Y663731D01*
X802157Y663759D01*
X802212Y663792D01*
X802262Y663825D01*
X802306Y663853D01*
X802340Y663886D01*
X802373Y663908D01*
X802395Y663931D01*
X802412Y663947D01*
X802423Y663958D01*
X802429Y663964D01*
X802479Y664031D01*
X802528Y664108D01*
X802567Y664186D01*
X802601Y664269D01*
X802656Y664441D01*
X802689Y664608D01*
X802701Y664685D01*
X802712Y664763D01*
X802717Y664824D01*
X802723Y664885D01*
X802728Y664930D01*
Y664968D01*
Y664991D01*
Y664996D01*
X802723Y665113D01*
X802717Y665218D01*
X802701Y665324D01*
X802684Y665418D01*
X802662Y665501D01*
X802634Y665579D01*
X802606Y665651D01*
X802578Y665718D01*
X802556Y665773D01*
X802528Y665823D01*
X802501Y665862D01*
X802479Y665895D01*
X802462Y665923D01*
X802445Y665940D01*
X802440Y665951D01*
X802434Y665956D01*
X802373Y666012D01*
X802312Y666067D01*
X802245Y666106D01*
X802179Y666145D01*
X802112Y666178D01*
X802046Y666206D01*
X801918Y666245D01*
X801857Y666256D01*
X801801Y666267D01*
X801752Y666273D01*
X801707Y666278D01*
X801674Y666284D01*
X801624D01*
X801502Y666278D01*
X801396Y666256D01*
X801302Y666234D01*
X801219Y666201D01*
X801158Y666173D01*
X801108Y666145D01*
X801080Y666123D01*
X801069Y666117D01*
X800991Y666051D01*
X800924Y665978D01*
X800869Y665906D01*
X800830Y665834D01*
X800797Y665768D01*
X800775Y665718D01*
X800764Y665684D01*
X800758Y665679D01*
Y665673D01*
X799987Y665818D01*
X800009Y665912D01*
X800042Y666006D01*
X800075Y666089D01*
X800120Y666167D01*
X800159Y666245D01*
X800203Y666312D01*
X800247Y666373D01*
X800292Y666428D01*
X800336Y666478D01*
X800375Y666523D01*
X800408Y666561D01*
X800442Y666589D01*
X800469Y666611D01*
X800492Y666633D01*
X800503Y666639D01*
X800508Y666644D01*
X800586Y666700D01*
X800669Y666744D01*
X800758Y666783D01*
X800852Y666817D01*
X801035Y666872D01*
X801213Y666905D01*
X801296Y666922D01*
X801374Y666928D01*
X801446Y666933D01*
X801507Y666939D01*
X801557Y666944D01*
X801624D01*
X801824Y666939D01*
D02*
G37*
G36*
X806968Y653031D02*
X806192D01*
Y654480D01*
X805503D01*
X805420Y654486D01*
X805342D01*
X805270Y654491D01*
X805204Y654497D01*
X805143Y654502D01*
X805093Y654508D01*
X805043D01*
X805004Y654513D01*
X804965Y654519D01*
X804937Y654524D01*
X804915D01*
X804898Y654530D01*
X804887D01*
X804810Y654552D01*
X804737Y654580D01*
X804671Y654608D01*
X804610Y654641D01*
X804560Y654669D01*
X804521Y654691D01*
X804499Y654708D01*
X804488Y654713D01*
X804416Y654769D01*
X804354Y654830D01*
X804293Y654896D01*
X804249Y654952D01*
X804210Y655007D01*
X804182Y655052D01*
X804166Y655079D01*
X804160Y655091D01*
X804116Y655185D01*
X804082Y655285D01*
X804060Y655390D01*
X804044Y655485D01*
X804033Y655562D01*
Y655601D01*
X804027Y655629D01*
Y655657D01*
Y655673D01*
Y655684D01*
Y655690D01*
X804038Y655851D01*
X804060Y656001D01*
X804099Y656123D01*
X804138Y656234D01*
X804160Y656278D01*
X804182Y656317D01*
X804199Y656350D01*
X804221Y656384D01*
X804232Y656406D01*
X804243Y656423D01*
X804255Y656428D01*
Y656434D01*
X804343Y656534D01*
X804432Y656617D01*
X804527Y656683D01*
X804610Y656733D01*
X804687Y656767D01*
X804749Y656794D01*
X804771Y656800D01*
X804787Y656806D01*
X804798Y656811D01*
X804804D01*
X804848Y656822D01*
X804904Y656833D01*
X804970Y656839D01*
X805037Y656844D01*
X805192Y656855D01*
X805348Y656867D01*
X805492D01*
X805553Y656872D01*
X806968D01*
Y653031D01*
D02*
G37*
G36*
X799215Y663031D02*
X797761D01*
X797611Y663037D01*
X797472Y663043D01*
X797356Y663054D01*
X797261Y663070D01*
X797184Y663087D01*
X797123Y663098D01*
X797106Y663104D01*
X797089D01*
X797084Y663109D01*
X797078D01*
X796956Y663154D01*
X796845Y663203D01*
X796757Y663253D01*
X796679Y663303D01*
X796618Y663348D01*
X796573Y663381D01*
X796546Y663403D01*
X796534Y663414D01*
X796440Y663520D01*
X796357Y663631D01*
X796285Y663748D01*
X796229Y663853D01*
X796185Y663953D01*
X796163Y663992D01*
X796152Y664025D01*
X796140Y664058D01*
X796129Y664080D01*
X796124Y664092D01*
Y664097D01*
X796085Y664230D01*
X796052Y664369D01*
X796029Y664502D01*
X796018Y664630D01*
X796013Y664691D01*
X796007Y664747D01*
Y664791D01*
X796002Y664835D01*
Y664868D01*
Y664891D01*
Y664907D01*
Y664913D01*
X796007Y665107D01*
X796024Y665279D01*
X796029Y665363D01*
X796040Y665435D01*
X796052Y665507D01*
X796063Y665568D01*
X796079Y665623D01*
X796091Y665673D01*
X796102Y665718D01*
X796107Y665751D01*
X796118Y665779D01*
X796124Y665801D01*
X796129Y665812D01*
Y665818D01*
X796179Y665951D01*
X796240Y666073D01*
X796301Y666178D01*
X796362Y666267D01*
X796412Y666339D01*
X796457Y666395D01*
X796485Y666428D01*
X796490Y666439D01*
X796496D01*
X796590Y666528D01*
X796684Y666600D01*
X796784Y666661D01*
X796873Y666711D01*
X796951Y666750D01*
X797017Y666778D01*
X797040Y666783D01*
X797056Y666789D01*
X797067Y666794D01*
X797073D01*
X797178Y666822D01*
X797295Y666839D01*
X797417Y666855D01*
X797534Y666861D01*
X797639Y666867D01*
X797683Y666872D01*
X799215D01*
Y663031D01*
D02*
G37*
G36*
X798238Y676939D02*
X798383Y676922D01*
X798510Y676900D01*
X798621Y676878D01*
X798671Y676861D01*
X798716Y676850D01*
X798749Y676839D01*
X798782Y676828D01*
X798804Y676817D01*
X798821Y676811D01*
X798832Y676805D01*
X798838D01*
X798949Y676750D01*
X799043Y676689D01*
X799126Y676622D01*
X799193Y676561D01*
X799248Y676506D01*
X799282Y676461D01*
X799309Y676428D01*
X799315Y676423D01*
Y676417D01*
X799371Y676323D01*
X799409Y676223D01*
X799437Y676128D01*
X799454Y676045D01*
X799465Y675973D01*
X799476Y675917D01*
Y675895D01*
Y675879D01*
Y675873D01*
Y675868D01*
X799470Y675784D01*
X799459Y675701D01*
X799443Y675629D01*
X799420Y675557D01*
X799365Y675423D01*
X799298Y675307D01*
X799271Y675257D01*
X799237Y675218D01*
X799210Y675179D01*
X799182Y675146D01*
X799160Y675124D01*
X799143Y675107D01*
X799132Y675096D01*
X799126Y675091D01*
X799076Y675052D01*
X799015Y675013D01*
X798954Y674974D01*
X798882Y674941D01*
X798743Y674874D01*
X798599Y674819D01*
X798527Y674796D01*
X798466Y674774D01*
X798405Y674757D01*
X798355Y674741D01*
X798316Y674730D01*
X798283Y674719D01*
X798260Y674713D01*
X798255D01*
X798166Y674691D01*
X798089Y674669D01*
X798016Y674652D01*
X797950Y674636D01*
X797894Y674619D01*
X797844Y674608D01*
X797800Y674591D01*
X797761Y674580D01*
X797728Y674574D01*
X797700Y674563D01*
X797661Y674552D01*
X797639Y674541D01*
X797633D01*
X797561Y674513D01*
X797506Y674486D01*
X797456Y674458D01*
X797417Y674430D01*
X797389Y674408D01*
X797372Y674391D01*
X797361Y674380D01*
X797356Y674375D01*
X797328Y674336D01*
X797306Y674297D01*
X797295Y674258D01*
X797284Y674225D01*
X797278Y674191D01*
X797273Y674164D01*
Y674147D01*
Y674142D01*
X797278Y674064D01*
X797300Y673997D01*
X797334Y673931D01*
X797367Y673875D01*
X797406Y673831D01*
X797434Y673797D01*
X797456Y673775D01*
X797467Y673770D01*
X797545Y673720D01*
X797633Y673681D01*
X797728Y673653D01*
X797817Y673636D01*
X797900Y673625D01*
X797966Y673614D01*
X798028D01*
X798155Y673620D01*
X798266Y673642D01*
X798360Y673670D01*
X798444Y673703D01*
X798510Y673736D01*
X798555Y673764D01*
X798582Y673786D01*
X798594Y673792D01*
X798666Y673870D01*
X798721Y673953D01*
X798771Y674047D01*
X798804Y674142D01*
X798832Y674225D01*
X798854Y674291D01*
X798860Y674314D01*
Y674336D01*
X798866Y674347D01*
Y674352D01*
X799620Y674280D01*
X799604Y674164D01*
X799581Y674053D01*
X799548Y673947D01*
X799520Y673853D01*
X799481Y673764D01*
X799443Y673681D01*
X799404Y673609D01*
X799365Y673542D01*
X799326Y673487D01*
X799287Y673437D01*
X799254Y673392D01*
X799221Y673353D01*
X799198Y673326D01*
X799176Y673309D01*
X799165Y673298D01*
X799160Y673292D01*
X799082Y673231D01*
X798999Y673181D01*
X798910Y673137D01*
X798815Y673098D01*
X798727Y673070D01*
X798632Y673043D01*
X798449Y673004D01*
X798366Y672987D01*
X798288Y672976D01*
X798222Y672970D01*
X798161Y672965D01*
X798111Y672959D01*
X798039D01*
X797861Y672965D01*
X797700Y672982D01*
X797556Y673004D01*
X797495Y673015D01*
X797434Y673032D01*
X797384Y673043D01*
X797339Y673054D01*
X797300Y673065D01*
X797267Y673076D01*
X797239Y673087D01*
X797223Y673093D01*
X797212Y673098D01*
X797206D01*
X797084Y673159D01*
X796984Y673226D01*
X796890Y673292D01*
X796818Y673364D01*
X796762Y673426D01*
X796718Y673481D01*
X796695Y673514D01*
X796684Y673520D01*
Y673525D01*
X796623Y673636D01*
X796573Y673742D01*
X796540Y673847D01*
X796518Y673947D01*
X796507Y674025D01*
X796501Y674064D01*
X796496Y674092D01*
Y674114D01*
Y674130D01*
Y674142D01*
Y674147D01*
X796501Y674280D01*
X796518Y674397D01*
X796546Y674502D01*
X796573Y674591D01*
X796601Y674663D01*
X796629Y674713D01*
X796645Y674747D01*
X796651Y674757D01*
X796712Y674846D01*
X796784Y674924D01*
X796856Y674991D01*
X796923Y675046D01*
X796984Y675091D01*
X797034Y675124D01*
X797067Y675146D01*
X797073Y675152D01*
X797078D01*
X797134Y675179D01*
X797189Y675207D01*
X797323Y675257D01*
X797461Y675302D01*
X797594Y675346D01*
X797656Y675362D01*
X797717Y675379D01*
X797772Y675396D01*
X797817Y675407D01*
X797855Y675418D01*
X797883Y675423D01*
X797905Y675429D01*
X797911D01*
X798011Y675457D01*
X798100Y675479D01*
X798183Y675501D01*
X798260Y675523D01*
X798322Y675546D01*
X798383Y675568D01*
X798433Y675590D01*
X798477Y675607D01*
X798516Y675623D01*
X798544Y675640D01*
X798571Y675651D01*
X798588Y675662D01*
X798616Y675679D01*
X798621Y675684D01*
X798660Y675723D01*
X798688Y675762D01*
X798705Y675801D01*
X798716Y675840D01*
X798727Y675868D01*
X798732Y675895D01*
Y675912D01*
Y675917D01*
X798727Y675973D01*
X798716Y676017D01*
X798694Y676062D01*
X798671Y676095D01*
X798649Y676123D01*
X798627Y676139D01*
X798616Y676151D01*
X798610Y676156D01*
X798532Y676206D01*
X798449Y676239D01*
X798360Y676267D01*
X798277Y676284D01*
X798205Y676295D01*
X798144Y676300D01*
X798089D01*
X797972Y676295D01*
X797872Y676278D01*
X797789Y676256D01*
X797722Y676234D01*
X797667Y676212D01*
X797628Y676190D01*
X797606Y676173D01*
X797600Y676167D01*
X797545Y676112D01*
X797495Y676045D01*
X797456Y675979D01*
X797428Y675906D01*
X797406Y675845D01*
X797395Y675795D01*
X797384Y675757D01*
Y675751D01*
Y675745D01*
X796607Y675773D01*
X796612Y675873D01*
X796629Y675962D01*
X796651Y676051D01*
X796679Y676128D01*
X796706Y676206D01*
X796740Y676278D01*
X796773Y676339D01*
X796806Y676400D01*
X796845Y676450D01*
X796879Y676495D01*
X796912Y676534D01*
X796940Y676567D01*
X796962Y676589D01*
X796979Y676606D01*
X796990Y676617D01*
X796995Y676622D01*
X797067Y676678D01*
X797145Y676728D01*
X797228Y676772D01*
X797317Y676811D01*
X797406Y676839D01*
X797495Y676867D01*
X797672Y676905D01*
X797755Y676917D01*
X797828Y676928D01*
X797900Y676933D01*
X797961Y676939D01*
X798011Y676944D01*
X798077D01*
X798238Y676939D01*
D02*
G37*
G36*
X801818D02*
X801962Y676922D01*
X802090Y676900D01*
X802201Y676878D01*
X802251Y676861D01*
X802295Y676850D01*
X802329Y676839D01*
X802362Y676828D01*
X802384Y676817D01*
X802401Y676811D01*
X802412Y676805D01*
X802417D01*
X802528Y676750D01*
X802623Y676689D01*
X802706Y676622D01*
X802773Y676561D01*
X802828Y676506D01*
X802861Y676461D01*
X802889Y676428D01*
X802895Y676423D01*
Y676417D01*
X802950Y676323D01*
X802989Y676223D01*
X803017Y676128D01*
X803034Y676045D01*
X803045Y675973D01*
X803056Y675917D01*
Y675895D01*
Y675879D01*
Y675873D01*
Y675868D01*
X803050Y675784D01*
X803039Y675701D01*
X803022Y675629D01*
X803000Y675557D01*
X802945Y675423D01*
X802878Y675307D01*
X802850Y675257D01*
X802817Y675218D01*
X802789Y675179D01*
X802762Y675146D01*
X802739Y675124D01*
X802723Y675107D01*
X802712Y675096D01*
X802706Y675091D01*
X802656Y675052D01*
X802595Y675013D01*
X802534Y674974D01*
X802462Y674941D01*
X802323Y674874D01*
X802179Y674819D01*
X802107Y674796D01*
X802046Y674774D01*
X801985Y674757D01*
X801935Y674741D01*
X801896Y674730D01*
X801863Y674719D01*
X801840Y674713D01*
X801835D01*
X801746Y674691D01*
X801668Y674669D01*
X801596Y674652D01*
X801530Y674636D01*
X801474Y674619D01*
X801424Y674608D01*
X801380Y674591D01*
X801341Y674580D01*
X801307Y674574D01*
X801280Y674563D01*
X801241Y674552D01*
X801219Y674541D01*
X801213D01*
X801141Y674513D01*
X801085Y674486D01*
X801035Y674458D01*
X800997Y674430D01*
X800969Y674408D01*
X800952Y674391D01*
X800941Y674380D01*
X800936Y674375D01*
X800908Y674336D01*
X800886Y674297D01*
X800875Y674258D01*
X800863Y674225D01*
X800858Y674191D01*
X800852Y674164D01*
Y674147D01*
Y674142D01*
X800858Y674064D01*
X800880Y673997D01*
X800914Y673931D01*
X800947Y673875D01*
X800986Y673831D01*
X801013Y673797D01*
X801035Y673775D01*
X801047Y673770D01*
X801124Y673720D01*
X801213Y673681D01*
X801307Y673653D01*
X801396Y673636D01*
X801480Y673625D01*
X801546Y673614D01*
X801607D01*
X801735Y673620D01*
X801846Y673642D01*
X801940Y673670D01*
X802023Y673703D01*
X802090Y673736D01*
X802135Y673764D01*
X802162Y673786D01*
X802173Y673792D01*
X802245Y673870D01*
X802301Y673953D01*
X802351Y674047D01*
X802384Y674142D01*
X802412Y674225D01*
X802434Y674291D01*
X802440Y674314D01*
Y674336D01*
X802445Y674347D01*
Y674352D01*
X803200Y674280D01*
X803183Y674164D01*
X803161Y674053D01*
X803128Y673947D01*
X803100Y673853D01*
X803061Y673764D01*
X803022Y673681D01*
X802984Y673609D01*
X802945Y673542D01*
X802906Y673487D01*
X802867Y673437D01*
X802834Y673392D01*
X802800Y673353D01*
X802778Y673326D01*
X802756Y673309D01*
X802745Y673298D01*
X802739Y673292D01*
X802662Y673231D01*
X802578Y673181D01*
X802490Y673137D01*
X802395Y673098D01*
X802306Y673070D01*
X802212Y673043D01*
X802029Y673004D01*
X801946Y672987D01*
X801868Y672976D01*
X801801Y672970D01*
X801740Y672965D01*
X801690Y672959D01*
X801618D01*
X801441Y672965D01*
X801280Y672982D01*
X801136Y673004D01*
X801074Y673015D01*
X801013Y673032D01*
X800963Y673043D01*
X800919Y673054D01*
X800880Y673065D01*
X800847Y673076D01*
X800819Y673087D01*
X800803Y673093D01*
X800791Y673098D01*
X800786D01*
X800664Y673159D01*
X800564Y673226D01*
X800469Y673292D01*
X800397Y673364D01*
X800342Y673426D01*
X800297Y673481D01*
X800275Y673514D01*
X800264Y673520D01*
Y673525D01*
X800203Y673636D01*
X800153Y673742D01*
X800120Y673847D01*
X800098Y673947D01*
X800086Y674025D01*
X800081Y674064D01*
X800075Y674092D01*
Y674114D01*
Y674130D01*
Y674142D01*
Y674147D01*
X800081Y674280D01*
X800098Y674397D01*
X800125Y674502D01*
X800153Y674591D01*
X800181Y674663D01*
X800209Y674713D01*
X800225Y674747D01*
X800231Y674757D01*
X800292Y674846D01*
X800364Y674924D01*
X800436Y674991D01*
X800503Y675046D01*
X800564Y675091D01*
X800614Y675124D01*
X800647Y675146D01*
X800653Y675152D01*
X800658D01*
X800714Y675179D01*
X800769Y675207D01*
X800902Y675257D01*
X801041Y675302D01*
X801174Y675346D01*
X801235Y675362D01*
X801296Y675379D01*
X801352Y675396D01*
X801396Y675407D01*
X801435Y675418D01*
X801463Y675423D01*
X801485Y675429D01*
X801491D01*
X801591Y675457D01*
X801679Y675479D01*
X801763Y675501D01*
X801840Y675523D01*
X801901Y675546D01*
X801962Y675568D01*
X802012Y675590D01*
X802057Y675607D01*
X802096Y675623D01*
X802123Y675640D01*
X802151Y675651D01*
X802168Y675662D01*
X802195Y675679D01*
X802201Y675684D01*
X802240Y675723D01*
X802268Y675762D01*
X802284Y675801D01*
X802295Y675840D01*
X802306Y675868D01*
X802312Y675895D01*
Y675912D01*
Y675917D01*
X802306Y675973D01*
X802295Y676017D01*
X802273Y676062D01*
X802251Y676095D01*
X802229Y676123D01*
X802207Y676139D01*
X802195Y676151D01*
X802190Y676156D01*
X802112Y676206D01*
X802029Y676239D01*
X801940Y676267D01*
X801857Y676284D01*
X801785Y676295D01*
X801724Y676300D01*
X801668D01*
X801552Y676295D01*
X801452Y676278D01*
X801369Y676256D01*
X801302Y676234D01*
X801246Y676212D01*
X801208Y676190D01*
X801185Y676173D01*
X801180Y676167D01*
X801124Y676112D01*
X801074Y676045D01*
X801035Y675979D01*
X801008Y675906D01*
X800986Y675845D01*
X800974Y675795D01*
X800963Y675757D01*
Y675751D01*
Y675745D01*
X800186Y675773D01*
X800192Y675873D01*
X800209Y675962D01*
X800231Y676051D01*
X800259Y676128D01*
X800286Y676206D01*
X800320Y676278D01*
X800353Y676339D01*
X800386Y676400D01*
X800425Y676450D01*
X800458Y676495D01*
X800492Y676534D01*
X800519Y676567D01*
X800542Y676589D01*
X800558Y676606D01*
X800569Y676617D01*
X800575Y676622D01*
X800647Y676678D01*
X800725Y676728D01*
X800808Y676772D01*
X800897Y676811D01*
X800986Y676839D01*
X801074Y676867D01*
X801252Y676905D01*
X801335Y676917D01*
X801407Y676928D01*
X801480Y676933D01*
X801541Y676939D01*
X801591Y676944D01*
X801657D01*
X801818Y676939D01*
D02*
G37*
G36*
X805592Y673032D02*
X804754D01*
X803389Y676872D01*
X804216D01*
X805154Y674030D01*
X806131Y676872D01*
X806968D01*
X805592Y673032D01*
D02*
G37*
G36*
X783864Y606794D02*
X783808Y606650D01*
X783753Y606517D01*
X783703Y606389D01*
X783659Y606273D01*
X783620Y606162D01*
X783586Y606056D01*
X783553Y605962D01*
X783525Y605879D01*
X783503Y605801D01*
X783481Y605740D01*
X783470Y605684D01*
X783459Y605640D01*
X783448Y605612D01*
X783442Y605590D01*
Y605584D01*
X783398Y605374D01*
X783364Y605168D01*
X783337Y604969D01*
X783325Y604874D01*
X783320Y604785D01*
X783314Y604702D01*
X783309Y604630D01*
Y604563D01*
X783303Y604508D01*
Y604463D01*
Y604430D01*
Y604408D01*
Y604402D01*
Y604291D01*
X783309Y604180D01*
X783314Y604080D01*
X783320Y603986D01*
X783331Y603914D01*
X783337Y603853D01*
Y603831D01*
X783342Y603814D01*
Y603808D01*
Y603803D01*
X783376Y603586D01*
X783398Y603481D01*
X783414Y603387D01*
X783431Y603303D01*
X783448Y603242D01*
X783453Y603220D01*
Y603203D01*
X783459Y603193D01*
Y603187D01*
X783486Y603070D01*
X783514Y602965D01*
X783542Y602865D01*
X783564Y602782D01*
X783586Y602715D01*
X783603Y602665D01*
X783614Y602632D01*
X783620Y602626D01*
Y602621D01*
X783659Y602521D01*
X783703Y602404D01*
X783753Y602282D01*
X783803Y602166D01*
X783853Y602060D01*
X783869Y602016D01*
X783892Y601977D01*
X783903Y601944D01*
X783914Y601922D01*
X783925Y601905D01*
Y601899D01*
X783414D01*
X783331Y602027D01*
X783259Y602155D01*
X783192Y602282D01*
X783126Y602404D01*
X783070Y602527D01*
X783015Y602637D01*
X782970Y602748D01*
X782926Y602848D01*
X782887Y602943D01*
X782859Y603026D01*
X782831Y603098D01*
X782809Y603165D01*
X782793Y603215D01*
X782782Y603248D01*
X782770Y603276D01*
Y603281D01*
X782715Y603514D01*
X782671Y603731D01*
X782654Y603831D01*
X782643Y603931D01*
X782626Y604019D01*
X782621Y604103D01*
X782615Y604180D01*
X782610Y604252D01*
X782604Y604314D01*
X782598Y604363D01*
Y604402D01*
Y604436D01*
Y604452D01*
Y604458D01*
X782610Y604702D01*
X782632Y604930D01*
X782648Y605041D01*
X782671Y605152D01*
X782687Y605252D01*
X782710Y605340D01*
X782732Y605429D01*
X782748Y605507D01*
X782770Y605573D01*
X782787Y605629D01*
X782798Y605679D01*
X782809Y605712D01*
X782820Y605734D01*
Y605740D01*
X782909Y605973D01*
X783009Y606195D01*
X783059Y606300D01*
X783109Y606395D01*
X783159Y606489D01*
X783209Y606578D01*
X783253Y606656D01*
X783292Y606728D01*
X783331Y606789D01*
X783364Y606839D01*
X783392Y606883D01*
X783414Y606911D01*
X783425Y606933D01*
X783431Y606939D01*
X783930D01*
X783864Y606794D01*
D02*
G37*
G36*
X798782Y613031D02*
X797328D01*
X797178Y613037D01*
X797040Y613043D01*
X796923Y613054D01*
X796829Y613070D01*
X796751Y613087D01*
X796690Y613098D01*
X796673Y613104D01*
X796657D01*
X796651Y613109D01*
X796645D01*
X796523Y613154D01*
X796412Y613203D01*
X796324Y613253D01*
X796246Y613303D01*
X796185Y613348D01*
X796140Y613381D01*
X796113Y613403D01*
X796102Y613414D01*
X796007Y613520D01*
X795924Y613631D01*
X795852Y613748D01*
X795796Y613853D01*
X795752Y613953D01*
X795730Y613992D01*
X795719Y614025D01*
X795708Y614058D01*
X795696Y614080D01*
X795691Y614092D01*
Y614097D01*
X795652Y614230D01*
X795619Y614369D01*
X795597Y614502D01*
X795585Y614630D01*
X795580Y614691D01*
X795574Y614747D01*
Y614791D01*
X795569Y614835D01*
Y614868D01*
Y614891D01*
Y614907D01*
Y614913D01*
X795574Y615107D01*
X795591Y615279D01*
X795597Y615363D01*
X795608Y615435D01*
X795619Y615507D01*
X795630Y615568D01*
X795646Y615623D01*
X795658Y615673D01*
X795669Y615718D01*
X795674Y615751D01*
X795685Y615779D01*
X795691Y615801D01*
X795696Y615812D01*
Y615818D01*
X795746Y615951D01*
X795807Y616073D01*
X795868Y616178D01*
X795930Y616267D01*
X795979Y616339D01*
X796024Y616395D01*
X796052Y616428D01*
X796057Y616439D01*
X796063D01*
X796157Y616528D01*
X796251Y616600D01*
X796351Y616661D01*
X796440Y616711D01*
X796518Y616750D01*
X796585Y616778D01*
X796607Y616783D01*
X796623Y616789D01*
X796634Y616794D01*
X796640D01*
X796745Y616822D01*
X796862Y616839D01*
X796984Y616855D01*
X797101Y616861D01*
X797206Y616867D01*
X797251Y616872D01*
X798782D01*
Y613031D01*
D02*
G37*
G36*
X794148Y606750D02*
X794265Y606556D01*
X794359Y606373D01*
X794403Y606289D01*
X794442Y606206D01*
X794476Y606134D01*
X794509Y606062D01*
X794536Y606001D01*
X794559Y605951D01*
X794575Y605906D01*
X794586Y605879D01*
X794597Y605857D01*
Y605851D01*
X794642Y605723D01*
X794681Y605596D01*
X794747Y605346D01*
X794792Y605102D01*
X794808Y604991D01*
X794819Y604885D01*
X794831Y604785D01*
X794842Y604697D01*
X794847Y604613D01*
Y604547D01*
X794853Y604491D01*
Y604452D01*
Y604430D01*
Y604419D01*
X794842Y604191D01*
X794819Y603964D01*
X794786Y603753D01*
X794770Y603653D01*
X794747Y603559D01*
X794731Y603476D01*
X794714Y603398D01*
X794698Y603331D01*
X794681Y603270D01*
X794664Y603226D01*
X794659Y603187D01*
X794648Y603165D01*
Y603159D01*
X794559Y602920D01*
X794464Y602687D01*
X794409Y602582D01*
X794359Y602477D01*
X794309Y602377D01*
X794259Y602288D01*
X794215Y602205D01*
X794170Y602127D01*
X794131Y602060D01*
X794098Y602005D01*
X794070Y601960D01*
X794048Y601927D01*
X794037Y601905D01*
X794031Y601899D01*
X793526D01*
X793571Y601994D01*
X793610Y602077D01*
X793643Y602160D01*
X793676Y602232D01*
X793704Y602304D01*
X793732Y602365D01*
X793754Y602421D01*
X793776Y602477D01*
X793798Y602521D01*
X793810Y602560D01*
X793826Y602593D01*
X793837Y602621D01*
X793843Y602643D01*
X793848Y602660D01*
X793854Y602665D01*
Y602671D01*
X793904Y602821D01*
X793948Y602970D01*
X793982Y603115D01*
X794015Y603248D01*
X794026Y603303D01*
X794037Y603359D01*
X794048Y603403D01*
X794054Y603442D01*
X794065Y603476D01*
Y603498D01*
X794070Y603514D01*
Y603520D01*
X794098Y603686D01*
X794115Y603847D01*
X794131Y603997D01*
X794137Y604130D01*
X794142Y604191D01*
Y604241D01*
X794148Y604291D01*
Y604330D01*
Y604358D01*
Y604386D01*
Y604397D01*
Y604402D01*
X794142Y604635D01*
X794126Y604852D01*
X794115Y604957D01*
X794104Y605052D01*
X794093Y605146D01*
X794081Y605229D01*
X794070Y605307D01*
X794059Y605374D01*
X794048Y605435D01*
X794037Y605490D01*
X794026Y605529D01*
X794020Y605562D01*
X794015Y605579D01*
Y605584D01*
X793987Y605690D01*
X793954Y605801D01*
X793882Y606029D01*
X793798Y606256D01*
X793759Y606367D01*
X793715Y606472D01*
X793676Y606567D01*
X793643Y606656D01*
X793610Y606739D01*
X793576Y606806D01*
X793554Y606861D01*
X793538Y606905D01*
X793526Y606928D01*
X793521Y606939D01*
X794026D01*
X794148Y606750D01*
D02*
G37*
G36*
X805265Y616939D02*
X805442Y616917D01*
X805520Y616900D01*
X805598Y616883D01*
X805670Y616867D01*
X805731Y616850D01*
X805786Y616828D01*
X805842Y616811D01*
X805881Y616794D01*
X805919Y616783D01*
X805947Y616767D01*
X805970Y616761D01*
X805981Y616750D01*
X805986D01*
X806158Y616650D01*
X806230Y616589D01*
X806303Y616534D01*
X806369Y616472D01*
X806430Y616411D01*
X806486Y616350D01*
X806536Y616295D01*
X806574Y616239D01*
X806613Y616189D01*
X806647Y616145D01*
X806674Y616106D01*
X806691Y616073D01*
X806708Y616051D01*
X806713Y616034D01*
X806719Y616028D01*
X806763Y615940D01*
X806802Y615851D01*
X806863Y615668D01*
X806907Y615485D01*
X806935Y615324D01*
X806946Y615246D01*
X806957Y615179D01*
X806963Y615118D01*
Y615063D01*
X806968Y615024D01*
Y614991D01*
Y614968D01*
Y614963D01*
X806957Y614757D01*
X806935Y614569D01*
X806896Y614397D01*
X806880Y614314D01*
X806857Y614241D01*
X806835Y614175D01*
X806819Y614114D01*
X806796Y614064D01*
X806780Y614019D01*
X806769Y613986D01*
X806758Y613958D01*
X806746Y613942D01*
Y613936D01*
X806652Y613770D01*
X806547Y613625D01*
X806436Y613498D01*
X806325Y613398D01*
X806275Y613353D01*
X806225Y613314D01*
X806186Y613281D01*
X806147Y613259D01*
X806119Y613237D01*
X806092Y613220D01*
X806081Y613215D01*
X806075Y613209D01*
X805986Y613165D01*
X805903Y613126D01*
X805720Y613065D01*
X805542Y613020D01*
X805381Y612993D01*
X805303Y612982D01*
X805237Y612970D01*
X805176Y612965D01*
X805120D01*
X805081Y612959D01*
X805020D01*
X804843Y612965D01*
X804676Y612987D01*
X804515Y613015D01*
X804377Y613048D01*
X804316Y613065D01*
X804260Y613082D01*
X804210Y613098D01*
X804166Y613109D01*
X804132Y613120D01*
X804110Y613131D01*
X804094Y613137D01*
X804088D01*
X803922Y613203D01*
X803783Y613276D01*
X803661Y613348D01*
X803555Y613409D01*
X803477Y613464D01*
X803450Y613487D01*
X803422Y613509D01*
X803405Y613525D01*
X803389Y613537D01*
X803378Y613548D01*
Y615091D01*
X805048D01*
Y614441D01*
X804160D01*
Y613947D01*
X804227Y613897D01*
X804299Y613853D01*
X804371Y613814D01*
X804438Y613781D01*
X804493Y613753D01*
X804543Y613731D01*
X804571Y613720D01*
X804576Y613714D01*
X804582D01*
X804671Y613681D01*
X804760Y613659D01*
X804843Y613642D01*
X804915Y613631D01*
X804982Y613625D01*
X805026Y613620D01*
X805070D01*
X805159Y613625D01*
X805248Y613636D01*
X805326Y613653D01*
X805403Y613675D01*
X805542Y613731D01*
X805598Y613759D01*
X805653Y613792D01*
X805703Y613825D01*
X805748Y613853D01*
X805781Y613886D01*
X805814Y613908D01*
X805836Y613931D01*
X805853Y613947D01*
X805864Y613958D01*
X805870Y613964D01*
X805919Y614031D01*
X805970Y614108D01*
X806008Y614186D01*
X806042Y614269D01*
X806097Y614441D01*
X806131Y614608D01*
X806142Y614685D01*
X806153Y614763D01*
X806158Y614824D01*
X806164Y614885D01*
X806169Y614930D01*
Y614968D01*
Y614991D01*
Y614996D01*
X806164Y615113D01*
X806158Y615218D01*
X806142Y615324D01*
X806125Y615418D01*
X806103Y615501D01*
X806075Y615579D01*
X806047Y615651D01*
X806019Y615718D01*
X805997Y615773D01*
X805970Y615823D01*
X805942Y615862D01*
X805919Y615895D01*
X805903Y615923D01*
X805886Y615940D01*
X805881Y615951D01*
X805875Y615956D01*
X805814Y616012D01*
X805753Y616067D01*
X805686Y616106D01*
X805620Y616145D01*
X805553Y616178D01*
X805487Y616206D01*
X805359Y616245D01*
X805298Y616256D01*
X805243Y616267D01*
X805192Y616273D01*
X805148Y616278D01*
X805115Y616284D01*
X805065D01*
X804943Y616278D01*
X804837Y616256D01*
X804743Y616234D01*
X804660Y616201D01*
X804599Y616173D01*
X804549Y616145D01*
X804521Y616123D01*
X804510Y616117D01*
X804432Y616051D01*
X804366Y615978D01*
X804310Y615906D01*
X804271Y615834D01*
X804238Y615768D01*
X804216Y615718D01*
X804205Y615684D01*
X804199Y615679D01*
Y615673D01*
X803428Y615818D01*
X803450Y615912D01*
X803483Y616006D01*
X803516Y616089D01*
X803561Y616167D01*
X803600Y616245D01*
X803644Y616312D01*
X803689Y616373D01*
X803733Y616428D01*
X803777Y616478D01*
X803816Y616523D01*
X803849Y616561D01*
X803883Y616589D01*
X803911Y616611D01*
X803933Y616633D01*
X803944Y616639D01*
X803949Y616644D01*
X804027Y616700D01*
X804110Y616744D01*
X804199Y616783D01*
X804293Y616817D01*
X804477Y616872D01*
X804654Y616905D01*
X804737Y616922D01*
X804815Y616928D01*
X804887Y616933D01*
X804948Y616939D01*
X804998Y616944D01*
X805065D01*
X805265Y616939D01*
D02*
G37*
G36*
X800092Y596939D02*
X800236Y596922D01*
X800364Y596894D01*
X800492Y596861D01*
X800603Y596822D01*
X800714Y596778D01*
X800808Y596728D01*
X800897Y596678D01*
X800980Y596628D01*
X801047Y596578D01*
X801108Y596534D01*
X801158Y596495D01*
X801196Y596461D01*
X801224Y596434D01*
X801241Y596417D01*
X801246Y596411D01*
X801335Y596306D01*
X801407Y596195D01*
X801474Y596078D01*
X801530Y595956D01*
X801579Y595829D01*
X801618Y595707D01*
X801652Y595584D01*
X801679Y595468D01*
X801702Y595351D01*
X801713Y595252D01*
X801724Y595157D01*
X801735Y595079D01*
Y595013D01*
X801740Y594963D01*
Y594930D01*
Y594924D01*
Y594918D01*
X801735Y594752D01*
X801718Y594597D01*
X801696Y594447D01*
X801663Y594314D01*
X801629Y594186D01*
X801585Y594064D01*
X801541Y593958D01*
X801496Y593864D01*
X801452Y593775D01*
X801407Y593698D01*
X801363Y593636D01*
X801330Y593581D01*
X801296Y593542D01*
X801274Y593509D01*
X801258Y593492D01*
X801252Y593487D01*
X801158Y593392D01*
X801058Y593315D01*
X800952Y593242D01*
X800847Y593187D01*
X800741Y593137D01*
X800636Y593093D01*
X800536Y593059D01*
X800442Y593032D01*
X800347Y593009D01*
X800264Y592993D01*
X800186Y592981D01*
X800125Y592976D01*
X800070Y592970D01*
X800031Y592965D01*
X799998D01*
X799881Y592970D01*
X799776Y592976D01*
X799670Y592993D01*
X799576Y593015D01*
X799487Y593037D01*
X799404Y593059D01*
X799326Y593087D01*
X799254Y593120D01*
X799193Y593148D01*
X799137Y593176D01*
X799087Y593198D01*
X799049Y593220D01*
X799015Y593242D01*
X798993Y593259D01*
X798982Y593265D01*
X798977Y593270D01*
X798904Y593331D01*
X798838Y593398D01*
X798716Y593548D01*
X798616Y593703D01*
X798538Y593853D01*
X798505Y593925D01*
X798477Y593992D01*
X798455Y594053D01*
X798433Y594103D01*
X798416Y594147D01*
X798405Y594180D01*
X798399Y594203D01*
Y594208D01*
X799154Y594441D01*
X799198Y594291D01*
X799248Y594164D01*
X799298Y594058D01*
X799354Y593969D01*
X799398Y593903D01*
X799437Y593858D01*
X799465Y593831D01*
X799476Y593820D01*
X799565Y593753D01*
X799654Y593709D01*
X799742Y593675D01*
X799820Y593647D01*
X799892Y593636D01*
X799953Y593631D01*
X799975Y593625D01*
X800003D01*
X800081Y593631D01*
X800153Y593636D01*
X800286Y593675D01*
X800403Y593720D01*
X800497Y593781D01*
X800575Y593836D01*
X800630Y593881D01*
X800653Y593903D01*
X800669Y593920D01*
X800675Y593925D01*
X800680Y593931D01*
X800725Y593992D01*
X800764Y594064D01*
X800803Y594141D01*
X800830Y594225D01*
X800875Y594397D01*
X800908Y594569D01*
X800919Y594652D01*
X800924Y594724D01*
X800936Y594796D01*
Y594857D01*
X800941Y594902D01*
Y594941D01*
Y594969D01*
Y594974D01*
X800936Y595102D01*
X800930Y595218D01*
X800919Y595324D01*
X800902Y595424D01*
X800880Y595512D01*
X800858Y595596D01*
X800836Y595668D01*
X800808Y595734D01*
X800786Y595790D01*
X800764Y595840D01*
X800741Y595879D01*
X800719Y595912D01*
X800702Y595940D01*
X800691Y595956D01*
X800680Y595967D01*
Y595973D01*
X800630Y596029D01*
X800575Y596078D01*
X800519Y596117D01*
X800458Y596151D01*
X800342Y596206D01*
X800231Y596245D01*
X800136Y596267D01*
X800092Y596273D01*
X800059Y596278D01*
X800025Y596284D01*
X799987D01*
X799876Y596278D01*
X799776Y596256D01*
X799687Y596228D01*
X799609Y596195D01*
X799548Y596162D01*
X799504Y596134D01*
X799476Y596112D01*
X799465Y596106D01*
X799393Y596040D01*
X799326Y595962D01*
X799276Y595884D01*
X799237Y595807D01*
X799210Y595740D01*
X799193Y595690D01*
X799182Y595668D01*
Y595651D01*
X799176Y595646D01*
Y595640D01*
X798410Y595823D01*
X798466Y595984D01*
X798527Y596123D01*
X798594Y596245D01*
X798655Y596345D01*
X798716Y596422D01*
X798738Y596456D01*
X798760Y596484D01*
X798777Y596500D01*
X798793Y596517D01*
X798799Y596528D01*
X798804D01*
X798888Y596600D01*
X798982Y596667D01*
X799071Y596722D01*
X799165Y596767D01*
X799265Y596811D01*
X799360Y596844D01*
X799454Y596872D01*
X799543Y596894D01*
X799626Y596911D01*
X799704Y596922D01*
X799770Y596933D01*
X799831Y596939D01*
X799881Y596944D01*
X799948D01*
X800092Y596939D01*
D02*
G37*
G36*
X806968Y593032D02*
X806252D01*
Y595562D01*
X804693Y593032D01*
X803916D01*
Y596872D01*
X804632D01*
Y594286D01*
X806219Y596872D01*
X806968D01*
Y593032D01*
D02*
G37*
G36*
Y603031D02*
X806192D01*
Y604635D01*
X805942D01*
X805864Y604630D01*
X805797Y604624D01*
X805742Y604613D01*
X805698Y604608D01*
X805670Y604597D01*
X805653Y604591D01*
X805648D01*
X805603Y604569D01*
X805559Y604547D01*
X805520Y604519D01*
X805481Y604497D01*
X805453Y604469D01*
X805431Y604447D01*
X805420Y604436D01*
X805414Y604430D01*
X805392Y604402D01*
X805365Y604375D01*
X805303Y604291D01*
X805237Y604203D01*
X805165Y604103D01*
X805104Y604014D01*
X805076Y603969D01*
X805054Y603936D01*
X805031Y603908D01*
X805015Y603886D01*
X805009Y603869D01*
X805004Y603864D01*
X804449Y603031D01*
X803516D01*
X803988Y603781D01*
X804038Y603858D01*
X804088Y603936D01*
X804132Y604003D01*
X804177Y604064D01*
X804216Y604119D01*
X804249Y604175D01*
X804316Y604258D01*
X804366Y604325D01*
X804399Y604369D01*
X804427Y604397D01*
X804432Y604402D01*
X804493Y604469D01*
X804565Y604530D01*
X804632Y604580D01*
X804698Y604630D01*
X804754Y604669D01*
X804798Y604697D01*
X804832Y604719D01*
X804837Y604724D01*
X804843D01*
X804749Y604741D01*
X804665Y604763D01*
X804588Y604785D01*
X804510Y604813D01*
X804443Y604841D01*
X804382Y604869D01*
X804321Y604896D01*
X804271Y604930D01*
X804227Y604957D01*
X804188Y604985D01*
X804155Y605013D01*
X804132Y605035D01*
X804110Y605052D01*
X804094Y605068D01*
X804088Y605074D01*
X804082Y605079D01*
X804038Y605135D01*
X803999Y605190D01*
X803933Y605313D01*
X803888Y605429D01*
X803860Y605546D01*
X803838Y605646D01*
X803833Y605684D01*
Y605723D01*
X803827Y605751D01*
Y605779D01*
Y605790D01*
Y605795D01*
X803833Y605918D01*
X803855Y606034D01*
X803883Y606134D01*
X803911Y606223D01*
X803944Y606295D01*
X803971Y606350D01*
X803983Y606367D01*
X803994Y606384D01*
X803999Y606389D01*
Y606395D01*
X804066Y606489D01*
X804138Y606567D01*
X804210Y606628D01*
X804282Y606683D01*
X804349Y606717D01*
X804399Y606744D01*
X804432Y606761D01*
X804438Y606767D01*
X804443D01*
X804499Y606783D01*
X804560Y606800D01*
X804698Y606828D01*
X804848Y606844D01*
X804993Y606861D01*
X805065D01*
X805126Y606867D01*
X805187D01*
X805237Y606872D01*
X806968D01*
Y603031D01*
D02*
G37*
G36*
X788803Y604053D02*
X788798Y603914D01*
X788787Y603792D01*
X788770Y603686D01*
X788753Y603598D01*
X788737Y603525D01*
X788720Y603476D01*
X788709Y603448D01*
X788703Y603437D01*
X788659Y603359D01*
X788609Y603287D01*
X788559Y603231D01*
X788504Y603181D01*
X788459Y603142D01*
X788415Y603115D01*
X788393Y603098D01*
X788381Y603093D01*
X788298Y603054D01*
X788209Y603020D01*
X788126Y602998D01*
X788043Y602987D01*
X787976Y602976D01*
X787926Y602970D01*
X787877D01*
X787777Y602976D01*
X787682Y602987D01*
X787594Y603009D01*
X787516Y603031D01*
X787449Y603054D01*
X787399Y603076D01*
X787366Y603087D01*
X787355Y603093D01*
X787266Y603142D01*
X787188Y603203D01*
X787116Y603259D01*
X787061Y603320D01*
X787011Y603370D01*
X786977Y603409D01*
X786955Y603437D01*
X786950Y603448D01*
Y603031D01*
X786267D01*
Y605818D01*
X787005D01*
Y604641D01*
Y604535D01*
Y604441D01*
X787011Y604352D01*
X787016Y604275D01*
Y604203D01*
X787022Y604142D01*
X787027Y604092D01*
X787033Y604042D01*
X787039Y604003D01*
X787044Y603975D01*
X787049Y603947D01*
Y603925D01*
X787061Y603897D01*
Y603892D01*
X787083Y603836D01*
X787116Y603786D01*
X787149Y603748D01*
X787183Y603709D01*
X787216Y603675D01*
X787244Y603653D01*
X787260Y603642D01*
X787266Y603636D01*
X787322Y603603D01*
X787383Y603581D01*
X787438Y603559D01*
X787494Y603548D01*
X787538Y603542D01*
X787571Y603537D01*
X787605D01*
X787666Y603542D01*
X787715Y603548D01*
X787766Y603559D01*
X787804Y603575D01*
X787838Y603586D01*
X787860Y603598D01*
X787877Y603603D01*
X787882Y603609D01*
X787921Y603642D01*
X787949Y603675D01*
X787976Y603709D01*
X787993Y603742D01*
X788010Y603775D01*
X788021Y603797D01*
X788026Y603814D01*
Y603820D01*
X788032Y603847D01*
X788037Y603886D01*
X788043Y603936D01*
X788049Y603986D01*
X788054Y604103D01*
X788060Y604230D01*
X788065Y604347D01*
Y604397D01*
Y604441D01*
Y604480D01*
Y604508D01*
Y604530D01*
Y604535D01*
Y605818D01*
X788803D01*
Y604053D01*
D02*
G37*
G36*
X785473Y606373D02*
Y605818D01*
X785812D01*
Y605229D01*
X785473D01*
Y604014D01*
Y603942D01*
Y603881D01*
Y603820D01*
X785468Y603770D01*
Y603681D01*
X785462Y603609D01*
X785457Y603553D01*
Y603520D01*
X785451Y603498D01*
Y603492D01*
X785440Y603431D01*
X785423Y603376D01*
X785407Y603326D01*
X785390Y603287D01*
X785373Y603254D01*
X785362Y603231D01*
X785357Y603215D01*
X785351Y603209D01*
X785318Y603170D01*
X785279Y603137D01*
X785201Y603082D01*
X785168Y603065D01*
X785140Y603048D01*
X785118Y603043D01*
X785113Y603037D01*
X785052Y603015D01*
X784991Y602998D01*
X784929Y602987D01*
X784874Y602982D01*
X784824Y602976D01*
X784785Y602970D01*
X784752D01*
X784635Y602976D01*
X784524Y602987D01*
X784424Y603004D01*
X784341Y603026D01*
X784269Y603043D01*
X784213Y603059D01*
X784180Y603070D01*
X784175Y603076D01*
X784169D01*
X784236Y603648D01*
X784302Y603625D01*
X784363Y603609D01*
X784413Y603598D01*
X784458Y603592D01*
X784491Y603586D01*
X784513Y603581D01*
X784535D01*
X784585Y603586D01*
X784624Y603598D01*
X784646Y603609D01*
X784657Y603614D01*
X784691Y603648D01*
X784707Y603675D01*
X784719Y603697D01*
X784724Y603709D01*
Y603720D01*
X784730Y603742D01*
Y603792D01*
Y603858D01*
X784735Y603925D01*
Y603992D01*
Y604047D01*
Y604069D01*
Y604086D01*
Y604097D01*
Y604103D01*
Y605229D01*
X784230D01*
Y605818D01*
X784735D01*
Y606806D01*
X785473Y606373D01*
D02*
G37*
G36*
X791429Y606939D02*
X791589Y606922D01*
X791728Y606894D01*
X791850Y606867D01*
X791900Y606850D01*
X791950Y606839D01*
X791989Y606828D01*
X792022Y606811D01*
X792050Y606806D01*
X792072Y606794D01*
X792083Y606789D01*
X792089D01*
X792189Y606744D01*
X792283Y606689D01*
X792366Y606628D01*
X792439Y606572D01*
X792500Y606523D01*
X792550Y606478D01*
X792577Y606450D01*
X792583Y606445D01*
X792589Y606439D01*
X792666Y606350D01*
X792738Y606256D01*
X792799Y606173D01*
X792849Y606089D01*
X792888Y606017D01*
X792921Y605962D01*
X792927Y605940D01*
X792938Y605923D01*
X792944Y605918D01*
Y605912D01*
X792999Y605757D01*
X793044Y605590D01*
X793071Y605423D01*
X793093Y605268D01*
X793099Y605196D01*
X793105Y605129D01*
X793110Y605074D01*
Y605024D01*
X793116Y604980D01*
Y604952D01*
Y604930D01*
Y604924D01*
X793110Y604757D01*
X793093Y604597D01*
X793071Y604447D01*
X793038Y604308D01*
X792999Y604180D01*
X792955Y604064D01*
X792910Y603953D01*
X792860Y603858D01*
X792816Y603770D01*
X792772Y603697D01*
X792727Y603631D01*
X792688Y603575D01*
X792655Y603537D01*
X792633Y603503D01*
X792616Y603487D01*
X792611Y603481D01*
X792511Y603387D01*
X792405Y603309D01*
X792300Y603237D01*
X792183Y603181D01*
X792072Y603131D01*
X791956Y603087D01*
X791850Y603054D01*
X791739Y603026D01*
X791639Y603004D01*
X791545Y602987D01*
X791462Y602976D01*
X791390Y602970D01*
X791334Y602965D01*
X791290Y602959D01*
X791251D01*
X791095Y602965D01*
X790951Y602982D01*
X790812Y603009D01*
X790685Y603043D01*
X790563Y603082D01*
X790452Y603126D01*
X790352Y603170D01*
X790257Y603220D01*
X790180Y603270D01*
X790108Y603314D01*
X790047Y603359D01*
X789997Y603398D01*
X789952Y603431D01*
X789924Y603459D01*
X789908Y603476D01*
X789902Y603481D01*
X789814Y603586D01*
X789736Y603697D01*
X789664Y603814D01*
X789608Y603931D01*
X789558Y604053D01*
X789514Y604175D01*
X789480Y604297D01*
X789453Y604414D01*
X789436Y604519D01*
X789419Y604624D01*
X789408Y604713D01*
X789397Y604791D01*
Y604857D01*
X789392Y604907D01*
Y604935D01*
Y604946D01*
X789397Y605118D01*
X789414Y605279D01*
X789436Y605429D01*
X789469Y605573D01*
X789508Y605701D01*
X789553Y605823D01*
X789597Y605934D01*
X789647Y606029D01*
X789697Y606117D01*
X789741Y606195D01*
X789786Y606262D01*
X789824Y606317D01*
X789852Y606356D01*
X789880Y606389D01*
X789897Y606406D01*
X789902Y606411D01*
X790002Y606506D01*
X790108Y606589D01*
X790219Y606661D01*
X790330Y606722D01*
X790446Y606772D01*
X790557Y606817D01*
X790668Y606850D01*
X790774Y606878D01*
X790873Y606900D01*
X790968Y606917D01*
X791051Y606928D01*
X791123Y606939D01*
X791179D01*
X791223Y606944D01*
X791262D01*
X791429Y606939D01*
D02*
G37*
G36*
X798638D02*
X798782Y606922D01*
X798910Y606900D01*
X799021Y606878D01*
X799071Y606861D01*
X799115Y606850D01*
X799149Y606839D01*
X799182Y606828D01*
X799204Y606817D01*
X799221Y606811D01*
X799232Y606806D01*
X799237D01*
X799348Y606750D01*
X799443Y606689D01*
X799526Y606622D01*
X799593Y606561D01*
X799648Y606506D01*
X799681Y606461D01*
X799709Y606428D01*
X799715Y606423D01*
Y606417D01*
X799770Y606323D01*
X799809Y606223D01*
X799837Y606128D01*
X799853Y606045D01*
X799864Y605973D01*
X799876Y605918D01*
Y605895D01*
Y605879D01*
Y605873D01*
Y605868D01*
X799870Y605784D01*
X799859Y605701D01*
X799842Y605629D01*
X799820Y605557D01*
X799765Y605423D01*
X799698Y605307D01*
X799670Y605257D01*
X799637Y605218D01*
X799609Y605179D01*
X799581Y605146D01*
X799559Y605124D01*
X799543Y605107D01*
X799532Y605096D01*
X799526Y605091D01*
X799476Y605052D01*
X799415Y605013D01*
X799354Y604974D01*
X799282Y604941D01*
X799143Y604874D01*
X798999Y604819D01*
X798927Y604796D01*
X798866Y604774D01*
X798804Y604757D01*
X798755Y604741D01*
X798716Y604730D01*
X798682Y604719D01*
X798660Y604713D01*
X798655D01*
X798566Y604691D01*
X798488Y604669D01*
X798416Y604652D01*
X798349Y604635D01*
X798294Y604619D01*
X798244Y604608D01*
X798200Y604591D01*
X798161Y604580D01*
X798127Y604574D01*
X798100Y604563D01*
X798061Y604552D01*
X798039Y604541D01*
X798033D01*
X797961Y604513D01*
X797905Y604486D01*
X797855Y604458D01*
X797817Y604430D01*
X797789Y604408D01*
X797772Y604391D01*
X797761Y604380D01*
X797755Y604375D01*
X797728Y604336D01*
X797706Y604297D01*
X797694Y604258D01*
X797683Y604225D01*
X797678Y604191D01*
X797672Y604164D01*
Y604147D01*
Y604142D01*
X797678Y604064D01*
X797700Y603997D01*
X797733Y603931D01*
X797767Y603875D01*
X797806Y603831D01*
X797833Y603797D01*
X797855Y603775D01*
X797866Y603770D01*
X797944Y603720D01*
X798033Y603681D01*
X798127Y603653D01*
X798216Y603636D01*
X798299Y603625D01*
X798366Y603614D01*
X798427D01*
X798555Y603620D01*
X798666Y603642D01*
X798760Y603670D01*
X798843Y603703D01*
X798910Y603736D01*
X798954Y603764D01*
X798982Y603786D01*
X798993Y603792D01*
X799065Y603869D01*
X799121Y603953D01*
X799171Y604047D01*
X799204Y604142D01*
X799232Y604225D01*
X799254Y604291D01*
X799260Y604314D01*
Y604336D01*
X799265Y604347D01*
Y604352D01*
X800020Y604280D01*
X800003Y604164D01*
X799981Y604053D01*
X799948Y603947D01*
X799920Y603853D01*
X799881Y603764D01*
X799842Y603681D01*
X799803Y603609D01*
X799765Y603542D01*
X799726Y603487D01*
X799687Y603437D01*
X799654Y603392D01*
X799620Y603353D01*
X799598Y603326D01*
X799576Y603309D01*
X799565Y603298D01*
X799559Y603292D01*
X799481Y603231D01*
X799398Y603181D01*
X799309Y603137D01*
X799215Y603098D01*
X799126Y603070D01*
X799032Y603043D01*
X798849Y603004D01*
X798766Y602987D01*
X798688Y602976D01*
X798621Y602970D01*
X798560Y602965D01*
X798510Y602959D01*
X798438D01*
X798260Y602965D01*
X798100Y602982D01*
X797955Y603004D01*
X797894Y603015D01*
X797833Y603031D01*
X797783Y603043D01*
X797739Y603054D01*
X797700Y603065D01*
X797667Y603076D01*
X797639Y603087D01*
X797622Y603093D01*
X797611Y603098D01*
X797606D01*
X797484Y603159D01*
X797384Y603226D01*
X797289Y603292D01*
X797217Y603365D01*
X797162Y603426D01*
X797117Y603481D01*
X797095Y603514D01*
X797084Y603520D01*
Y603525D01*
X797023Y603636D01*
X796973Y603742D01*
X796940Y603847D01*
X796917Y603947D01*
X796906Y604025D01*
X796901Y604064D01*
X796895Y604092D01*
Y604114D01*
Y604130D01*
Y604142D01*
Y604147D01*
X796901Y604280D01*
X796917Y604397D01*
X796945Y604502D01*
X796973Y604591D01*
X797001Y604663D01*
X797028Y604713D01*
X797045Y604746D01*
X797051Y604757D01*
X797112Y604846D01*
X797184Y604924D01*
X797256Y604991D01*
X797323Y605046D01*
X797384Y605091D01*
X797434Y605124D01*
X797467Y605146D01*
X797472Y605152D01*
X797478D01*
X797534Y605179D01*
X797589Y605207D01*
X797722Y605257D01*
X797861Y605302D01*
X797994Y605346D01*
X798055Y605363D01*
X798116Y605379D01*
X798172Y605396D01*
X798216Y605407D01*
X798255Y605418D01*
X798283Y605423D01*
X798305Y605429D01*
X798311D01*
X798410Y605457D01*
X798499Y605479D01*
X798582Y605501D01*
X798660Y605523D01*
X798721Y605546D01*
X798782Y605568D01*
X798832Y605590D01*
X798877Y605607D01*
X798915Y605623D01*
X798943Y605640D01*
X798971Y605651D01*
X798988Y605662D01*
X799015Y605679D01*
X799021Y605684D01*
X799060Y605723D01*
X799087Y605762D01*
X799104Y605801D01*
X799115Y605840D01*
X799126Y605868D01*
X799132Y605895D01*
Y605912D01*
Y605918D01*
X799126Y605973D01*
X799115Y606017D01*
X799093Y606062D01*
X799071Y606095D01*
X799049Y606123D01*
X799026Y606140D01*
X799015Y606151D01*
X799010Y606156D01*
X798932Y606206D01*
X798849Y606239D01*
X798760Y606267D01*
X798677Y606284D01*
X798605Y606295D01*
X798544Y606300D01*
X798488D01*
X798372Y606295D01*
X798272Y606278D01*
X798188Y606256D01*
X798122Y606234D01*
X798066Y606212D01*
X798028Y606189D01*
X798005Y606173D01*
X798000Y606167D01*
X797944Y606112D01*
X797894Y606045D01*
X797855Y605978D01*
X797828Y605906D01*
X797806Y605845D01*
X797794Y605795D01*
X797783Y605757D01*
Y605751D01*
Y605745D01*
X797006Y605773D01*
X797012Y605873D01*
X797028Y605962D01*
X797051Y606051D01*
X797078Y606128D01*
X797106Y606206D01*
X797140Y606278D01*
X797173Y606339D01*
X797206Y606400D01*
X797245Y606450D01*
X797278Y606495D01*
X797311Y606534D01*
X797339Y606567D01*
X797361Y606589D01*
X797378Y606606D01*
X797389Y606617D01*
X797395Y606622D01*
X797467Y606678D01*
X797545Y606728D01*
X797628Y606772D01*
X797717Y606811D01*
X797806Y606839D01*
X797894Y606867D01*
X798072Y606905D01*
X798155Y606917D01*
X798227Y606928D01*
X798299Y606933D01*
X798360Y606939D01*
X798410Y606944D01*
X798477D01*
X798638Y606939D01*
D02*
G37*
G36*
X803367Y606223D02*
X802229D01*
Y603031D01*
X801452D01*
Y606223D01*
X800320D01*
Y606872D01*
X803367D01*
Y606223D01*
D02*
G37*
G36*
X803494Y592965D02*
X802950D01*
X801990Y596939D01*
X802545D01*
X803494Y592965D01*
D02*
G37*
G36*
X802656Y613031D02*
X801940D01*
Y615562D01*
X800381Y613031D01*
X799604D01*
Y616872D01*
X800320D01*
Y614286D01*
X801907Y616872D01*
X802656D01*
Y613031D01*
D02*
G37*
G36*
X802484Y575030D02*
X803811Y573032D01*
X802878D01*
X802023Y574330D01*
X801174Y573032D01*
X800242D01*
X801563Y575030D01*
X800358Y576872D01*
X801263D01*
X802023Y575723D01*
X802784Y576872D01*
X803689D01*
X802484Y575030D01*
D02*
G37*
G36*
X791612Y586794D02*
X791556Y586650D01*
X791501Y586517D01*
X791451Y586389D01*
X791406Y586273D01*
X791367Y586162D01*
X791334Y586056D01*
X791301Y585962D01*
X791273Y585879D01*
X791251Y585801D01*
X791229Y585740D01*
X791218Y585684D01*
X791207Y585640D01*
X791195Y585612D01*
X791190Y585590D01*
Y585584D01*
X791145Y585374D01*
X791112Y585168D01*
X791084Y584969D01*
X791073Y584874D01*
X791068Y584785D01*
X791062Y584702D01*
X791057Y584630D01*
Y584563D01*
X791051Y584508D01*
Y584463D01*
Y584430D01*
Y584408D01*
Y584402D01*
Y584291D01*
X791057Y584180D01*
X791062Y584081D01*
X791068Y583986D01*
X791079Y583914D01*
X791084Y583853D01*
Y583831D01*
X791090Y583814D01*
Y583809D01*
Y583803D01*
X791123Y583587D01*
X791145Y583481D01*
X791162Y583387D01*
X791179Y583303D01*
X791195Y583242D01*
X791201Y583220D01*
Y583204D01*
X791207Y583192D01*
Y583187D01*
X791234Y583070D01*
X791262Y582965D01*
X791290Y582865D01*
X791312Y582782D01*
X791334Y582715D01*
X791351Y582665D01*
X791362Y582632D01*
X791367Y582626D01*
Y582621D01*
X791406Y582521D01*
X791451Y582404D01*
X791501Y582282D01*
X791551Y582166D01*
X791601Y582060D01*
X791617Y582016D01*
X791639Y581977D01*
X791650Y581944D01*
X791662Y581921D01*
X791673Y581905D01*
Y581899D01*
X791162D01*
X791079Y582027D01*
X791007Y582155D01*
X790940Y582282D01*
X790873Y582404D01*
X790818Y582526D01*
X790763Y582637D01*
X790718Y582748D01*
X790674Y582848D01*
X790635Y582943D01*
X790607Y583026D01*
X790579Y583098D01*
X790557Y583165D01*
X790541Y583215D01*
X790529Y583248D01*
X790518Y583276D01*
Y583281D01*
X790463Y583514D01*
X790418Y583731D01*
X790402Y583831D01*
X790391Y583931D01*
X790374Y584019D01*
X790369Y584103D01*
X790363Y584180D01*
X790357Y584253D01*
X790352Y584314D01*
X790346Y584364D01*
Y584402D01*
Y584436D01*
Y584452D01*
Y584458D01*
X790357Y584702D01*
X790380Y584930D01*
X790396Y585041D01*
X790418Y585152D01*
X790435Y585252D01*
X790457Y585340D01*
X790479Y585429D01*
X790496Y585507D01*
X790518Y585573D01*
X790535Y585629D01*
X790546Y585679D01*
X790557Y585712D01*
X790568Y585734D01*
Y585740D01*
X790657Y585973D01*
X790757Y586195D01*
X790807Y586301D01*
X790857Y586395D01*
X790907Y586489D01*
X790957Y586578D01*
X791001Y586656D01*
X791040Y586728D01*
X791079Y586789D01*
X791112Y586839D01*
X791140Y586883D01*
X791162Y586911D01*
X791173Y586933D01*
X791179Y586939D01*
X791678D01*
X791612Y586794D01*
D02*
G37*
G36*
X806968Y576223D02*
X805831D01*
Y573032D01*
X805054D01*
Y576223D01*
X803922D01*
Y576872D01*
X806968D01*
Y576223D01*
D02*
G37*
G36*
X792405Y574053D02*
X792400Y573914D01*
X792389Y573792D01*
X792372Y573686D01*
X792355Y573598D01*
X792339Y573525D01*
X792322Y573476D01*
X792311Y573448D01*
X792305Y573437D01*
X792261Y573359D01*
X792211Y573287D01*
X792161Y573231D01*
X792106Y573181D01*
X792061Y573142D01*
X792017Y573115D01*
X791995Y573098D01*
X791984Y573093D01*
X791900Y573054D01*
X791811Y573020D01*
X791728Y572998D01*
X791645Y572987D01*
X791578Y572976D01*
X791528Y572970D01*
X791478D01*
X791378Y572976D01*
X791284Y572987D01*
X791195Y573009D01*
X791118Y573032D01*
X791051Y573054D01*
X791001Y573076D01*
X790968Y573087D01*
X790957Y573093D01*
X790868Y573142D01*
X790790Y573204D01*
X790718Y573259D01*
X790663Y573320D01*
X790613Y573370D01*
X790579Y573409D01*
X790557Y573437D01*
X790552Y573448D01*
Y573032D01*
X789869D01*
Y575818D01*
X790607D01*
Y574641D01*
Y574536D01*
Y574441D01*
X790613Y574352D01*
X790618Y574275D01*
Y574202D01*
X790624Y574142D01*
X790629Y574092D01*
X790635Y574042D01*
X790640Y574003D01*
X790646Y573975D01*
X790652Y573947D01*
Y573925D01*
X790663Y573897D01*
Y573892D01*
X790685Y573836D01*
X790718Y573786D01*
X790751Y573747D01*
X790785Y573709D01*
X790818Y573675D01*
X790846Y573653D01*
X790862Y573642D01*
X790868Y573636D01*
X790923Y573603D01*
X790984Y573581D01*
X791040Y573559D01*
X791095Y573548D01*
X791140Y573542D01*
X791173Y573536D01*
X791207D01*
X791268Y573542D01*
X791318Y573548D01*
X791367Y573559D01*
X791406Y573575D01*
X791440Y573587D01*
X791462Y573598D01*
X791478Y573603D01*
X791484Y573609D01*
X791523Y573642D01*
X791551Y573675D01*
X791578Y573709D01*
X791595Y573742D01*
X791612Y573775D01*
X791623Y573797D01*
X791628Y573814D01*
Y573820D01*
X791634Y573847D01*
X791639Y573886D01*
X791645Y573936D01*
X791650Y573986D01*
X791656Y574103D01*
X791662Y574230D01*
X791667Y574347D01*
Y574397D01*
Y574441D01*
Y574480D01*
Y574508D01*
Y574530D01*
Y574536D01*
Y575818D01*
X792405D01*
Y574053D01*
D02*
G37*
G36*
X789075Y576373D02*
Y575818D01*
X789414D01*
Y575229D01*
X789075D01*
Y574014D01*
Y573942D01*
Y573881D01*
Y573820D01*
X789070Y573770D01*
Y573681D01*
X789064Y573609D01*
X789059Y573553D01*
Y573520D01*
X789053Y573498D01*
Y573492D01*
X789042Y573431D01*
X789025Y573376D01*
X789009Y573326D01*
X788992Y573287D01*
X788975Y573253D01*
X788964Y573231D01*
X788959Y573215D01*
X788953Y573209D01*
X788920Y573170D01*
X788881Y573137D01*
X788803Y573081D01*
X788770Y573065D01*
X788742Y573048D01*
X788720Y573043D01*
X788715Y573037D01*
X788654Y573015D01*
X788592Y572998D01*
X788531Y572987D01*
X788476Y572982D01*
X788426Y572976D01*
X788387Y572970D01*
X788354D01*
X788237Y572976D01*
X788126Y572987D01*
X788026Y573004D01*
X787943Y573026D01*
X787871Y573043D01*
X787815Y573059D01*
X787782Y573070D01*
X787777Y573076D01*
X787771D01*
X787838Y573647D01*
X787904Y573625D01*
X787965Y573609D01*
X788015Y573598D01*
X788060Y573592D01*
X788093Y573587D01*
X788115Y573581D01*
X788137D01*
X788187Y573587D01*
X788226Y573598D01*
X788248Y573609D01*
X788260Y573614D01*
X788293Y573647D01*
X788309Y573675D01*
X788320Y573698D01*
X788326Y573709D01*
Y573720D01*
X788332Y573742D01*
Y573792D01*
Y573858D01*
X788337Y573925D01*
Y573992D01*
Y574047D01*
Y574069D01*
Y574086D01*
Y574097D01*
Y574103D01*
Y575229D01*
X787832D01*
Y575818D01*
X788337D01*
Y576805D01*
X789075Y576373D01*
D02*
G37*
G36*
X797428Y586750D02*
X797545Y586556D01*
X797639Y586373D01*
X797683Y586289D01*
X797722Y586206D01*
X797755Y586134D01*
X797789Y586062D01*
X797817Y586001D01*
X797839Y585951D01*
X797855Y585906D01*
X797866Y585879D01*
X797878Y585856D01*
Y585851D01*
X797922Y585723D01*
X797961Y585596D01*
X798028Y585346D01*
X798072Y585102D01*
X798089Y584991D01*
X798100Y584885D01*
X798111Y584785D01*
X798122Y584696D01*
X798127Y584613D01*
Y584547D01*
X798133Y584491D01*
Y584452D01*
Y584430D01*
Y584419D01*
X798122Y584191D01*
X798100Y583964D01*
X798066Y583753D01*
X798050Y583653D01*
X798028Y583559D01*
X798011Y583475D01*
X797994Y583398D01*
X797977Y583331D01*
X797961Y583270D01*
X797944Y583226D01*
X797939Y583187D01*
X797928Y583165D01*
Y583159D01*
X797839Y582921D01*
X797744Y582687D01*
X797689Y582582D01*
X797639Y582477D01*
X797589Y582377D01*
X797539Y582288D01*
X797495Y582205D01*
X797450Y582127D01*
X797411Y582060D01*
X797378Y582005D01*
X797350Y581960D01*
X797328Y581927D01*
X797317Y581905D01*
X797311Y581899D01*
X796806D01*
X796851Y581994D01*
X796890Y582077D01*
X796923Y582160D01*
X796956Y582232D01*
X796984Y582304D01*
X797012Y582366D01*
X797034Y582421D01*
X797056Y582477D01*
X797078Y582521D01*
X797089Y582560D01*
X797106Y582593D01*
X797117Y582621D01*
X797123Y582643D01*
X797128Y582660D01*
X797134Y582665D01*
Y582671D01*
X797184Y582821D01*
X797228Y582970D01*
X797261Y583115D01*
X797295Y583248D01*
X797306Y583303D01*
X797317Y583359D01*
X797328Y583403D01*
X797334Y583442D01*
X797345Y583475D01*
Y583498D01*
X797350Y583514D01*
Y583520D01*
X797378Y583686D01*
X797395Y583847D01*
X797411Y583997D01*
X797417Y584130D01*
X797423Y584191D01*
Y584241D01*
X797428Y584291D01*
Y584330D01*
Y584358D01*
Y584386D01*
Y584397D01*
Y584402D01*
X797423Y584635D01*
X797406Y584852D01*
X797395Y584957D01*
X797384Y585052D01*
X797372Y585146D01*
X797361Y585229D01*
X797350Y585307D01*
X797339Y585374D01*
X797328Y585435D01*
X797317Y585490D01*
X797306Y585529D01*
X797300Y585562D01*
X797295Y585579D01*
Y585584D01*
X797267Y585690D01*
X797234Y585801D01*
X797162Y586028D01*
X797078Y586256D01*
X797040Y586367D01*
X796995Y586473D01*
X796956Y586567D01*
X796923Y586656D01*
X796890Y586739D01*
X796856Y586805D01*
X796834Y586861D01*
X796818Y586905D01*
X796806Y586928D01*
X796801Y586939D01*
X797306D01*
X797428Y586750D01*
D02*
G37*
G36*
X806968Y583032D02*
X806192D01*
Y584635D01*
X805942D01*
X805864Y584630D01*
X805797Y584624D01*
X805742Y584613D01*
X805698Y584608D01*
X805670Y584597D01*
X805653Y584591D01*
X805648D01*
X805603Y584569D01*
X805559Y584547D01*
X805520Y584519D01*
X805481Y584497D01*
X805453Y584469D01*
X805431Y584447D01*
X805420Y584436D01*
X805414Y584430D01*
X805392Y584402D01*
X805365Y584375D01*
X805303Y584291D01*
X805237Y584202D01*
X805165Y584103D01*
X805104Y584014D01*
X805076Y583969D01*
X805054Y583936D01*
X805031Y583908D01*
X805015Y583886D01*
X805009Y583870D01*
X805004Y583864D01*
X804449Y583032D01*
X803516D01*
X803988Y583781D01*
X804038Y583858D01*
X804088Y583936D01*
X804132Y584003D01*
X804177Y584064D01*
X804216Y584119D01*
X804249Y584175D01*
X804316Y584258D01*
X804366Y584325D01*
X804399Y584369D01*
X804427Y584397D01*
X804432Y584402D01*
X804493Y584469D01*
X804565Y584530D01*
X804632Y584580D01*
X804698Y584630D01*
X804754Y584669D01*
X804798Y584696D01*
X804832Y584719D01*
X804837Y584724D01*
X804843D01*
X804749Y584741D01*
X804665Y584763D01*
X804588Y584785D01*
X804510Y584813D01*
X804443Y584841D01*
X804382Y584868D01*
X804321Y584896D01*
X804271Y584930D01*
X804227Y584957D01*
X804188Y584985D01*
X804155Y585013D01*
X804132Y585035D01*
X804110Y585052D01*
X804094Y585068D01*
X804088Y585074D01*
X804082Y585079D01*
X804038Y585135D01*
X803999Y585190D01*
X803933Y585313D01*
X803888Y585429D01*
X803860Y585546D01*
X803838Y585646D01*
X803833Y585684D01*
Y585723D01*
X803827Y585751D01*
Y585779D01*
Y585790D01*
Y585795D01*
X803833Y585918D01*
X803855Y586034D01*
X803883Y586134D01*
X803911Y586223D01*
X803944Y586295D01*
X803971Y586350D01*
X803983Y586367D01*
X803994Y586384D01*
X803999Y586389D01*
Y586395D01*
X804066Y586489D01*
X804138Y586567D01*
X804210Y586628D01*
X804282Y586683D01*
X804349Y586717D01*
X804399Y586744D01*
X804432Y586761D01*
X804438Y586767D01*
X804443D01*
X804499Y586783D01*
X804560Y586800D01*
X804698Y586828D01*
X804848Y586844D01*
X804993Y586861D01*
X805065D01*
X805126Y586867D01*
X805187D01*
X805237Y586872D01*
X806968D01*
Y583032D01*
D02*
G37*
G36*
X802162Y585030D02*
X803489Y583032D01*
X802556D01*
X801702Y584330D01*
X800852Y583032D01*
X799920D01*
X801241Y585030D01*
X800037Y586872D01*
X800941D01*
X801702Y585723D01*
X802462Y586872D01*
X803367D01*
X802162Y585030D01*
D02*
G37*
G36*
X796263Y583032D02*
X795485D01*
Y586872D01*
X796263D01*
Y583032D01*
D02*
G37*
G36*
X793260Y585873D02*
X793360Y585856D01*
X793449Y585834D01*
X793538Y585807D01*
X793621Y585768D01*
X793693Y585729D01*
X793765Y585684D01*
X793826Y585646D01*
X793882Y585601D01*
X793931Y585557D01*
X793976Y585518D01*
X794009Y585479D01*
X794037Y585451D01*
X794059Y585429D01*
X794070Y585412D01*
X794076Y585407D01*
Y585818D01*
X794759D01*
Y583032D01*
X794020D01*
Y584286D01*
Y584369D01*
Y584447D01*
X794015Y584519D01*
X794009Y584580D01*
Y584641D01*
X794004Y584691D01*
X793998Y584741D01*
X793993Y584780D01*
X793982Y584846D01*
X793976Y584891D01*
X793965Y584918D01*
Y584924D01*
X793943Y584985D01*
X793909Y585046D01*
X793876Y585090D01*
X793843Y585135D01*
X793810Y585163D01*
X793782Y585190D01*
X793765Y585202D01*
X793759Y585207D01*
X793698Y585240D01*
X793637Y585268D01*
X793582Y585285D01*
X793526Y585301D01*
X793482Y585307D01*
X793449Y585313D01*
X793415D01*
X793360Y585307D01*
X793310Y585301D01*
X793271Y585290D01*
X793232Y585274D01*
X793199Y585257D01*
X793177Y585246D01*
X793166Y585240D01*
X793160Y585235D01*
X793121Y585207D01*
X793093Y585174D01*
X793044Y585107D01*
X793027Y585074D01*
X793016Y585052D01*
X793005Y585035D01*
Y585030D01*
X792994Y585002D01*
X792988Y584969D01*
X792977Y584885D01*
X792966Y584785D01*
X792960Y584691D01*
X792955Y584597D01*
Y584558D01*
Y584519D01*
Y584491D01*
Y584469D01*
Y584452D01*
Y584447D01*
Y583032D01*
X792217D01*
Y584758D01*
Y584874D01*
X792222Y584969D01*
X792228Y585057D01*
X792239Y585124D01*
X792244Y585179D01*
X792255Y585218D01*
X792261Y585246D01*
Y585252D01*
X792278Y585318D01*
X792300Y585374D01*
X792322Y585429D01*
X792350Y585473D01*
X792372Y585512D01*
X792389Y585540D01*
X792400Y585557D01*
X792405Y585562D01*
X792450Y585612D01*
X792500Y585657D01*
X792550Y585696D01*
X792599Y585729D01*
X792644Y585756D01*
X792683Y585773D01*
X792705Y585784D01*
X792716Y585790D01*
X792794Y585818D01*
X792872Y585840D01*
X792944Y585856D01*
X793010Y585868D01*
X793071Y585873D01*
X793121Y585879D01*
X793160D01*
X793260Y585873D01*
D02*
G37*
%LPC*%
G36*
X806192Y606223D02*
X805303D01*
X805254Y606217D01*
X805132D01*
X805081Y606212D01*
X805048D01*
X805031Y606206D01*
X805026D01*
X804959Y606189D01*
X804898Y606167D01*
X804848Y606145D01*
X804810Y606117D01*
X804776Y606089D01*
X804749Y606073D01*
X804737Y606056D01*
X804732Y606051D01*
X804698Y606006D01*
X804671Y605951D01*
X804654Y605901D01*
X804638Y605851D01*
X804632Y605806D01*
X804626Y605773D01*
Y605751D01*
Y605740D01*
X804632Y605679D01*
X804638Y605623D01*
X804654Y605573D01*
X804665Y605529D01*
X804682Y605496D01*
X804698Y605474D01*
X804704Y605457D01*
X804710Y605451D01*
X804743Y605412D01*
X804776Y605379D01*
X804848Y605329D01*
X804876Y605313D01*
X804904Y605302D01*
X804921Y605290D01*
X804926D01*
X804954Y605285D01*
X804998Y605274D01*
X805043Y605268D01*
X805093Y605263D01*
X805209Y605257D01*
X805326Y605252D01*
X805437Y605246D01*
X806192D01*
Y606223D01*
D02*
G37*
G36*
X791295Y606284D02*
X791251D01*
X791162Y606278D01*
X791079Y606267D01*
X791001Y606256D01*
X790929Y606234D01*
X790801Y606178D01*
X790740Y606151D01*
X790690Y606123D01*
X790640Y606089D01*
X790602Y606062D01*
X790568Y606034D01*
X790535Y606006D01*
X790513Y605984D01*
X790496Y605973D01*
X790490Y605962D01*
X790485Y605956D01*
X790435Y605890D01*
X790385Y605818D01*
X790346Y605745D01*
X790313Y605662D01*
X790263Y605496D01*
X790230Y605335D01*
X790213Y605263D01*
X790207Y605190D01*
X790202Y605129D01*
X790196Y605074D01*
X790191Y605024D01*
Y604991D01*
Y604969D01*
Y604963D01*
X790196Y604841D01*
X790202Y604724D01*
X790219Y604619D01*
X790235Y604524D01*
X790257Y604430D01*
X790285Y604347D01*
X790313Y604275D01*
X790341Y604208D01*
X790369Y604147D01*
X790396Y604097D01*
X790418Y604053D01*
X790446Y604014D01*
X790463Y603986D01*
X790479Y603969D01*
X790485Y603958D01*
X790490Y603953D01*
X790546Y603892D01*
X790607Y603842D01*
X790674Y603797D01*
X790735Y603759D01*
X790801Y603731D01*
X790862Y603703D01*
X790984Y603664D01*
X791090Y603636D01*
X791134Y603631D01*
X791173Y603625D01*
X791207Y603620D01*
X791251D01*
X791334Y603625D01*
X791417Y603636D01*
X791495Y603653D01*
X791567Y603675D01*
X791701Y603725D01*
X791806Y603792D01*
X791856Y603820D01*
X791895Y603853D01*
X791934Y603881D01*
X791961Y603908D01*
X791984Y603925D01*
X792000Y603942D01*
X792011Y603953D01*
X792017Y603958D01*
X792067Y604025D01*
X792117Y604097D01*
X792156Y604175D01*
X792189Y604258D01*
X792244Y604419D01*
X792278Y604580D01*
X792289Y604658D01*
X792300Y604724D01*
X792305Y604791D01*
X792311Y604846D01*
X792316Y604891D01*
Y604924D01*
Y604946D01*
Y604952D01*
X792311Y605074D01*
X792305Y605185D01*
X792289Y605290D01*
X792272Y605390D01*
X792250Y605479D01*
X792228Y605562D01*
X792200Y605634D01*
X792172Y605701D01*
X792144Y605762D01*
X792117Y605812D01*
X792095Y605851D01*
X792072Y605890D01*
X792056Y605918D01*
X792039Y605934D01*
X792033Y605945D01*
X792028Y605951D01*
X791972Y606012D01*
X791911Y606062D01*
X791845Y606106D01*
X791784Y606145D01*
X791717Y606178D01*
X791650Y606201D01*
X791528Y606245D01*
X791417Y606267D01*
X791373Y606273D01*
X791329Y606278D01*
X791295Y606284D01*
D02*
G37*
G36*
X798005Y616223D02*
X797500D01*
X797428Y616217D01*
X797361D01*
X797306Y616212D01*
X797256D01*
X797206Y616206D01*
X797167D01*
X797106Y616195D01*
X797062Y616189D01*
X797034Y616184D01*
X797028D01*
X796951Y616162D01*
X796884Y616134D01*
X796823Y616106D01*
X796768Y616073D01*
X796729Y616045D01*
X796695Y616023D01*
X796679Y616006D01*
X796673Y616001D01*
X796623Y615945D01*
X796579Y615884D01*
X796540Y615823D01*
X796507Y615768D01*
X796485Y615712D01*
X796468Y615668D01*
X796457Y615640D01*
X796451Y615634D01*
Y615629D01*
X796423Y615529D01*
X796401Y615423D01*
X796390Y615307D01*
X796379Y615196D01*
X796374Y615102D01*
X796368Y615057D01*
Y615018D01*
Y614991D01*
Y614968D01*
Y614952D01*
Y614946D01*
X796374Y614791D01*
X796379Y614647D01*
X796396Y614530D01*
X796407Y614430D01*
X796423Y614347D01*
X796429Y614314D01*
X796440Y614291D01*
X796446Y614269D01*
Y614253D01*
X796451Y614247D01*
Y614241D01*
X796485Y614153D01*
X796512Y614075D01*
X796551Y614014D01*
X796579Y613964D01*
X796607Y613925D01*
X796629Y613897D01*
X796645Y613881D01*
X796651Y613875D01*
X796701Y613836D01*
X796751Y613803D01*
X796801Y613775D01*
X796851Y613753D01*
X796895Y613736D01*
X796929Y613725D01*
X796951Y613714D01*
X796962D01*
X797023Y613703D01*
X797095Y613697D01*
X797173Y613686D01*
X797251D01*
X797323Y613681D01*
X798005D01*
Y616223D01*
D02*
G37*
G36*
X794553Y696223D02*
X793665D01*
X793615Y696217D01*
X793493D01*
X793443Y696212D01*
X793410D01*
X793393Y696206D01*
X793388D01*
X793321Y696189D01*
X793260Y696167D01*
X793210Y696145D01*
X793171Y696117D01*
X793138Y696090D01*
X793110Y696073D01*
X793099Y696056D01*
X793093Y696051D01*
X793060Y696006D01*
X793032Y695951D01*
X793016Y695901D01*
X792999Y695851D01*
X792994Y695807D01*
X792988Y695773D01*
Y695751D01*
Y695740D01*
X792994Y695679D01*
X792999Y695623D01*
X793016Y695573D01*
X793027Y695529D01*
X793044Y695496D01*
X793060Y695473D01*
X793066Y695457D01*
X793071Y695451D01*
X793105Y695412D01*
X793138Y695379D01*
X793210Y695329D01*
X793238Y695313D01*
X793265Y695301D01*
X793282Y695290D01*
X793288D01*
X793316Y695285D01*
X793360Y695274D01*
X793404Y695268D01*
X793454Y695263D01*
X793571Y695257D01*
X793687Y695252D01*
X793798Y695246D01*
X794553D01*
Y696223D01*
D02*
G37*
G36*
X806192Y656223D02*
X805614D01*
X805559Y656217D01*
X805509D01*
X805459Y656212D01*
X805387D01*
X805331Y656206D01*
X805292Y656201D01*
X805270Y656195D01*
X805265D01*
X805198Y656178D01*
X805137Y656156D01*
X805081Y656128D01*
X805037Y656095D01*
X805004Y656067D01*
X804976Y656045D01*
X804959Y656029D01*
X804954Y656023D01*
X804910Y655968D01*
X804882Y655912D01*
X804860Y655851D01*
X804843Y655795D01*
X804832Y655745D01*
X804826Y655707D01*
Y655684D01*
Y655673D01*
X804832Y655612D01*
X804837Y655557D01*
X804854Y655507D01*
X804871Y655462D01*
X804887Y655423D01*
X804898Y655396D01*
X804910Y655379D01*
X804915Y655374D01*
X804948Y655329D01*
X804993Y655290D01*
X805031Y655257D01*
X805070Y655229D01*
X805104Y655213D01*
X805132Y655196D01*
X805154Y655190D01*
X805159Y655185D01*
X805192Y655174D01*
X805231Y655168D01*
X805320Y655152D01*
X805420Y655140D01*
X805520Y655135D01*
X805620D01*
X805659Y655129D01*
X806192D01*
Y656223D01*
D02*
G37*
G36*
Y586223D02*
X805303D01*
X805254Y586217D01*
X805132D01*
X805081Y586212D01*
X805048D01*
X805031Y586206D01*
X805026D01*
X804959Y586190D01*
X804898Y586167D01*
X804848Y586145D01*
X804810Y586117D01*
X804776Y586090D01*
X804749Y586073D01*
X804737Y586056D01*
X804732Y586051D01*
X804698Y586006D01*
X804671Y585951D01*
X804654Y585901D01*
X804638Y585851D01*
X804632Y585807D01*
X804626Y585773D01*
Y585751D01*
Y585740D01*
X804632Y585679D01*
X804638Y585623D01*
X804654Y585573D01*
X804665Y585529D01*
X804682Y585496D01*
X804698Y585473D01*
X804704Y585457D01*
X804710Y585451D01*
X804743Y585412D01*
X804776Y585379D01*
X804848Y585329D01*
X804876Y585313D01*
X804904Y585301D01*
X804921Y585290D01*
X804926D01*
X804954Y585285D01*
X804998Y585274D01*
X805043Y585268D01*
X805093Y585263D01*
X805209Y585257D01*
X805326Y585252D01*
X805437Y585246D01*
X806192D01*
Y586223D01*
D02*
G37*
G36*
X794897Y576284D02*
X794853D01*
X794764Y576278D01*
X794681Y576267D01*
X794603Y576256D01*
X794531Y576234D01*
X794403Y576178D01*
X794342Y576151D01*
X794292Y576123D01*
X794242Y576089D01*
X794204Y576062D01*
X794170Y576034D01*
X794137Y576006D01*
X794115Y575984D01*
X794098Y575973D01*
X794093Y575962D01*
X794087Y575956D01*
X794037Y575890D01*
X793987Y575818D01*
X793948Y575745D01*
X793915Y575662D01*
X793865Y575496D01*
X793832Y575335D01*
X793815Y575263D01*
X793810Y575190D01*
X793804Y575129D01*
X793798Y575074D01*
X793793Y575024D01*
Y574991D01*
Y574968D01*
Y574963D01*
X793798Y574841D01*
X793804Y574724D01*
X793821Y574619D01*
X793837Y574524D01*
X793859Y574430D01*
X793887Y574347D01*
X793915Y574275D01*
X793943Y574208D01*
X793970Y574147D01*
X793998Y574097D01*
X794020Y574053D01*
X794048Y574014D01*
X794065Y573986D01*
X794081Y573969D01*
X794087Y573958D01*
X794093Y573953D01*
X794148Y573892D01*
X794209Y573842D01*
X794276Y573797D01*
X794337Y573759D01*
X794403Y573731D01*
X794464Y573703D01*
X794586Y573664D01*
X794692Y573636D01*
X794736Y573631D01*
X794775Y573625D01*
X794808Y573620D01*
X794853D01*
X794936Y573625D01*
X795019Y573636D01*
X795097Y573653D01*
X795169Y573675D01*
X795302Y573725D01*
X795408Y573792D01*
X795458Y573820D01*
X795497Y573853D01*
X795536Y573881D01*
X795563Y573908D01*
X795585Y573925D01*
X795602Y573942D01*
X795613Y573953D01*
X795619Y573958D01*
X795669Y574025D01*
X795719Y574097D01*
X795757Y574175D01*
X795791Y574258D01*
X795846Y574419D01*
X795880Y574580D01*
X795891Y574658D01*
X795902Y574724D01*
X795907Y574791D01*
X795913Y574846D01*
X795919Y574891D01*
Y574924D01*
Y574946D01*
Y574952D01*
X795913Y575074D01*
X795907Y575185D01*
X795891Y575290D01*
X795874Y575390D01*
X795852Y575479D01*
X795830Y575562D01*
X795802Y575634D01*
X795774Y575701D01*
X795746Y575762D01*
X795719Y575812D01*
X795696Y575851D01*
X795674Y575890D01*
X795658Y575917D01*
X795641Y575934D01*
X795635Y575945D01*
X795630Y575951D01*
X795574Y576012D01*
X795513Y576062D01*
X795447Y576106D01*
X795386Y576145D01*
X795319Y576178D01*
X795253Y576201D01*
X795130Y576245D01*
X795019Y576267D01*
X794975Y576273D01*
X794931Y576278D01*
X794897Y576284D01*
D02*
G37*
G36*
X806192Y666223D02*
X805614D01*
X805559Y666217D01*
X805509D01*
X805459Y666212D01*
X805387D01*
X805331Y666206D01*
X805292Y666201D01*
X805270Y666195D01*
X805265D01*
X805198Y666178D01*
X805137Y666156D01*
X805081Y666128D01*
X805037Y666095D01*
X805004Y666067D01*
X804976Y666045D01*
X804959Y666028D01*
X804954Y666023D01*
X804910Y665968D01*
X804882Y665912D01*
X804860Y665851D01*
X804843Y665795D01*
X804832Y665745D01*
X804826Y665707D01*
Y665684D01*
Y665673D01*
X804832Y665612D01*
X804837Y665557D01*
X804854Y665507D01*
X804871Y665462D01*
X804887Y665423D01*
X804898Y665396D01*
X804910Y665379D01*
X804915Y665374D01*
X804948Y665329D01*
X804993Y665290D01*
X805031Y665257D01*
X805070Y665229D01*
X805104Y665213D01*
X805132Y665196D01*
X805154Y665190D01*
X805159Y665185D01*
X805192Y665174D01*
X805231Y665168D01*
X805320Y665152D01*
X805420Y665140D01*
X805520Y665135D01*
X805620D01*
X805659Y665129D01*
X806192D01*
Y666223D01*
D02*
G37*
G36*
X798344Y686223D02*
X797839D01*
X797767Y686217D01*
X797700D01*
X797645Y686212D01*
X797594D01*
X797545Y686206D01*
X797506D01*
X797445Y686195D01*
X797400Y686190D01*
X797372Y686184D01*
X797367D01*
X797289Y686162D01*
X797223Y686134D01*
X797162Y686106D01*
X797106Y686073D01*
X797067Y686045D01*
X797034Y686023D01*
X797017Y686006D01*
X797012Y686001D01*
X796962Y685945D01*
X796917Y685884D01*
X796879Y685823D01*
X796845Y685768D01*
X796823Y685712D01*
X796806Y685668D01*
X796795Y685640D01*
X796790Y685635D01*
Y685629D01*
X796762Y685529D01*
X796740Y685424D01*
X796729Y685307D01*
X796718Y685196D01*
X796712Y685102D01*
X796706Y685057D01*
Y685018D01*
Y684991D01*
Y684969D01*
Y684952D01*
Y684946D01*
X796712Y684791D01*
X796718Y684647D01*
X796734Y684530D01*
X796745Y684430D01*
X796762Y684347D01*
X796768Y684314D01*
X796779Y684291D01*
X796784Y684269D01*
Y684253D01*
X796790Y684247D01*
Y684241D01*
X796823Y684153D01*
X796851Y684075D01*
X796890Y684014D01*
X796917Y683964D01*
X796945Y683925D01*
X796967Y683897D01*
X796984Y683881D01*
X796990Y683875D01*
X797040Y683836D01*
X797089Y683803D01*
X797140Y683775D01*
X797189Y683753D01*
X797234Y683736D01*
X797267Y683725D01*
X797289Y683714D01*
X797300D01*
X797361Y683703D01*
X797434Y683698D01*
X797511Y683686D01*
X797589D01*
X797661Y683681D01*
X798344D01*
Y686223D01*
D02*
G37*
G36*
X802218D02*
X801713D01*
X801641Y686217D01*
X801574D01*
X801518Y686212D01*
X801468D01*
X801418Y686206D01*
X801380D01*
X801319Y686195D01*
X801274Y686190D01*
X801246Y686184D01*
X801241D01*
X801163Y686162D01*
X801097Y686134D01*
X801035Y686106D01*
X800980Y686073D01*
X800941Y686045D01*
X800908Y686023D01*
X800891Y686006D01*
X800886Y686001D01*
X800836Y685945D01*
X800791Y685884D01*
X800753Y685823D01*
X800719Y685768D01*
X800697Y685712D01*
X800680Y685668D01*
X800669Y685640D01*
X800664Y685635D01*
Y685629D01*
X800636Y685529D01*
X800614Y685424D01*
X800603Y685307D01*
X800592Y685196D01*
X800586Y685102D01*
X800581Y685057D01*
Y685018D01*
Y684991D01*
Y684969D01*
Y684952D01*
Y684946D01*
X800586Y684791D01*
X800592Y684647D01*
X800608Y684530D01*
X800619Y684430D01*
X800636Y684347D01*
X800642Y684314D01*
X800653Y684291D01*
X800658Y684269D01*
Y684253D01*
X800664Y684247D01*
Y684241D01*
X800697Y684153D01*
X800725Y684075D01*
X800764Y684014D01*
X800791Y683964D01*
X800819Y683925D01*
X800841Y683897D01*
X800858Y683881D01*
X800863Y683875D01*
X800914Y683836D01*
X800963Y683803D01*
X801013Y683775D01*
X801063Y683753D01*
X801108Y683736D01*
X801141Y683725D01*
X801163Y683714D01*
X801174D01*
X801235Y683703D01*
X801307Y683698D01*
X801385Y683686D01*
X801463D01*
X801535Y683681D01*
X802218D01*
Y686223D01*
D02*
G37*
G36*
X798438Y666223D02*
X797933D01*
X797861Y666217D01*
X797794D01*
X797739Y666212D01*
X797689D01*
X797639Y666206D01*
X797600D01*
X797539Y666195D01*
X797495Y666189D01*
X797467Y666184D01*
X797461D01*
X797384Y666162D01*
X797317Y666134D01*
X797256Y666106D01*
X797200Y666073D01*
X797162Y666045D01*
X797128Y666023D01*
X797112Y666006D01*
X797106Y666001D01*
X797056Y665945D01*
X797012Y665884D01*
X796973Y665823D01*
X796940Y665768D01*
X796917Y665712D01*
X796901Y665668D01*
X796890Y665640D01*
X796884Y665634D01*
Y665629D01*
X796856Y665529D01*
X796834Y665423D01*
X796823Y665307D01*
X796812Y665196D01*
X796806Y665102D01*
X796801Y665057D01*
Y665018D01*
Y664991D01*
Y664968D01*
Y664952D01*
Y664946D01*
X796806Y664791D01*
X796812Y664647D01*
X796829Y664530D01*
X796840Y664430D01*
X796856Y664347D01*
X796862Y664314D01*
X796873Y664291D01*
X796879Y664269D01*
Y664253D01*
X796884Y664247D01*
Y664241D01*
X796917Y664153D01*
X796945Y664075D01*
X796984Y664014D01*
X797012Y663964D01*
X797040Y663925D01*
X797062Y663897D01*
X797078Y663881D01*
X797084Y663875D01*
X797134Y663836D01*
X797184Y663803D01*
X797234Y663775D01*
X797284Y663753D01*
X797328Y663736D01*
X797361Y663725D01*
X797384Y663714D01*
X797395D01*
X797456Y663703D01*
X797528Y663697D01*
X797606Y663686D01*
X797683D01*
X797755Y663681D01*
X798438D01*
Y666223D01*
D02*
G37*
%LPD*%
M02*
